<?xml version="1.0" encoding="UTF-8" standalone="no"?>
<!-- Created with Inkscape (http://www.inkscape.org/) -->

<svg
   xmlns:dc="http://purl.org/dc/elements/1.1/"
   xmlns:cc="http://creativecommons.org/ns#"
   xmlns:rdf="http://www.w3.org/1999/02/22-rdf-syntax-ns#"
   xmlns:svg="http://www.w3.org/2000/svg"
   xmlns="http://www.w3.org/2000/svg"
   xmlns:sodipodi="http://sodipodi.sourceforge.net/DTD/sodipodi-0.dtd"
   xmlns:inkscape="http://www.inkscape.org/namespaces/inkscape"
   width="64px"
   height="64px"
   id="svg3207"
   version="1.1"
   inkscape:version="0.48.0 r9654"
   sodipodi:docname="hel1.svg">
  <defs
     id="defs3209">
    <filter
       id="filter3217"
       inkscape:label="Black hole"
       inkscape:menu="Morphology"
       inkscape:menu-tooltip="Creates a black light inside and outside"
       height="1.5"
       width="1.5"
       y="-0.25"
       x="-0.25"
       color-interpolation-filters="sRGB">
      <feGaussianBlur
         id="feGaussianBlur3219"
         stdDeviation="5"
         in="SourceAlpha"
         result="result1" />
      <feComposite
         id="feComposite3221"
         in2="result1"
         operator="arithmetic"
         k2="3.2"
         k1="-1"
         k4="-2"
         result="result3" />
      <feColorMatrix
         id="feColorMatrix3223"
         values="1 0 0 0 0 0 1 0 0 0 0 0 1 0 0 0 0 0 10 0 "
         result="result2" />
      <feComposite
         id="feComposite3225"
         in2="result2"
         result="fbSourceGraphic"
         in="SourceGraphic"
         operator="out" />
      <feBlend
         id="feBlend3227"
         in2="fbSourceGraphic"
         mode="multiply"
         in="result1"
         result="result91" />
      <feBlend
         id="feBlend3229"
         in2="result91"
         mode="screen"
         in="fbSourceGraphic" />
    </filter>
    <filter
       id="filter3281"
       inkscape:menu-tooltip="3D warped, fibered wood texture"
       inkscape:menu="Materials"
       inkscape:label="3D wood"
       height="1.5"
       y="-0.25"
       width="1.5"
       x="-0.25"
       color-interpolation-filters="sRGB">
      <feGaussianBlur
         id="feGaussianBlur3283"
         result="result8"
         stdDeviation="4" />
      <feTurbulence
         id="feTurbulence3285"
         baseFrequency="0.025 0.2"
         numOctaves="3"
         type="fractalNoise"
         result="result7"
         seed="22" />
      <feComposite
         id="feComposite3287"
         in2="result8"
         operator="in"
         in="SourceGraphic"
         result="result6" />
      <feDisplacementMap
         id="feDisplacementMap3289"
         in2="result6"
         result="result4"
         scale="50"
         yChannelSelector="A"
         xChannelSelector="A"
         in="result7" />
      <feFlood
         id="feFlood3291"
         flood-color="rgb(230,211,138)"
         flood-opacity="1"
         in="result4"
         result="result9" />
      <feComposite
         id="feComposite3293"
         in2="result4"
         operator="atop"
         result="result2" />
      <feComposite
         id="feComposite3295"
         in2="SourceGraphic"
         operator="atop"
         in="result2"
         result="result9" />
      <feGaussianBlur
         id="feGaussianBlur3297"
         result="result0"
         in="result9"
         stdDeviation="8" />
      <feSpecularLighting
         id="feSpecularLighting3299"
         specularExponent="15"
         specularConstant="0.7"
         surfaceScale="5"
         lighting-color="rgb(255,255,255)"
         result="result1"
         in="result0">
        <feDistantLight
           id="feDistantLight3301"
           azimuth="235"
           elevation="50" />
      </feSpecularLighting>
      <feComposite
         id="feComposite3303"
         in2="result9"
         operator="in"
         result="result2"
         in="result1" />
      <feComposite
         id="feComposite3305"
         in2="result2"
         k3="0.5"
         k2="0.5"
         operator="arithmetic"
         result="result4"
         in="result9" />
      <feConvolveMatrix
         id="feConvolveMatrix3307"
         order="3 3"
         kernelMatrix="2 0 0 0 2 0 0 0 -2 "
         targetX="2"
         targetY="2"
         result="result10" />
      <feBlend
         id="feBlend3309"
         in2="result10"
         mode="multiply"
         in="result10" />
    </filter>
  </defs>
  <sodipodi:namedview
     id="base"
     pagecolor="#ffffff"
     bordercolor="#666666"
     borderopacity="1.0"
     inkscape:pageopacity="0.0"
     inkscape:pageshadow="2"
     inkscape:zoom="5.5"
     inkscape:cx="32"
     inkscape:cy="32"
     inkscape:current-layer="layer1"
     showgrid="true"
     inkscape:document-units="px"
     inkscape:grid-bbox="true"
     inkscape:window-width="851"
     inkscape:window-height="645"
     inkscape:window-x="1604"
     inkscape:window-y="82"
     inkscape:window-maximized="0" />
  <metadata
     id="metadata3212">
    <rdf:RDF>
      <cc:Work
         rdf:about="">
        <dc:format>image/svg+xml</dc:format>
        <dc:type
           rdf:resource="http://purl.org/dc/dcmitype/StillImage" />
        <dc:title></dc:title>
      </cc:Work>
    </rdf:RDF>
  </metadata>
  <g
     id="layer1"
     inkscape:label="Layer 1"
     inkscape:groupmode="layer">
    <path
       sodipodi:type="arc"
       style="fill:#ffff00;filter:url(#filter3217)"
       id="path3215"
       sodipodi:cx="32.545456"
       sodipodi:cy="36.545456"
       sodipodi:rx="24.909092"
       sodipodi:ry="19.272728"
       d="M 57.454548,36.545456 A 24.909092,19.272728 0 1 1 56.212563,30.535723 L 32.545456,36.545456 z"
       sodipodi:start="0"
       sodipodi:end="5.9660713" />
    <rect
       style="fill:#ff0000"
       id="rect3231"
       width="10.545456"
       height="17.09091"
       x="45.636364"
       y="13.454545" />
    <rect
       style="fill:#ff0000"
       id="rect3233"
       width="19.636364"
       height="2.7272727"
       x="23.272728"
       y="54.909092" />
    <rect
       style="fill:#ff0000"
       id="rect3235"
       width="61.272728"
       height="2.1818182"
       x="1.4545455"
       y="57.636364" />
    <rect
       style="fill:#ff0000"
       id="rect3237"
       width="6.5454545"
       height="6.181818"
       x="30.181818"
       y="10.363636" />
    <path
       style="fill:#000000;fill-opacity:1;fill-rule:nonzero;stroke:none"
       id="path3277"
       d="m 10.767755,14.106177 c 0.254918,-0.366408 0.71907,-0.522773 0.986144,-0.875005 0.06066,-0.08 0.105098,-0.171084 0.157647,-0.256626 0.06424,-0.0691 0.123735,-0.142932 0.192709,-0.207306 0.1938,-0.18088 0.229707,-0.128204 0.37038,-0.375377 0.03933,-0.06911 0.05126,-0.150572 0.07945,-0.22492 0.106276,-0.280285 0.06326,-0.185593 0.236811,-0.43543 0.245525,-0.214077 0.448428,-0.47252 0.584283,-0.770701 0.147212,-0.323107 0.09918,-0.419553 0.332458,-0.72113 0.125944,-0.164438 0.218759,-0.2498079 0.275294,-0.4504547 0.04333,-0.1537696 -0.03446,-0.1983138 0.0857,-0.3197447 0.207898,-0.1349046 0.127052,-0.058417 0.256223,-0.2140739 0.159505,-0.224376 0.355288,-0.4162538 0.482327,-0.6642167 0.04388,-0.085642 0.05164,-0.1877375 0.100558,-0.2706025 0.132745,-0.2248563 0.256938,-0.2920655 0.455307,-0.4457556 0.385762,-0.449514 -0.126191,0.1192188 0.251623,-0.2231315 0.01097,-0.00994 0.0019,-0.030283 0.0083,-0.043628 0.02326,-0.048404 0.04275,-0.1011056 0.07986,-0.1399211 0.214918,-0.1563834 0.129213,-0.07386 0.269129,-0.2344562 0.239697,-0.309655 -0.0157,-0.014302 0.306905,-0.2798794 0.03195,-0.026298 0.04369,-0.074745 0.07966,-0.095201 0.247193,-0.1405882 0.303893,-0.067874 0.598819,-0.096332 0.134804,-0.013008 0.267445,-0.042881 0.401167,-0.064321 0.112135,-0.020847 0.226646,-0.031526 0.336405,-0.06254 0.484323,-0.1368528 0.124363,-0.1398701 0.728082,-0.210324 0.742194,-0.086614 1.512704,-0.012127 2.255812,0.014957 1.170334,0.05278 2.341527,0.017075 3.51229,0.010704 0.717979,-0.012104 0.892812,-0.059566 0.83497,0.6929877 -0.106511,0.7015281 0.07671,1.4399445 -0.124468,2.1301062 -0.13623,0.4673446 -0.333663,0.69803 -0.596637,1.0843543 -0.122747,0.148951 -0.231197,0.31094 -0.368241,0.446853 -0.442353,0.4387 -0.958579,0.79645 -1.423114,1.211589 -0.549966,0.491486 -1.725575,1.651154 -2.331068,2.048107 -0.442693,0.290224 -0.947281,0.472744 -1.420922,0.709116 -1.774278,0.458158 -1.02811,0.315061 -2.721817,0.573752 -0.246277,0.03762 -0.492381,0.07695 -0.739668,0.107225 -0.06763,0.0083 -0.161486,0.06138 -0.204249,0.0083 -0.05525,-0.06854 0.05825,-0.258462 0.09383,-0.326674 C 15.09446,14.605571 14.946302,14.051628 14.71162,13.563639 14.498461,13.120403 14.287224,12.920137 13.986995,12.540154 13.78746,12.287612 13.591826,12.032012 13.394241,11.777942 12.56307,11.005968 12.107264,10.001245 11.719488,8.9588125 11.520007,8.422562 11.579766,8.3650779 11.211962,7.9752281 11.115582,7.8185029 10.988211,7.6883279 10.95731,7.499402 c -0.01102,-0.067391 0.008,-0.1376353 -0.0042,-0.2048162 -0.02252,-0.1236536 -0.08845,-0.2353243 -0.129989,-0.3539507 -0.01244,-0.067339 -0.04683,-0.1342007 -0.03733,-0.2020175 0.02727,-0.1946902 0.196347,-0.4831569 0.396182,-0.5450545 0.154329,-0.047803 0.312048,0.00562 0.459903,0.037247 0.278554,0.020294 0.459677,0.2248607 0.690732,0.3524793 0.413919,0.2286206 0.546577,0.205055 0.941505,0.5210604 0.142729,0.1142057 0.253247,0.263673 0.37987,0.3955095 0.304265,0.4117857 1.379326,2.4447472 2.055214,1.9850489 -0.189736,-0.5207221 -0.0055,-1.0501571 0.04484,-1.5750111 0.03351,-0.055221 0.08252,-0.1036317 0.100538,-0.1656635 0.008,-0.027558 -0.01948,-0.053986 -0.02888,-0.081101 -0.0174,-0.050239 -0.0191,-0.1088153 -0.05152,-0.1509576 -0.06414,-0.083381 -0.404222,-0.1781327 -0.502405,-0.2012541 -0.04434,0.053481 -0.08148,0.1138779 -0.133036,0.1604441 -0.42121,0.3804195 -0.468647,0.2942185 -0.912239,0.7769558 -0.81561,0.8875836 -1.399614,1.9789657 -2.006535,3.0093227 0.162034,-0.04533 -0.876578,1.463618 -0.352087,1.628167 0.03263,0.01024 0.05441,-0.05504 0.08846,-0.05194 0.0825,0.0075 0.155762,0.05661 0.234816,0.08136 0.09343,0.02924 0.18829,0.0537 0.282434,0.08056 0.290842,0.06419 0.609595,0.04627 0.856018,-0.145595 0.08395,-0.06536 0.144547,-0.156311 0.220925,-0.230385 0.163828,-0.158889 0.333898,-0.311221 0.499472,-0.468291 0.246666,-0.233997 0.491488,-0.46993 0.737233,-0.704895 0.282049,-0.336896 0.564098,-0.673791 0.846147,-1.010687 0.342632,-0.433208 0.673544,-0.875949 1.027895,-1.2996242 0.432915,-0.5176082 0.924078,-0.986735 1.333181,-1.5233614 0.531452,-0.6971132 1.05234,-1.5501567 1.314008,-2.4077666 0.08269,-0.2710141 0.09743,-0.5582584 0.146147,-0.8373876 -0.08424,-0.3879527 0.06333,-1.1345249 -0.367532,-1.3867829 -0.04422,-0.025887 -0.274302,0.1735579 -0.284771,0.180183 -1.675355,1.4802543 -3.100664,3.2232262 -4.558881,4.9096877 -0.540368,0.6249478 -1.089237,1.2424944 -1.633855,1.8637417 -0.453362,0.5132573 -0.919085,1.0158563 -1.360086,1.5397733 -0.478004,0.567877 -1.120573,1.133783 -1.114397,1.955497 0.0021,0.284721 0.259184,0.465112 0.507819,0.448638 0.09334,-0.0062 0.173052,-0.0711 0.259578,-0.106654 0.09702,-0.129615 0.278192,-0.153729 0.388638,-0.265032 0.01906,-0.01921 0.0046,-0.05544 0.01735,-0.07931 0.06044,-0.113067 0.113877,-0.176382 0.214619,-0.262306 0.498013,-0.532227 0.907405,-1.134485 1.372661,-1.69284 0.06332,-0.02638 0.121504,-0.07469 0.189953,-0.07915 0.165084,-0.01077 0.196187,0.107865 0.346175,0.03584 0.05364,-0.02576 0.0911,-0.0766 0.137947,-0.113285 0.466243,-0.365059 0.09405,-0.05414 0.553703,-0.449573 0.327886,-0.394596 0.743438,-0.677116 1.141095,-0.9918312 0.814567,-0.6446683 -0.246177,0.1383842 0.647108,-0.5088895 0.802192,-0.3054403 1.486784,-0.8534545 2.275708,-1.1852946 0.658036,-0.2767856 1.328665,-0.5317264 2.018193,-0.7165857 0.48986,-0.1313291 3.440884,-0.6225417 4.05467,-0.7269437 0.540027,-0.1000799 1.083541,-0.1828912 1.62008,-0.3002396 1.540728,-0.3369781 0.802151,-0.2989605 2.187016,-0.4943406 0.328754,-0.046381 0.66296,-0.049761 0.990717,-0.1027323 0.571465,-0.09236 0.819152,-0.1840315 1.315706,-0.3406125 0.165867,-0.2345857 0.114852,0.1985476 0.231408,0.094882 0,0 -0.177898,0.037553 -0.177898,0.037553 l 0,0 c 0.01578,-0.3623079 0.305643,0.018527 0.0011,0.040999 -0.514265,0.1614791 -0.757682,0.2519351 -1.351572,0.3480306 -0.323317,0.052315 -0.653041,0.055282 -0.977378,0.100851 -1.360908,0.191206 -0.655349,0.1594065 -2.185932,0.4941431 -0.537414,0.117532 -1.081815,0.2004728 -1.622722,0.3007091 -0.578079,0.098321 -3.56365,0.5960298 -4.024404,0.7190676 -0.680904,0.1818256 -1.343427,0.4323642 -1.99311,0.7054983 -0.781641,0.3286107 -1.45881,0.8732993 -2.254967,1.17232 -0.830686,0.600081 0.15129,-0.1232032 -0.64707,0.508862 -0.393826,0.311794 -0.804548,0.591168 -1.129194,0.982435 -0.204905,0.175982 -0.538258,0.514993 -0.796983,0.606316 -0.203394,0.07179 -0.23608,-0.08526 -0.409705,-0.02155 -0.476701,0.570567 -0.891765,1.190548 -1.4106,1.727096 -0.11944,0.03319 -0.150457,0.254065 -0.234602,0.343353 -0.04597,0.04878 -0.112784,0.07247 -0.168653,0.109505 -0.08742,0.05794 -0.174126,0.116949 -0.261188,0.175424 -0.125242,0.0355 -0.245865,0.115525 -0.375726,0.106492 -0.839276,-0.05838 -0.6537877,-1.060723 -0.381678,-1.539155 0.24268,-0.426687 0.594201,-0.782014 0.910302,-1.157561 0.440845,-0.523751 0.906423,-1.026175 1.359635,-1.5392619 0.544083,-0.6206283 1.092401,-1.2375697 1.63225,-1.8618849 1.469688,-1.6996408 2.905527,-3.4601286 4.600113,-4.9454114 0.04297,-0.027088 0.292809,-0.1878999 0.327086,-0.1938116 0.592808,-0.1022398 0.574942,1.31909 0.60134,1.5858499 -0.05243,0.2918138 -0.06998,0.5920989 -0.157277,0.8754415 -0.269882,0.8759625 -0.801341,1.7442692 -1.345093,2.4577457 -0.407192,0.5342916 -0.896419,1.0011055 -1.327392,1.516406 -0.355444,0.4249921 -0.687425,0.8690697 -1.031137,1.3036057 -0.28662,0.341776 -0.573239,0.683552 -0.859859,1.025328 -0.246179,0.235377 -0.491425,0.471734 -0.738538,0.70613 -0.163938,0.155502 -0.331076,0.307613 -0.4946,0.46355 -0.27164,0.259037 -0.461688,0.448835 -0.866653,0.471207 -0.130667,0.0072 -0.259739,-0.03224 -0.389609,-0.04836 -0.09948,-0.02865 -0.200579,-0.05216 -0.298428,-0.08596 -0.05274,-0.01821 -0.09777,-0.05743 -0.152211,-0.06967 -0.08196,-0.01842 -0.181188,0.02554 -0.251136,-0.02098 -0.535468,-0.356097 0.289969,-1.583743 0.341598,-1.8286 0.895925,-1.5203956 1.71252,-3.0710513 3.252273,-4.0308907 0.28468,0.073718 0.641449,0.1710115 0.691143,0.5117987 0.02908,0.1994442 0.02445,0.1700453 -0.07174,0.2813812 -0.0369,0.3692507 -0.148677,0.7347151 -0.132516,1.1090363 0.0052,0.1193021 0.05995,0.2341593 0.05776,0.3535524 -0.0016,0.088658 -0.04598,0.1712826 -0.06897,0.256924 -0.06853,0.028824 -0.131506,0.080294 -0.205597,0.086473 C 14.74009,9.8041437 13.938886,8.2116499 13.522165,7.6250939 13.407556,7.5030296 13.308781,7.3638738 13.178337,7.258901 12.812837,6.9647719 12.626219,6.9522922 12.231354,6.7343089 12.01272,6.6136135 11.863408,6.4282613 11.602268,6.4082632 11.269255,6.3302214 11.238839,6.2750563 11.047633,6.5805893 c -0.114001,0.1821641 -0.09282,0.068262 -0.05292,0.2999589 0.01661,0.047442 0.133459,0.3772806 0.140205,0.4136735 0.0093,0.050099 -0.0092,0.1021821 -0.0035,0.1528172 0.01822,0.162536 0.13872,0.2673514 0.213634,0.4043211 0.395465,0.4300437 0.333792,0.4754086 0.542959,1.0392204 0.381742,1.0289899 0.826854,2.0154006 1.649751,2.7757476 0.196891,0.253194 0.392029,0.507761 0.590672,0.759583 0.321621,0.407722 0.524976,0.597915 0.753685,1.074593 0.103878,0.216505 0.173471,0.448023 0.249993,0.67564 0.218225,0.649122 0.173088,0.471182 0.210723,1.058442 -0.04095,0.0571 -0.05376,0.158548 -0.122859,0.171316 -0.05922,0.01094 -0.154017,-0.06874 -0.131028,-0.124407 0.02357,-0.05707 0.123838,9.56e-4 0.185123,-0.0066 0.246567,-0.03033 0.491974,-0.06951 0.737567,-0.106907 1.667261,-0.253893 0.931326,-0.113246 2.669069,-0.556944 0.461741,-0.228595 0.954225,-0.403472 1.385223,-0.685785 0.601488,-0.393988 1.785757,-1.560856 2.329824,-2.047057 0.456649,-0.408081 0.965007,-0.758543 1.400749,-1.188876 0.133459,-0.131802 0.238948,-0.289199 0.358422,-0.433799 0.237401,-0.345156 0.443535,-0.5912944 0.566618,-1.0067861 0.203035,-0.6853906 0.01387,-1.42221 0.123292,-2.1193255 0.05161,-0.6350885 0.02421,-0.4920762 -0.652727,-0.4968571 -1.173301,0.00638 -2.347033,0.04211 -3.519904,-0.010822 -0.728127,-0.026559 -1.483428,-0.099951 -2.210957,-0.018901 -0.52397,0.058373 -0.270122,0.080859 -0.733098,0.211329 -0.111354,0.03138 -0.227492,0.042247 -0.341238,0.063371 -0.142282,0.022177 -0.283451,0.053333 -0.426845,0.06653 -0.059,0.00543 -0.366534,-0.022833 -0.465551,0.035238 -0.05031,0.029509 -0.07358,0.09166 -0.118863,0.1284268 -0.297058,0.2411837 0.02261,-0.1265948 -0.26901,0.2481157 -0.04209,0.044995 -0.08418,0.08999 -0.126263,0.1349848 -0.03988,0.022487 -0.08774,0.034615 -0.119634,0.067462 -0.325686,0.3354646 0.150078,-0.048887 -0.153595,0.2499251 -0.02337,0.022994 -0.06257,0.024079 -0.0869,0.046051 -0.05465,0.049347 -0.09789,0.1100143 -0.146827,0.1650214 -0.144715,0.1088133 -0.300674,0.2032622 -0.395707,0.3658012 -0.05497,0.09402 -0.06773,0.20804 -0.117825,0.3047482 -0.132461,0.255734 -0.333409,0.4551503 -0.499274,0.6864802 -0.0438,0.046819 -0.08117,0.1006168 -0.131406,0.1404562 -0.04911,0.038947 -0.131511,0.028723 -0.150735,0.1050248 -0.02001,0.079415 -0.0068,0.1654083 -0.03055,0.2437827 -0.06621,0.2184088 -0.162718,0.3106668 -0.298392,0.4877548 -0.185561,0.221474 -0.196647,0.438217 -0.317045,0.698615 -0.138963,0.300553 -0.342171,0.57026 -0.593273,0.784697 -0.182824,0.251719 -0.180351,0.428967 -0.322945,0.669195 -0.163679,0.275751 -0.178709,0.202838 -0.379619,0.385987 -0.06098,0.05559 -0.113952,0.119372 -0.170928,0.179058 -0.06109,0.09628 -0.113834,0.198382 -0.183263,0.288828 -0.276631,0.360373 -0.748319,0.524262 -1.013855,0.897722 0,0 -0.100854,-0.151282 -0.100854,-0.151282 z"
       inkscape:connector-curvature="0" />
    <path
       sodipodi:type="star"
       style="fill:#ff0000;filter:url(#filter3281)"
       id="path3279"
       sodipodi:sides="5"
       sodipodi:cx="15.636364"
       sodipodi:cy="18.727273"
       sodipodi:r1="9.6157584"
       sodipodi:r2="4.8078793"
       sodipodi:arg1="1.3028859"
       sodipodi:arg2="1.9312044"
       inkscape:flatsided="false"
       inkscape:rounded="0"
       inkscape:randomized="0"
       d="m 18.181818,28.000001 -4.240982,-4.773739 -6.3367706,0.787313 3.2295606,-5.50858 -2.70695,-5.783334 6.23696,1.369249 4.663784,-4.3616102 0.625094,6.3548232 5.589326,3.08771 -5.850632,2.558248 z"
       inkscape:transform-center-x="-0.78658871"
       inkscape:transform-center-y="0.13737634" />
    <path
       sodipodi:type="star"
       style="fill:#ff0000"
       id="path3311"
       sodipodi:sides="5"
       sodipodi:cx="4.7272727"
       sodipodi:cy="31.454545"
       sodipodi:r1="7.4567624"
       sodipodi:r2="3.7283813"
       sodipodi:arg1="1.5951817"
       sodipodi:arg2="2.2235003"
       inkscape:flatsided="false"
       inkscape:rounded="0"
       inkscape:randomized="0"
       d="M 4.5454546,38.909089 2.4628894,34.416536 -2.4186062,33.585206 1.2105178,30.216294 0.49269447,25.31682 4.8181817,27.727271 9.2560381,25.53056 8.3002122,30.389213 11.760782,33.931044 6.8445615,34.523406 z"
       inkscape:transform-center-x="0.056184908"
       inkscape:transform-center-y="0.65841073" />
  </g>
</svg>
