<?xml version="1.0" encoding="UTF-8" standalone="no"?>
<!DOCTYPE svg PUBLIC "-//W3C//DTD SVG 1.0//EN" "http://www.w3.org/TR/2001/PR-SVG-20010719/DTD/svg10.dtd">
<svg width="12cm" height="7cm" viewBox="-129 -3 226 128" xmlns="http://www.w3.org/2000/svg" xmlns:xlink="http://www.w3.org/1999/xlink">
  <g>
    <rect style="fill: #ff0000" x="-9" y="19" width="67.3065" height="69.55"/>
    <rect style="fill: none; fill-opacity:0; stroke-width: 2; stroke: #ff0000" x="-9" y="19" width="67.3065" height="69.55"/>
    <rect style="fill: none; fill-opacity:0; stroke-width: 2; stroke: #ff0000" x="-9" y="19" width="67.3065" height="69.55"/>
  </g>
  <g>
    <polygon style="fill: #000000" points="21.5,-0.5 30.5,17.5 12.5,17.5 "/>
    <polygon style="fill: none; fill-opacity:0; stroke-width: 2; stroke: #000000" points="21.5,-0.5 30.5,17.5 12.5,17.5 "/>
  </g>
  <g>
    <path style="fill: #000099" d="M 59.7397 18.125 C 77.3698,18.125 95,39.0625 95,60 C 95,60 59.7397,60 59.7397,60 C 59.7397,60 59.7397,18.125 59.7397,18.125z"/>
    <path style="fill: none; fill-opacity:0; stroke-width: 2; stroke: #000000" d="M 59.7397 18.125 C 77.3698,18.125 95,39.0625 95,60 C 95,60 59.7397,60 59.7397,60 C 59.7397,60 59.7397,18.125 59.7397,18.125"/>
    <path style="fill: none; fill-opacity:0; stroke-width: 2; stroke: #000000" d="M 59.7397 18.125 C 77.3698,18.125 95,39.0625 95,60 C 95,60 59.7397,60 59.7397,60 C 59.7397,60 59.7397,18.125 59.7397,18.125"/>
  </g>
  <g>
    <polygon style="fill: #000000" points="-10.5103,101.625 59.9897,101.625 95.2397,105.125 -45.7603,105.125 "/>
    <polygon style="fill: none; fill-opacity:0; stroke-width: 2; stroke: #d8e5e5" points="-10.5103,101.625 59.9897,101.625 95.2397,105.125 -45.7603,105.125 "/>
    <polygon style="fill: none; fill-opacity:0; stroke-width: 2; stroke: #d8e5e5" points="-10.5103,101.625 59.9897,101.625 95.2397,105.125 -45.7603,105.125 "/>
  </g>
  <g>
    <rect style="fill: #000000" x="-4" y="89" width="11.3065" height="11.6833"/>
    <rect style="fill: none; fill-opacity:0; stroke-width: 2; stroke: #ff0000" x="-4" y="89" width="11.3065" height="11.6833"/>
    <rect style="fill: none; fill-opacity:0; stroke-width: 2; stroke: #ff0000" x="-4" y="89" width="11.3065" height="11.6833"/>
  </g>
  <g>
    <rect style="fill: #000000" x="35.8397" y="88.9" width="11.3065" height="11.6833"/>
    <rect style="fill: none; fill-opacity:0; stroke-width: 2; stroke: #ff0000" x="35.8397" y="88.9" width="11.3065" height="11.6833"/>
    <rect style="fill: none; fill-opacity:0; stroke-width: 2; stroke: #ff0000" x="35.8397" y="88.9" width="11.3065" height="11.6833"/>
  </g>
  <g>
    <path style="fill: #ff0000" d="M -9.76031 80.125 C -19.5103,80.125 -29.2603,53.875 -29.2603,27.625 C -29.2603,27.625 -9.76031,27.625 -9.76031,27.625 C -9.76031,27.625 -9.76031,80.125 -9.76031,80.125z"/>
    <path style="fill: none; fill-opacity:0; stroke-width: 2; stroke: #ff0000" d="M -9.76031 80.125 C -19.5103,80.125 -29.2603,53.875 -29.2603,27.625 C -29.2603,27.625 -9.76031,27.625 -9.76031,27.625 C -9.76031,27.625 -9.76031,80.125 -9.76031,80.125"/>
    <path style="fill: none; fill-opacity:0; stroke-width: 2; stroke: #ff0000" d="M -9.76031 80.125 C -19.5103,80.125 -29.2603,53.875 -29.2603,27.625 C -29.2603,27.625 -9.76031,27.625 -9.76031,27.625 C -9.76031,27.625 -9.76031,80.125 -9.76031,80.125"/>
  </g>
  <g>
    <path style="fill: #ff0000" d="M 59.7397 88.125 C 77.4897,88.125 95.2397,74.625 95.2397,61.125 C 95.2397,61.125 59.7397,61.125 59.7397,61.125 C 59.7397,61.125 59.7397,88.125 59.7397,88.125z"/>
    <path style="fill: none; fill-opacity:0; stroke-width: 2; stroke: #ff0000" d="M 59.7397 88.125 C 77.4897,88.125 95.2397,74.625 95.2397,61.125 C 95.2397,61.125 59.7397,61.125 59.7397,61.125 C 59.7397,61.125 59.7397,88.125 59.7397,88.125"/>
    <path style="fill: none; fill-opacity:0; stroke-width: 2; stroke: #ff0000" d="M 59.7397 88.125 C 77.4897,88.125 95.2397,74.625 95.2397,61.125 C 95.2397,61.125 59.7397,61.125 59.7397,61.125 C 59.7397,61.125 59.7397,88.125 59.7397,88.125"/>
  </g>
  <g>
    <polygon style="fill: #ff0000" points="-127.76,19.625 -8.76031,29.625 -8.76031,19.625 -127.76,9.625 "/>
    <polygon style="fill: none; fill-opacity:0; stroke-width: 2; stroke: #ff0000" points="-127.76,19.625 -8.76031,29.625 -8.76031,19.625 -127.76,9.625 "/>
    <polygon style="fill: none; fill-opacity:0; stroke-width: 2; stroke: #ff0000" points="-127.76,19.625 -8.76031,29.625 -8.76031,19.625 -127.76,9.625 "/>
  </g>
</svg>
