<?xml version="1.0" encoding="UTF-8" standalone="no"?>
<!-- Created with Inkscape (http://www.inkscape.org/) -->

<svg
   xmlns:dc="http://purl.org/dc/elements/1.1/"
   xmlns:cc="http://creativecommons.org/ns#"
   xmlns:rdf="http://www.w3.org/1999/02/22-rdf-syntax-ns#"
   xmlns:svg="http://www.w3.org/2000/svg"
   xmlns="http://www.w3.org/2000/svg"
   xmlns:inkscape="http://www.inkscape.org/namespaces/inkscape"
   version="1.1"
   width="32"
   height="32"
   id="svg2995">
  <defs
     id="defs2997">
    <inkscape:path-effect
       effect="spiro"
       id="path-effect3791" />
    <inkscape:path-effect
       effect="spiro"
       id="path-effect3787" />
    <inkscape:path-effect
       effect="spiro"
       id="path-effect3783" />
    <inkscape:path-effect
       effect="spiro"
       id="path-effect3779" />
    <inkscape:path-effect
       effect="spiro"
       id="path-effect3775" />
  </defs>
  <metadata
     id="metadata3000">
    <rdf:RDF>
      <cc:Work
         rdf:about="">
        <dc:format>image/svg+xml</dc:format>
        <dc:type
           rdf:resource="http://purl.org/dc/dcmitype/StillImage" />
        <dc:title></dc:title>
      </cc:Work>
    </rdf:RDF>
  </metadata>
  <g
     id="layer1">
    <path
       d="m 11.788028,26.105986 c 0.07499,-0.02733 0.157519,-0.03362 0.235781,-0.01797 0.07826,0.01565 0.152028,0.0532 0.210735,0.107269 0.03097,0.02853 0.05774,0.06143 0.0893,0.0893 0.07537,0.06655 0.173236,0.100552 0.268312,0.133268 0.09508,0.03272 0.192847,0.06729 0.267508,0.134641 0.03137,0.02829 0.05771,0.0616 0.08538,0.09351 0.02767,0.03191 0.05725,0.06294 0.09322,0.0851 0.06522,0.04017 0.144879,0.0475 0.221371,0.05145 0.07649,0.0039 0.155466,0.0061 0.225145,0.03785 0.04905,0.02239 0.09047,0.0582 0.132006,0.09258 0.04153,0.03438 0.08496,0.06838 0.135904,0.08602 0.07097,0.02458 0.148705,0.01496 0.222973,0.0038 0.07427,-0.01117 0.151069,-0.02349 0.223543,-0.0038 0.05216,0.01418 0.09862,0.04418 0.141244,0.07742 0.04262,0.03325 0.08239,0.07018 0.126666,0.101182 0.06654,0.04658 0.144412,0.0795 0.225544,0.08326 0.04057,0.0019 0.0816,-0.0036 0.119775,-0.01745 0.03817,-0.01386 0.07342,-0.03619 0.101197,-0.06581 0.01451,-0.01547 0.0269,-0.03279 0.04075,-0.04885 0.01385,-0.01606 0.0295,-0.03112 0.04855,-0.04045 0.02768,-0.01356 0.06162,-0.01356 0.0893,0 0.06768,-0.0069 0.132444,-0.03932 0.178606,-0.0893 0.01438,-0.01557 0.02696,-0.0327 0.04092,-0.04864 0.01396,-0.01594 0.02958,-0.03088 0.04838,-0.04066 0.02242,-0.01167 0.04817,-0.0154 0.07344,-0.01609 0.02527,-6.91e-4 0.05055,0.0015 0.07582,7.21e-4 0.02527,-7.45e-4 0.05101,-0.0046 0.07336,-0.0164 0.01117,-0.0059 0.02137,-0.01379 0.02937,-0.02358 0.008,-0.0098 0.01375,-0.02151 0.01592,-0.03396 0.0026,-0.01477 1.08e-4,-0.02989 -0.0018,-0.04476 -0.0019,-0.01488 -0.0031,-0.03036 0.0018,-0.04454 0.0056,-0.01637 0.019,-0.02924 0.03426,-0.03742 0.01526,-0.0082 0.03239,-0.01218 0.04943,-0.01525 0.01704,-0.0031 0.0343,-0.0053 0.05086,-0.0104 0.01656,-0.0051 0.03263,-0.01323 0.04406,-0.02623 0.01074,-0.01221 0.01685,-0.02839 0.01685,-0.04465 0,-0.01626 -0.0061,-0.03244 -0.01685,-0.04465 0.02172,-0.03657 0.05273,-0.06758 0.0893,-0.0893 0.02873,-0.01706 0.06044,-0.0283 0.09142,-0.04081 0.03098,-0.01251 0.06188,-0.02668 0.08718,-0.04849 0.03259,-0.0281 0.05365,-0.06684 0.07874,-0.101804 0.01254,-0.01748 0.02632,-0.03426 0.04283,-0.04805 0.01651,-0.01379 0.03594,-0.02455 0.05704,-0.02875 0.02926,-0.0058 0.05948,0.0012 0.0893,0 0.02745,-0.0011 0.05442,-0.0092 0.0787,-0.02203 0.02429,-0.01283 0.04596,-0.03032 0.06485,-0.05026 0.03779,-0.03988 0.06424,-0.08896 0.08899,-0.138015 0.02475,-0.04905 0.04851,-0.09913 0.0821,-0.142603 0.03359,-0.04348 0.07851,-0.08051 0.131865,-0.09361 0.05804,-0.01425 0.118854,9.13e-4 0.178607,0 0.05645,-8.63e-4 0.112312,-0.01636 0.162413,-0.04238 0.0501,-0.02602 0.09452,-0.0624 0.13194,-0.104667 0.07485,-0.08454 0.120942,-0.190966 0.152163,-0.299473 0.0094,-0.03257 0.01756,-0.06562 0.03074,-0.09684 0.01319,-0.03122 0.03183,-0.06093 0.05856,-0.08176 0.02642,-0.0206 0.05898,-0.03132 0.09057,-0.04247 0.03159,-0.01116 0.06383,-0.02368 0.08804,-0.04683 0.01726,-0.01651 0.02955,-0.0377 0.03801,-0.06004 0.0085,-0.02234 0.01323,-0.04589 0.01704,-0.06947 0.0076,-0.04716 0.01184,-0.09621 0.03425,-0.138396 0.01987,-0.03739 0.05243,-0.06624 0.08539,-0.09282 0.03295,-0.02658 0.06743,-0.05221 0.09322,-0.08579 0.04064,-0.05291 0.05614,-0.120715 0.0893,-0.178606 0.03744,-0.06537 0.09578,-0.115584 0.14897,-0.168932 0.0266,-0.02667 0.05223,-0.05454 0.07344,-0.08566 0.02121,-0.03112 0.03798,-0.06571 0.0455,-0.102621 0.0076,-0.03735 0.0056,-0.07608 -2.8e-4,-0.113748 -0.0059,-0.03767 -0.01552,-0.07462 -0.0232,-0.11196 -0.0077,-0.03734 -0.01342,-0.07541 -0.01129,-0.113471 0.0021,-0.03806 0.01256,-0.07636 0.03477,-0.107338 0.02011,-0.02805 0.04824,-0.0499 0.06638,-0.07926 0.0091,-0.01468 0.01563,-0.03092 0.01911,-0.04782 0.0035,-0.0169 0.0038,-0.03427 0.0038,-0.05153 l 0,-0.178607 c 0,-0.01516 -0.0016,-0.03027 -0.0041,-0.04523 -0.0013,-0.0075 -0.0025,-0.01502 -0.0023,-0.0226 1.9e-4,-0.0076 0.0019,-0.01534 0.0064,-0.02148 0.0039,-0.0053 0.0097,-0.0092 0.01605,-0.01099 0.0064,-0.0018 0.01321,-0.0016 0.01957,1.9e-4 0.01271,0.0036 0.02298,0.01341 0.0297,0.02479 0.0067,0.01138 0.01029,0.02431 0.01333,0.03717 0.003,0.01286 0.0056,0.02591 0.01064,0.03814 0.0093,0.02258 0.02661,0.04143 0.04745,0.05412 0.02085,0.01268 0.04504,0.01938 0.06938,0.02108 0.04868,0.0034 0.09662,-0.01262 0.14138,-0.03205 0.04476,-0.01944 0.08827,-0.04265 0.135475,-0.05502 0.0236,-0.0062 0.04808,-0.0096 0.07244,-0.0082 0.02436,0.0014 0.04863,0.0077 0.06969,0.02007 0.0365,0.02137 0.0604,0.05842 0.0893,0.0893 0.04379,0.04679 0.100766,0.08043 0.16183,0.09986 0.06106,0.01943 0.126119,0.02495 0.190005,0.01996 0.127773,-0.01 0.248745,-0.06095 0.362591,-0.119818 0.05915,-0.03058 0.117212,-0.06353 0.178607,-0.0893 0.153372,-0.06438 0.32318,-0.08188 0.489319,-0.07378 0.166139,0.0081 0.329968,0.04087 0.493016,0.07378 0.118614,0.02394 0.237745,0.04807 0.358601,0.0541 0.120856,0.006 0.244474,-0.0067 0.355825,-0.0541 0.04384,-0.01865 0.08535,-0.04245 0.129217,-0.06104 0.04387,-0.01859 0.0912,-0.03201 0.138693,-0.02826 0.03052,0.0024 0.06007,0.01181 0.09041,0.01588 0.01517,0.002 0.03062,0.0027 0.04577,5.12e-4 0.01515,-0.0022 0.03002,-0.0074 0.04243,-0.01639 0.01732,-0.01253 0.0287,-0.03139 0.04116,-0.04877 0.0062,-0.0087 0.01287,-0.01715 0.02076,-0.02436 0.0079,-0.0072 0.01712,-0.01316 0.02737,-0.01617 0.01438,-0.0042 0.02976,-0.0025 0.04462,-5.16e-4 0.01486,0.002 0.03012,0.0041 0.04468,5.16e-4 0.01043,-0.0025 0.02002,-0.0079 0.02835,-0.01471 0.0083,-0.0068 0.01544,-0.01493 0.02193,-0.02347 0.01298,-0.01709 0.02375,-0.03604 0.03903,-0.05112 0.02387,-0.02357 0.05653,-0.0356 0.0883,-0.04635 0.03178,-0.01074 0.06465,-0.02134 0.0903,-0.04295 0.01692,-0.01425 0.02985,-0.03265 0.04106,-0.05172 0.01121,-0.01907 0.02089,-0.03902 0.03248,-0.05786 0.0116,-0.01884 0.02533,-0.03675 0.04309,-0.04994 0.01776,-0.01319 0.03997,-0.02133 0.06198,-0.01909 0.01563,0.0016 0.03031,0.0082 0.04577,0.0111 0.0077,0.0014 0.01573,0.0019 0.02342,3.23e-4 0.0077,-0.0016 0.01509,-0.0054 0.02011,-0.01143 0.0049,-0.0059 0.0073,-0.01359 0.0078,-0.02124 5.05e-4,-0.0077 -7.48e-4,-0.01531 -0.0024,-0.02279 -0.0017,-0.0075 -0.0038,-0.01486 -0.0052,-0.02241 -0.0013,-0.0076 -0.0018,-0.01536 -1.75e-4,-0.02286 0.0019,-0.0088 0.0067,-0.01677 0.01304,-0.02311 0.0063,-0.0063 0.0142,-0.01105 0.02254,-0.01434 0.01669,-0.0066 0.03499,-0.0075 0.05291,-0.0082 0.01792,-7.11e-4 0.0362,-0.0014 0.05305,-0.0075 0.0084,-0.0031 0.01642,-0.0075 0.023,-0.01362 0.0066,-0.0061 0.01171,-0.01387 0.01407,-0.02252 0.002,-0.0073 0.002,-0.01508 0.001,-0.02261 -9.27e-4,-0.0075 -0.0027,-0.01493 -0.0043,-0.02237 -0.0015,-0.0074 -0.0028,-0.01499 -0.0026,-0.02258 1.71e-4,-0.0076 0.0019,-0.01528 0.0059,-0.02174 0.0043,-0.007 0.01121,-0.01218 0.01887,-0.01512 0.0077,-0.0029 0.01606,-0.0037 0.02422,-0.0029 0.01632,0.0016 0.03137,0.0092 0.04592,0.01683 0.01455,0.0076 0.02945,0.01538 0.04572,0.01745 0.0081,10e-4 0.01654,5.67e-4 0.02431,-0.0021 0.0078,-0.0026 0.01488,-0.0075 0.01957,-0.01423 0.0044,-0.0062 0.0065,-0.01385 0.007,-0.02144 5.52e-4,-0.0076 -4.05e-4,-0.01522 -0.0018,-0.02271 -0.0028,-0.01497 -0.0074,-0.03007 -0.0052,-0.04515 0.0012,-0.0087 0.0047,-0.01709 0.0097,-0.02437 0.005,-0.0073 0.01143,-0.0135 0.01865,-0.01857 0.01443,-0.01014 0.03165,-0.01561 0.04893,-0.01912 0.01728,-0.0035 0.03489,-0.0052 0.0522,-0.0086 0.0173,-0.0034 0.03456,-0.0087 0.04915,-0.01861 0.01399,-0.0095 0.025,-0.02294 0.03335,-0.03765 0.0083,-0.01471 0.01417,-0.03071 0.0192,-0.04686 0.01007,-0.03229 0.0175,-0.06628 0.03675,-0.0941 0.0123,-0.01778 0.02891,-0.03219 0.04655,-0.04468 0.01764,-0.0125 0.03644,-0.02326 0.05453,-0.0351 0.01809,-0.01184 0.03563,-0.0249 0.04981,-0.04121 0.01419,-0.01631 0.02494,-0.03617 0.02771,-0.05761 0.0019,-0.01483 -8e-6,-0.02984 -0.0014,-0.04472 -0.0014,-0.01488 -0.0024,-0.03013 0.0014,-0.04458 0.0055,-0.0208 0.02032,-0.03796 0.03695,-0.0516 0.01663,-0.01364 0.03538,-0.02448 0.05235,-0.0377 0.04012,-0.03124 0.06917,-0.07492 0.08987,-0.12137 0.0207,-0.04645 0.03359,-0.09592 0.04619,-0.14519 0.0126,-0.04927 0.02506,-0.09882 0.04499,-0.145602 0.01992,-0.04678 0.04781,-0.0911 0.08687,-0.123657 0.01642,-0.01368 0.03461,-0.02514 0.051,-0.03885 0.01639,-0.01372 0.03128,-0.03026 0.0383,-0.05044 0.005,-0.0143 0.0058,-0.02978 0.0045,-0.04487 -0.0013,-0.01509 -0.0046,-0.02992 -0.0076,-0.04476 -0.003,-0.01484 -0.0058,-0.02982 -0.006,-0.04496 -2.19e-4,-0.01514 0.0022,-0.03057 0.0092,-0.04402 0.0078,-0.01516 0.021,-0.02709 0.03577,-0.03562 0.01477,-0.0085 0.03115,-0.01389 0.04763,-0.01829 0.01648,-0.0044 0.03321,-0.0079 0.04948,-0.01302 0.01627,-0.0051 0.03221,-0.01196 0.04573,-0.02237 0.01561,-0.01203 0.02751,-0.02855 0.03514,-0.04672 0.0076,-0.01817 0.0111,-0.03794 0.01138,-0.05764 5.75e-4,-0.0394 -0.01128,-0.07789 -0.02482,-0.114891 -0.01354,-0.03701 -0.02899,-0.07364 -0.03612,-0.112397 -0.0071,-0.03876 -0.0052,-0.08071 0.01442,-0.114876 0.01053,-0.01834 0.02565,-0.03361 0.04153,-0.04758 0.01588,-0.01397 0.03272,-0.02687 0.04777,-0.04172 0.0472,-0.04658 0.07497,-0.112367 0.07508,-0.178685 1.12e-4,-0.06632 -0.02752,-0.132313 -0.07508,-0.178528 -0.01518,-0.01475 -0.03219,-0.02748 -0.04813,-0.0414 -0.01595,-0.01392 -0.03105,-0.02931 -0.04117,-0.0479 -0.0147,-0.02702 -0.01785,-0.05909 -0.0147,-0.08968 0.0031,-0.0306 0.01219,-0.06023 0.0207,-0.08979 0.0085,-0.02956 0.01656,-0.05959 0.01763,-0.09033 0.0011,-0.03074 -0.0054,-0.06263 -0.02363,-0.08742 -0.01254,-0.01707 -0.02986,-0.02987 -0.04644,-0.04306 -0.01657,-0.01318 -0.03304,-0.02748 -0.04286,-0.04624 -0.007,-0.01338 -0.01028,-0.02849 -0.0111,-0.04356 -8.2e-4,-0.01508 7.42e-4,-0.03019 0.003,-0.04512 0.0045,-0.02987 0.01169,-0.05993 0.0081,-0.08992 -0.0032,-0.02712 -0.01524,-0.05262 -0.03092,-0.07497 -0.01568,-0.02236 -0.03501,-0.04189 -0.05449,-0.06103 -0.01948,-0.01914 -0.03929,-0.03809 -0.05617,-0.05956 -0.01688,-0.02147 -0.03086,-0.04574 -0.03703,-0.07235 -0.0068,-0.02913 -0.0039,-0.05953 -7.48e-4,-0.08926 0.0031,-0.02974 0.0065,-0.06 7.48e-4,-0.08934 -0.0062,-0.03136 -0.02306,-0.06056 -0.04738,-0.08129 -0.02433,-0.02073 -0.05597,-0.03277 -0.08793,-0.03312 -0.03196,-3.43e-4 -0.06397,0.01109 -0.08824,0.03188 -0.02427,0.02079 -0.04054,0.05079 -0.04435,0.08253 -0.0036,0.02959 0.0034,0.05968 0,0.0893 -0.0044,0.03895 -0.02717,0.07494 -0.05905,0.09775 -0.03188,0.02281 -0.07222,0.03273 -0.111318,0.02989 -0.0391,-0.0028 -0.07686,-0.01799 -0.108706,-0.04084 -0.03185,-0.02286 -0.05794,-0.05321 -0.07814,-0.0868 -0.0113,-0.01879 -0.02091,-0.03874 -0.0347,-0.05579 -0.0069,-0.0085 -0.01483,-0.01628 -0.02402,-0.02227 -0.0092,-0.006 -0.01967,-0.01014 -0.03058,-0.01124 -0.01512,-0.0015 -0.03012,0.0028 -0.04511,0.0053 -0.0075,0.0013 -0.01511,0.0021 -0.02269,0.0015 -0.0076,-6e-4 -0.01514,-0.0027 -0.0215,-0.0068 -0.0066,-0.0043 -0.01175,-0.01082 -0.01466,-0.01818 -0.0029,-0.0074 -0.0036,-0.01552 -0.0023,-0.02332 0.0013,-0.0078 0.0046,-0.01522 0.0094,-0.02156 0.0047,-0.0063 0.01082,-0.01162 0.01764,-0.01562 0.01365,-0.008 0.02992,-0.01077 0.04572,-0.0099 0.01579,9.01e-4 0.0312,0.0053 0.04601,0.01084 0.02963,0.01109 0.05812,0.02702 0.08959,0.03024 0.01573,0.0016 0.03209,-1.73e-4 0.04629,-0.0071 0.0142,-0.007 0.02604,-0.01946 0.03028,-0.0347 0.004,-0.01451 0.0011,-0.02992 -0.0014,-0.04477 -0.0012,-0.0074 -0.0024,-0.0149 -0.0025,-0.02243 -7.5e-5,-0.0075 9.44e-4,-0.01516 0.0039,-0.0221 0.0032,-0.0075 0.0085,-0.01402 0.01494,-0.01896 0.0065,-0.0049 0.01407,-0.0083 0.02198,-0.01021 0.01582,-0.0038 0.03255,-0.0018 0.04824,0.0026 0.01568,0.0044 0.03063,0.01097 0.04593,0.01653 0.0153,0.0056 0.03124,0.01012 0.04752,0.01007 0.01688,-4.5e-5 0.03348,-0.0051 0.04864,-0.01251 0.01516,-0.0074 0.02902,-0.01724 0.04255,-0.02734 0.02706,-0.02021 0.05439,-0.04245 0.08742,-0.04945 0.0292,-0.0062 0.05945,3e-4 0.0893,0 0.04897,-4.92e-4 0.09648,-0.01955 0.136804,-0.04735 0.04032,-0.0278 0.07409,-0.06404 0.105208,-0.10186 0.03112,-0.03782 0.05995,-0.07753 0.09242,-0.114197 0.03247,-0.03667 0.06899,-0.07054 0.112089,-0.0938 0.02944,-0.01589 0.06136,-0.02653 0.09237,-0.03909 0.03101,-0.01256 0.06174,-0.02743 0.08624,-0.05021 0.01551,-0.01442 0.02811,-0.03162 0.04174,-0.04782 0.01364,-0.0162 0.02875,-0.03176 0.04756,-0.04148 0.02748,-0.01419 0.06182,-0.01419 0.0893,0 0.06544,-0.0152 0.12718,-0.04607 0.178607,-0.0893 0.06452,-0.05424 0.112166,-0.126732 0.178606,-0.178606 0.06927,-0.05408 0.154492,-0.08243 0.235474,-0.116556 0.04049,-0.01706 0.08046,-0.03587 0.117043,-0.06021 0.03659,-0.02434 0.06984,-0.05444 0.094,-0.09114 0.03667,-0.0557 0.05097,-0.12404 0.0893,-0.178607 0.04319,-0.06149 0.111994,-0.09899 0.178364,-0.13423 0.06637,-0.03524 0.135253,-0.07247 0.178849,-0.133679 0.03869,-0.05431 0.05354,-0.122329 0.0893,-0.178607 0.02589,-0.04074 0.06206,-0.07414 0.101432,-0.102064 0.03937,-0.02793 0.08208,-0.05073 0.124517,-0.07373 0.04243,-0.02301 0.08487,-0.04641 0.123467,-0.0754 0.0386,-0.02899 0.07346,-0.06393 0.0971,-0.106016 0.01638,-0.02916 0.02705,-0.06111 0.03948,-0.09216 0.01243,-0.03105 0.02706,-0.06192 0.04982,-0.08644 0.02967,-0.03197 0.0706,-0.05056 0.106685,-0.07507 0.01804,-0.01225 0.03516,-0.02626 0.04843,-0.04357 0.01326,-0.01731 0.02253,-0.03819 0.02349,-0.05997 6.69e-4,-0.01505 -0.0026,-0.02996 -0.0044,-0.04491 -0.0018,-0.01496 -0.002,-0.03072 0.0044,-0.04439 0.0037,-0.008 0.0095,-0.01487 0.01635,-0.02035 0.0069,-0.0055 0.01476,-0.0096 0.02302,-0.01256 0.01651,-0.006 0.03422,-0.0076 0.05168,-0.0094 0.01746,-0.0018 0.03519,-0.004 0.05132,-0.0109 0.0081,-0.0035 0.01568,-0.0081 0.02203,-0.01418 0.0064,-0.0061 0.01145,-0.01353 0.0142,-0.02187 0.0047,-0.01428 0.0024,-0.02981 -2.7e-5,-0.04465 -0.0024,-0.01485 -0.0047,-0.03038 2.7e-5,-0.04465 0.0034,-0.01019 0.01022,-0.01897 0.0182,-0.02617 0.008,-0.0072 0.01713,-0.01295 0.02624,-0.01865 0.0091,-0.0057 0.01828,-0.01141 0.02632,-0.01854 0.008,-0.0071 0.01497,-0.01581 0.01854,-0.02595 0.005,-0.01417 0.003,-0.02974 7.24e-4,-0.04459 -0.0023,-0.01485 -0.0048,-0.03024 -7.24e-4,-0.04471 0.0029,-0.01031 0.009,-0.01951 0.01638,-0.02726 0.0074,-0.0077 0.01608,-0.01413 0.02491,-0.02017 0.01768,-0.01208 0.03684,-0.0236 0.04801,-0.04187 0.0079,-0.01296 0.0111,-0.0284 0.01126,-0.0436 1.52e-4,-0.01519 -0.0026,-0.03026 -0.0058,-0.04512 -0.0032,-0.01486 -0.0068,-0.02965 -0.0085,-0.04475 -0.0017,-0.0151 -0.0015,-0.03064 0.003,-0.04515 0.0064,-0.0205 0.02082,-0.03762 0.03718,-0.05152 0.01635,-0.0139 0.0348,-0.0251 0.05212,-0.03778 0.02348,-0.01719 0.04508,-0.0373 0.06176,-0.06114 0.01669,-0.02384 0.02835,-0.05157 0.03113,-0.08053 0.0028,-0.02897 -0.0037,-0.05916 -0.02029,-0.08308 -0.01658,-0.02392 -0.04359,-0.04093 -0.0726,-0.04315 -0.01496,-0.0011 -0.0299,0.0015 -0.04482,0.0031 -0.01491,0.0016 -0.03042,0.0021 -0.04448,-0.0031 -0.01195,-0.0044 -0.02224,-0.01285 -0.02978,-0.02313 -0.0075,-0.01028 -0.01242,-0.02236 -0.01515,-0.03481 -0.0055,-0.0249 -0.0025,-0.05079 4.32e-4,-0.07611 0.003,-0.02532 0.0059,-0.05122 3.36e-4,-0.07611 -0.0028,-0.01244 -0.0077,-0.02451 -0.01526,-0.03476 -0.0076,-0.01025 -0.0179,-0.01863 -0.02988,-0.02299 -0.01409,-0.0051 -0.02958,-0.0046 -0.04449,-0.0029 -0.01491,0.0016 -0.02987,0.0042 -0.04481,0.0029 -0.02161,-0.0019 -0.04194,-0.01203 -0.05865,-0.02586 -0.01671,-0.01384 -0.0301,-0.03125 -0.04205,-0.04937 -0.02389,-0.03622 -0.04354,-0.07688 -0.07791,-0.103376 -0.02658,-0.02049 -0.05949,-0.0305 -0.09125,-0.04134 -0.03176,-0.01085 -0.06423,-0.02365 -0.08736,-0.04796 -0.02314,-0.02432 -0.03428,-0.05735 -0.04473,-0.08925 -0.01045,-0.0319 -0.02152,-0.06494 -0.04457,-0.08935 -0.02304,-0.0244 -0.05543,-0.03739 -0.08717,-0.04829 -0.03173,-0.01091 -0.06463,-0.02083 -0.09144,-0.04101 -0.03372,-0.02538 -0.0549,-0.06486 -0.0893,-0.0893 -0.01951,-0.01386 -0.04247,-0.02223 -0.0658,-0.02757 -0.02333,-0.0053 -0.04721,-0.0078 -0.07095,-0.01082 -0.02375,-0.003 -0.04756,-0.0067 -0.07026,-0.01423 -0.0227,-0.0076 -0.04442,-0.01932 -0.06089,-0.03668 -0.02312,-0.02436 -0.03411,-0.05746 -0.0445,-0.08939 -0.01039,-0.03193 -0.02152,-0.06502 -0.0448,-0.08921 -0.02327,-0.02418 -0.05593,-0.03659 -0.08775,-0.04728 -0.03181,-0.01069 -0.06481,-0.02086 -0.09086,-0.04202 -0.01705,-0.01385 -0.03031,-0.03182 -0.04183,-0.05052 -0.01152,-0.01871 -0.0215,-0.03833 -0.03318,-0.05694 -0.01168,-0.01861 -0.02526,-0.03637 -0.04265,-0.04979 -0.0174,-0.01342 -0.03899,-0.02225 -0.06094,-0.02135 -0.01538,6.3e-4 -0.03016,0.0059 -0.04536,0.0084 -0.0076,0.0012 -0.01538,0.0017 -0.02299,6.08e-4 -0.0076,-0.0011 -0.01508,-0.004 -0.02096,-0.009 -0.0061,-0.0051 -0.01022,-0.01234 -0.01234,-0.02 -0.0021,-0.0077 -0.0023,-0.01578 -0.0013,-0.02367 0.002,-0.01578 0.0086,-0.03053 0.01365,-0.04563 0.01961,-0.05914 0.01389,-0.125521 -0.01204,-0.182175 -0.02593,-0.05665 -0.07125,-0.103564 -0.125069,-0.134952 -0.05382,-0.03139 -0.115821,-0.04763 -0.178048,-0.05075 -0.06223,-0.0031 -0.124711,0.0066 -0.184377,0.02454 -0.119334,0.03588 -0.226193,0.103537 -0.331155,0.170701 -0.104961,0.06716 -0.211342,0.135394 -0.330256,0.17264 -0.02916,0.0091 -0.05916,0.01638 -0.0897,0.01767 -0.03053,0.0013 -0.06177,-0.0036 -0.08891,-0.01767 -0.02954,-0.01531 -0.05317,-0.04115 -0.06739,-0.07123 -0.01422,-0.03008 -0.0192,-0.06419 -0.01597,-0.09731 0.0065,-0.06623 0.045,-0.126159 0.09445,-0.170674 0.04946,-0.04452 0.10943,-0.07547 0.169584,-0.103921 0.06015,-0.02845 0.121622,-0.05511 0.176535,-0.09269 0.110115,-0.07536 0.188292,-0.192123 0.230366,-0.318751 0.04207,-0.126627 0.0498,-0.262804 0.03754,-0.395675 -0.0083,-0.08953 -0.02517,-0.181592 0,-0.26791 0.01868,-0.06404 0.05903,-0.11916 0.0893,-0.178606 0.03532,-0.06936 0.05718,-0.146115 0.0588,-0.223927 0.0016,-0.07781 -0.01751,-0.156615 -0.0588,-0.222589 -0.01796,-0.0287 -0.03988,-0.05477 -0.05777,-0.08351 -0.01789,-0.02874 -0.03191,-0.06124 -0.03153,-0.0951 1.72e-4,-0.01505 0.0032,-0.0299 0.0046,-0.04488 0.0015,-0.01498 0.0013,-0.03058 -0.0046,-0.04442 -0.0042,-0.0098 -0.01107,-0.01829 -0.01892,-0.02553 -0.0078,-0.0072 -0.01667,-0.01331 -0.02547,-0.01934 -0.0088,-0.006 -0.01766,-0.01206 -0.02558,-0.0192 -0.0079,-0.0071 -0.01494,-0.01551 -0.01933,-0.02523 -0.0062,-0.01374 -0.0068,-0.02938 -0.0055,-0.0444 0.0013,-0.01502 0.0045,-0.02985 0.0055,-0.0449 0.0032,-0.04741 -0.01522,-0.09348 -0.03596,-0.136232 -0.02074,-0.04275 -0.04448,-0.08499 -0.05335,-0.131677 -0.01125,-0.05929 0.0025,-0.120027 0.01212,-0.179594 0.0048,-0.02978 0.0086,-0.05988 0.0078,-0.09004 -8.55e-4,-0.03016 -0.0065,-0.06053 -0.01992,-0.08758 -0.01879,-0.03799 -0.05141,-0.06713 -0.08454,-0.09355 -0.03313,-0.02643 -0.06803,-0.0516 -0.09406,-0.08505 -0.04097,-0.05266 -0.05614,-0.120707 -0.0893,-0.1786063 -0.04214,-0.073563 -0.111061,-0.1272485 -0.178314,-0.1788631 -0.06725,-0.051614 -0.13631,-0.1050479 -0.178899,-0.1783499 -0.03351,-0.057674 -0.04913,-0.1253576 -0.0893,-0.1786064 -0.03256,-0.043155 -0.07898,-0.073671 -0.126445,-0.099539 -0.04747,-0.025868 -0.09715,-0.048109 -0.141465,-0.079067 -0.10377,-0.07249 -0.170561,-0.1870946 -0.267867,-0.2680537 -0.102807,-0.085536 -0.233175,-0.1286044 -0.357213,-0.1786065 -0.02081,-0.00839 -0.04188,-0.017231 -0.05913,-0.031589 -0.0086,-0.00718 -0.0162,-0.015718 -0.02163,-0.025537 -0.0054,-0.00982 -0.0087,-0.020957 -0.0085,-0.032177 1.62e-4,-0.015625 0.0066,-0.030413 0.0098,-0.045719 0.0016,-0.00765 0.0023,-0.015581 9.79e-4,-0.023281 -0.0013,-0.0077 -0.0049,-0.015187 -0.01076,-0.020303 -0.0047,-0.00405 -0.01067,-0.00646 -0.01682,-0.0071 -0.0061,-6.396e-4 -0.01242,4.52e-4 -0.01813,0.00282 -0.01141,0.00474 -0.02024,0.014362 -0.02638,0.025089 -0.01227,0.021454 -0.01492,0.047496 -0.02798,0.068487 -0.0106,0.017052 -0.02774,0.029699 -0.04683,0.035905 -0.0191,0.00621 -0.04001,0.00613 -0.0594,8.947e-4 -0.01939,-0.00523 -0.03726,-0.015482 -0.05237,-0.028703 -0.01511,-0.013221 -0.02753,-0.02936 -0.03749,-0.046791 -0.01994,-0.034861 -0.03003,-0.074371 -0.03887,-0.1135451 -0.0088,-0.039174 -0.01676,-0.078916 -0.03295,-0.1156705 -0.02389,-0.054259 -0.06517,-0.099851 -0.113688,-0.1339119 -0.04852,-0.03406 -0.104137,-0.057056 -0.161229,-0.073026 -0.114186,-0.03194 -0.234212,-0.036426 -0.350212,-0.060972 -0.238098,-0.050381 -0.453075,-0.1850842 -0.625123,-0.357213 -0.02976,-0.029777 -0.05839,-0.060715 -0.0893,-0.089303 -0.01358,-0.012558 -0.02765,-0.024706 -0.04334,-0.034503 -0.01568,-0.0098 -0.0331,-0.017218 -0.05144,-0.019626 -0.01834,-0.00241 -0.03765,4.533e-4 -0.05354,0.00991 -0.0079,0.00473 -0.01496,0.011063 -0.02026,0.01864 -0.0053,0.00758 -0.0089,0.016404 -0.01002,0.025576 -0.0019,0.015095 0.0026,0.030157 0.0053,0.045133 0.0013,0.00749 0.0023,0.015113 0.0017,0.022701 -5.65e-4,0.00759 -0.0027,0.015176 -0.0069,0.021469 -0.0046,0.00678 -0.0116,0.011795 -0.01931,0.014606 -0.0077,0.00281 -0.0161,0.0035 -0.02426,0.00264 -0.01632,-0.00171 -0.03136,-0.00933 -0.04574,-0.017247 -0.07759,-0.042714 -0.150893,-0.098783 -0.237977,-0.1149377 -0.04354,-0.00808 -0.09005,-0.00525 -0.12982,0.01423 -0.01989,0.00974 -0.03786,0.02356 -0.05172,0.040828 -0.01386,0.017268 -0.02353,0.038011 -0.027,0.05988 -0.0047,0.029446 0.0018,0.059545 0,0.089303 -0.0019,0.03041 -0.0127,0.060248 -0.03096,0.084638 -0.01826,0.02439 -0.04391,0.043215 -0.07273,0.053098 -0.02882,0.00988 -0.0607,0.010744 -0.08995,0.0022 -0.02925,-0.00854 -0.0557,-0.026481 -0.07428,-0.050635 -0.01868,-0.024289 -0.02914,-0.054224 -0.03315,-0.0846 -0.004,-0.030375 -0.0018,-0.061282 0.0029,-0.09155 0.0095,-0.060536 0.02919,-0.1197953 0.03022,-0.1810635 0.0011,-0.067877 -0.02097,-0.1345577 -0.05341,-0.1941906 -0.03244,-0.059633 -0.07501,-0.1130648 -0.117851,-0.1657251 -0.04284,-0.05266 -0.08638,-0.1051585 -0.121135,-0.1634766 -0.03475,-0.058318 -0.06064,-0.1232753 -0.06481,-0.1910337 -0.0018,-0.029718 5.21e-4,-0.059533 0,-0.089303 -0.0027,-0.1376578 -0.0702,-0.272744 -0.178861,-0.3572451 C 19.550987,6.4588395 19.45565,6.4270615 19.378803,6.3699701 19.310885,6.3195119 19.258678,6.2513347 19.205349,6.1856467 19.152019,6.1199587 19.095136,6.0545892 19.02159,6.0127571 18.939552,5.9660946 18.843509,5.9524097 18.75368,5.9234539 18.521656,5.8486627 18.337687,5.675029 18.150154,5.5192729 18.056387,5.4413949 17.959241,5.3664904 17.851713,5.3090892 17.744185,5.2516881 17.625286,5.2121148 17.503435,5.209028 c -0.07488,-0.0019 -0.149326,0.00991 -0.223956,0.016271 -0.07463,0.00636 -0.151381,0.00704 -0.22256,-0.016271 C 16.993569,5.188278 16.937888,5.149627 16.878312,5.119725 16.689338,5.024878 16.467599,5.021073 16.257467,5.044557 16.047334,5.068041 15.839486,5.116735 15.628067,5.119725 15.448108,5.122275 15.26955,5.091626 15.090278,5.075713 14.911005,5.0598 14.725968,5.059327 14.556428,5.119725 c -0.125523,0.044717 -0.237126,0.1208592 -0.357213,0.1786065 -0.120257,0.057829 -0.250748,0.098163 -0.357213,0.1786065 -0.134672,0.1017564 -0.219606,0.2594613 -0.357213,0.357213 -0.09977,0.070872 -0.220501,0.1053903 -0.327395,0.1649707 -0.05345,0.02979 -0.103949,0.066396 -0.142594,0.1138366 -0.03865,0.047441 -0.06485,0.106528 -0.06583,0.1677089 -7.3e-4,0.045636 0.0123,0.090227 0.01894,0.1353835 0.0033,0.022578 0.005,0.045535 0.0026,0.068229 -0.0024,0.022694 -0.0091,0.045198 -0.02158,0.064297 -0.01188,0.018173 -0.02861,0.03271 -0.04646,0.045077 -0.01785,0.012366 -0.03697,0.022771 -0.05535,0.034324 -0.01839,0.011553 -0.03622,0.024423 -0.05044,0.040836 -0.01422,0.016413 -0.02468,0.03672 -0.02635,0.05837 -0.0012,0.014994 0.0019,0.029945 0.0037,0.044875 0.0018,0.01493 0.0023,0.030615 -0.0037,0.044428 -0.0042,0.00987 -0.01155,0.018173 -0.01979,0.025067 -0.0082,0.00689 -0.01746,0.012504 -0.02654,0.018243 -0.0091,0.00574 -0.01813,0.011679 -0.02588,0.019117 -0.0078,0.00744 -0.01422,0.016522 -0.01708,0.026876 -0.004,0.014548 -7.01e-4,0.029975 0.002,0.044831 0.0013,0.00743 0.0025,0.014925 0.0025,0.022473 -2e-6,0.00755 -0.0012,0.015197 -0.0045,0.021999 -0.0028,0.00585 -0.0071,0.010962 -0.0123,0.014872 -0.0052,0.00391 -0.01125,0.00662 -0.01758,0.00804 -0.01267,0.00284 -0.02624,4.274e-4 -0.03777,-0.00555 -0.01153,-0.00598 -0.0211,-0.01535 -0.0284,-0.026094 -0.0073,-0.010744 -0.01241,-0.022844 -0.01629,-0.035238 -0.0078,-0.024789 -0.01073,-0.050917 -0.01904,-0.075527 -0.0042,-0.012305 -0.0097,-0.024247 -0.01745,-0.034657 -0.0078,-0.01041 -0.01787,-0.019259 -0.02977,-0.024455 -0.01382,-0.00603 -0.02938,-0.00691 -0.04443,-0.00576 -0.01504,0.00115 -0.02987,0.00423 -0.04487,0.00576 -0.04559,0.00464 -0.09214,-0.0053 -0.13329,-0.025467 -0.04115,-0.020163 -0.07702,-0.050268 -0.106485,-0.085367 -0.05892,-0.070198 -0.09167,-0.1584274 -0.117438,-0.2463789 -0.0158,-0.053909 -0.02962,-0.1090353 -0.05628,-0.1584829 -0.01333,-0.024724 -0.02987,-0.047888 -0.05035,-0.067106 -0.02048,-0.019218 -0.04502,-0.034417 -0.07197,-0.042321 -0.02872,-0.00842 -0.05923,-0.0084 -0.08908,-0.00623 -0.02985,0.00217 -0.0596,0.00643 -0.08953,0.00623 -0.06799,-4.47e-4 -0.134252,-0.024005 -0.19333,-0.05766 -0.05908,-0.033654 -0.111821,-0.077216 -0.163883,-0.1209468 -0.11414,-0.095877 -0.227554,-0.1943626 -0.357212,-0.2679097 -0.162683,-0.09228 -0.349065,-0.1428711 -0.536097,-0.1435315 -0.187031,-6.604e-4 -0.374257,0.04883 -0.5355424,0.1435315 -0.057881,0.033986 -0.1123293,0.073573 -0.1702718,0.1074545 -0.057943,0.033882 -0.1204053,0.062304 -0.1869411,0.071152 -0.029594,0.00394 -0.059709,0.00394 -0.089303,0 C 9.3742096,5.9443486 9.284331,5.974308 9.198241,6.0127565 9.0942275,6.0592098 8.9961484,6.1178149 8.8944771,6.1691925 8.7928058,6.2205701 8.6859659,6.2651593 8.573111,6.2806669 c -0.059165,0.00813 -0.1194415,0.00813 -0.1786064,0 -0.019533,0.028769 -0.046545,0.052412 -0.077647,0.067963 -0.031102,0.015551 -0.066224,0.022975 -0.1009591,0.02134 -0.030358,-0.00143 -0.059977,-0.0096 -0.090143,-0.013298 -0.015083,-0.00185 -0.03038,-0.00258 -0.045469,-7.814e-4 -0.015089,0.0018 -0.030002,0.0062 -0.042995,0.01408 -0.018103,0.01098 -0.031557,0.028027 -0.044615,0.044692 -0.013059,0.016665 -0.026547,0.033693 -0.044687,0.044611 -0.019651,0.011827 -0.043365,0.015484 -0.06627,0.014298 -0.022905,-0.00119 -0.045303,-0.00692 -0.067483,-0.01276 -0.022181,-0.00584 -0.044485,-0.011829 -0.067356,-0.013544 -0.022871,-0.00172 -0.046624,0.0011 -0.066801,0.012007 -0.018618,0.010064 -0.033047,0.026296 -0.046382,0.042731 -0.013335,0.016434 -0.026191,0.03361 -0.042921,0.046572 -0.030766,0.023837 -0.071897,0.030937 -0.1106719,0.027573 -0.038775,-0.00336 -0.076005,-0.016229 -0.1128111,-0.028883 -0.036806,-0.012654 -0.074141,-0.025303 -0.1129526,-0.028206 -0.019406,-0.00145 -0.039087,-4.159e-4 -0.057982,0.00424 -0.018896,0.00465 -0.037003,0.012998 -0.052098,0.025279 -0.01645,0.013383 -0.028858,0.030945 -0.042092,0.047515 -0.013234,0.01657 -0.028024,0.032754 -0.047211,0.041787 -0.013647,0.00643 -0.028905,0.00889 -0.043989,0.00897 -0.015084,8.2e-5 -0.030082,-0.00214 -0.044945,-0.00471 -0.029726,-0.00514 -0.060433,-0.011688 -0.089673,-0.00426 -0.020792,0.00528 -0.039375,0.017418 -0.054849,0.032276 -0.015474,0.014858 -0.028082,0.032415 -0.039975,0.050269 -0.011894,0.017853 -0.023196,0.03615 -0.036482,0.052993 -0.013286,0.016843 -0.028731,0.032326 -0.0473,0.043069 -0.029821,0.017252 -0.065223,0.021078 -0.098429,0.030259 -0.016603,0.00459 -0.03298,0.01067 -0.047324,0.020208 -0.014344,0.00954 -0.026614,0.02278 -0.032854,0.038836 -0.00545,0.014019 -0.00609,0.029466 -0.00499,0.044466 0.0011,0.015 0.00387,0.029839 0.00499,0.044837 0.00494,0.065907 -0.022624,0.1313218 -0.064584,0.1823858 -0.041959,0.051064 -0.097388,0.08933 -0.1546629,0.1223104 -0.057275,0.03298 -0.1171822,0.061399 -0.1730327,0.096738 C 6.0710073,7.4318687 6.018579,7.4750147 5.983318,7.5309147 5.947759,7.5872867 5.931135,7.6541651 5.894015,7.7095212 5.847011,7.7796162 5.7715263,7.8250922 5.7154086,7.8881277 5.6573846,7.9533047 5.6219636,8.034937 5.5858449,8.1143736 c -0.036119,0.079437 -0.075205,0.1600377 -0.1383461,0.2202703 -0.030568,0.02916 -0.066764,0.053572 -0.089303,0.089303 -0.024493,0.038828 -0.029967,0.087034 -0.025983,0.1327684 0.00398,0.045734 0.016671,0.090188 0.025983,0.1351413 0.036393,0.1756833 0.021047,0.3576451 0,0.5358195 -0.00351,0.029732 -0.00714,0.060228 0,0.089303 0.00512,0.020866 0.015672,0.040159 0.028993,0.057017 0.013321,0.016858 0.029378,0.031387 0.046327,0.044592 0.033898,0.02641 0.071684,0.04788 0.1032864,0.076997 0.050042,0.046107 0.082443,0.1109088 0.089303,0.1786065 l 0.1786065,0.089303 c 0.027592,-0.013838 0.061711,-0.013838 0.089303,0 0.018945,0.0095 0.034357,0.024779 0.04811,0.040904 0.013753,0.016125 0.026233,0.033386 0.041193,0.048398 0.023727,0.02381 0.053119,0.041341 0.083819,0.05503 0.0307,0.013689 0.06287,0.02373 0.094788,0.034273 0.1023378,0.033804 0.2061168,0.075128 0.2821681,0.1514954 0.038026,0.03818 0.068235,0.08489 0.083011,0.136716 0.014776,0.05182 0.01345,0.108855 -0.00797,0.158305 -0.00658,0.01519 -0.01507,0.02991 -0.017572,0.04627 -0.00125,0.0082 -9.193e-4,0.01672 0.00191,0.0245 0.00283,0.0078 0.0083,0.01475 0.015663,0.01852 0.00686,0.0035 0.014908,0.0041 0.022559,0.0032 0.00765,-9.39e-4 0.015038,-0.0033 0.022434,-0.0055 0.0074,-0.0022 0.01494,-0.0042 0.022647,-0.0043 0.00771,-1.34e-4 0.015685,0.0018 0.021663,0.0066 0.00606,0.0049 0.00955,0.01254 0.010654,0.02028 0.0011,0.0077 2.4e-6,0.01564 -0.00184,0.02324 -0.00185,0.0076 -0.00443,0.015 -0.00637,0.02257 -0.00194,0.0076 -0.00324,0.01543 -0.00244,0.0232 0.00111,0.01078 0.00626,0.02086 0.013201,0.02918 0.00694,0.0083 0.015638,0.015 0.024666,0.02098 0.018056,0.01198 0.038277,0.02193 0.051436,0.03914 0.00757,0.0099 0.012375,0.02182 0.01446,0.03411 0.00208,0.0123 0.0015,0.02497 -0.00103,0.03719 -0.00507,0.02442 -0.017729,0.04662 -0.032088,0.06702 -0.014358,0.0204 -0.030591,0.03947 -0.044117,0.06043 -0.013527,0.02096 -0.024428,0.04431 -0.026524,0.06917 -0.00126,0.01489 6.794e-4,0.02984 0.00196,0.04473 0.00128,0.01489 0.00188,0.03012 -0.00196,0.04457 -0.00425,0.01601 -0.013914,0.03037 -0.026498,0.04114 -0.012584,0.01077 -0.027995,0.01801 -0.044105,0.02185 -0.032221,0.0077 -0.066286,0.0019 -0.097676,-0.0087 -0.031389,-0.01058 -0.061008,-0.02579 -0.091943,-0.03763 -0.030935,-0.01184 -0.064076,-0.02036 -0.096991,-0.01665 -0.038336,0.0043 -0.073292,0.02504 -0.1015729,0.05128 -0.028281,0.02624 -0.05079,0.05796 -0.073599,0.08907 -0.022808,0.03111 -0.046432,0.06219 -0.076355,0.08654 -0.029922,0.02435 -0.067113,0.04169 -0.1056864,0.04102 -0.015042,-2.62e-4 -0.029895,-0.0032 -0.044873,-0.0046 -0.014978,-0.0014 -0.030555,-0.0012 -0.04443,0.0046 -0.00983,0.0041 -0.018382,0.01088 -0.025713,0.01862 -0.00733,0.0077 -0.013527,0.01647 -0.019622,0.02521 -0.00609,0.0087 -0.012135,0.01757 -0.019201,0.02555 -0.00707,0.008 -0.015235,0.01515 -0.024767,0.01992 -0.013575,0.0068 -0.029249,0.0084 -0.044397,0.0074 -0.015148,-10e-4 -0.030004,-0.0045 -0.044906,-0.0074 -0.1179879,-0.02293 -0.242738,-0.0087 -0.3530545,0.03897 -0.1103166,0.04772 -0.2058343,0.128637 -0.2720682,0.228937 -0.036317,0.055 -0.064069,0.11564 -0.1044785,0.167703 -0.020205,0.02603 -0.043636,0.04986 -0.071171,0.06796 -0.027535,0.0181 -0.059363,0.03032 -0.09226,0.03224 -0.030106,0.0018 -0.059957,-0.005 -0.089872,-0.0088 -0.029915,-0.0038 -0.061622,-0.0044 -0.088734,0.0088 -0.014466,0.007 -0.026998,0.0178 -0.036859,0.03052 -0.00986,0.01272 -0.017097,0.02736 -0.022051,0.04267 -0.00991,0.03062 -0.010701,0.06342 -0.0092,0.09557 0.0015,0.03215 0.00521,0.06427 0.00396,0.09642 -0.00125,0.03216 -0.0078,0.06492 -0.02515,0.09203 -0.022757,0.03556 -0.06135,0.05766 -0.089303,0.0893 -0.025566,0.02894 -0.041625,0.06536 -0.050688,0.102893 -0.00906,0.03754 -0.011445,0.07636 -0.012186,0.114968 -0.00148,0.07722 0.00298,0.157245 -0.026429,0.228655 -0.024314,0.05903 -0.069876,0.106799 -0.1188446,0.147759 -0.048968,0.04096 -0.1023404,0.07665 -0.1490651,0.120151 -0.1033127,0.09619 -0.1688658,0.225259 -0.2298378,0.352568 -0.060972,0.127308 -0.1210136,0.258063 -0.2166784,0.361858 -0.057104,0.06196 -0.1257865,0.11296 -0.1786065,0.178607 -0.098909,0.122928 -0.1333236,0.295002 -0.089303,0.446516 -0.019769,0.188726 -0.081186,0.372977 -0.1786065,0.535819 -0.034324,0.05737 -0.073689,0.113598 -0.089303,0.178607 -0.011225,0.04673 -0.00945,0.09599 5.672e-4,0.142995 0.010018,0.04701 0.028083,0.09197 0.049175,0.13516 0.042185,0.08638 0.096906,0.167005 0.128864,0.257664 0.031778,0.09015 0.039795,0.186631 0.058601,0.280348 0.018806,0.09372 0.051051,0.189277 0.1200059,0.255472 0.038852,0.0373 0.087077,0.06304 0.1344953,0.08857 0.047419,0.02553 0.095416,0.05187 0.1334144,0.09004 0.046079,0.04628 0.074445,0.106857 0.1120103,0.160282 0.018783,0.02671 0.040182,0.05195 0.066236,0.07164 0.026054,0.01969 0.057093,0.03364 0.089663,0.03599 0.03019,0.0022 0.060085,-0.0055 0.090037,-0.0099 0.014976,-0.0022 0.030155,-0.0035 0.045246,-0.0024 0.015091,0.0011 0.03015,0.0049 0.043324,0.0123 0.018437,0.01043 0.032097,0.02742 0.045102,0.04414 0.013005,0.01672 0.026231,0.03395 0.044201,0.04516 0.012911,0.0081 0.027799,0.01264 0.042894,0.01458 0.015094,0.0019 0.030426,0.0013 0.045536,-5.06e-4 0.03022,-0.0036 0.059811,-0.01199 0.090177,-0.01408 0.067902,-0.0047 0.1343886,0.02248 0.1919867,0.05874 0.057598,0.03626 0.108807,0.0818 0.1652262,0.119865 0.027997,0.01889 0.058423,0.03633 0.092007,0.0399 0.016792,0.0018 0.034135,-5.9e-5 0.049664,-0.0067 0.01553,-0.0066 0.029137,-0.01823 0.036935,-0.03321 0.0091,-0.01748 0.00976,-0.03884 0.00305,-0.05737 -0.00671,-0.01853 -0.020441,-0.03418 -0.037232,-0.04449 -0.016791,-0.01032 -0.0365,-0.01546 -0.056196,-0.01613 -0.019696,-6.74e-4 -0.039392,0.003 -0.058055,0.0093 -0.037325,0.01266 -0.070158,0.03554 -0.103054,0.05726 -0.032896,0.02171 -0.06724,0.04288 -0.1057234,0.0514 -0.04396,0.0097 -0.089642,0.0022 -0.1342346,-0.004 -0.044593,-0.0062 -0.091196,-0.01091 -0.1336751,0.004 -0.040285,0.01415 -0.072749,0.04465 -0.099807,0.07768 -0.027058,0.03303 -0.050028,0.06938 -0.0788,0.100928 -0.040926,0.04488 -0.092608,0.07886 -0.1470529,0.10578 -0.054445,0.02692 -0.1119043,0.04712 -0.1690295,0.06775 -0.057125,0.02063 -0.1142911,0.04184 -0.1677803,0.07061 -0.053489,0.02877 -0.1035068,0.0655 -0.1412599,0.113078 -0.02693,0.03394 -0.047167,0.07276 -0.073829,0.106903 -0.013331,0.01707 -0.02833,0.03301 -0.045823,0.04578 -0.017493,0.01278 -0.037592,0.02233 -0.058955,0.02592 -0.029729,0.005 -0.059987,-0.0017 -0.089784,-0.0062 -0.014899,-0.0023 -0.029946,-0.004 -0.045011,-0.0036 -0.015065,4.89e-4 -0.030213,0.0033 -0.043811,0.0098 -0.015503,0.0074 -0.028532,0.01944 -0.038585,0.03338 -0.010053,0.01394 -0.017251,0.02976 -0.022819,0.04602 -0.011136,0.03252 -0.015955,0.06698 -0.027899,0.09921 -0.014811,0.03997 -0.040242,0.07537 -0.069988,0.105896 -0.029747,0.03053 -0.063827,0.05647 -0.09842,0.08137 -0.069186,0.0498 -0.1430621,0.09802 -0.1888042,0.16995 -0.050718,0.07976 -0.060163,0.177997 -0.089303,0.26791 -0.033267,0.102648 -0.092597,0.1949 -0.1578199,0.280861 -0.065223,0.08596 -0.1369567,0.166952 -0.1993931,0.254958 -0.2543526,0.358517 -0.3390145,0.811043 -0.357213,1.250245 -0.01479,0.356936 0,0.714397 0,1.071639 l 0,1.607459 c 0,0.866298 0.054774,1.732391 0.1786065,2.589793 0.051836,0.358902 0.1124917,0.726006 0.2924568,1.040824 0.089983,0.157409 0.2098067,0.299523 0.3588718,0.402742 0.1490651,0.103218 0.3283138,0.166098 0.5096135,0.163893 0.059613,-7.25e-4 0.1195733,-0.0083 0.1786065,0 0.067145,0.0095 0.1316615,0.04037 0.1786065,0.0893 0.029647,0.0309 0.051816,0.06808 0.07831,0.101718 0.026494,0.03364 0.05919,0.06489 0.1002961,0.07689 0.021768,0.0064 0.044871,0.007 0.067451,0.0049 0.02258,-0.0021 0.044814,-0.0069 0.067094,-0.01108 0.02228,-0.0042 0.044786,-0.0079 0.067463,-0.0079 0.022677,5e-6 0.045684,0.0039 0.065901,0.01415 0.018905,0.0096 0.034686,0.02442 0.048694,0.04034 0.014009,0.01592 0.026509,0.03312 0.040609,0.04896 0.046272,0.05199 0.1117999,0.08879 0.1813295,0.09181 0.034765,0.0015 0.07002,-0.0054 0.101058,-0.02118 0.031038,-0.01573 0.057711,-0.04033 0.074826,-0.07063 0.011187,-0.0198 0.018341,-0.0419 0.031609,-0.06038 0.00663,-0.0092 0.014845,-0.01752 0.024794,-0.02303 0.00995,-0.0055 0.021743,-0.0081 0.0329,-0.0059 0.010597,0.0021 0.020033,0.0083 0.027573,0.01606 0.00754,0.0077 0.013374,0.01694 0.018927,0.02621 0.00555,0.0093 0.010914,0.0187 0.017685,0.02712 0.00677,0.0084 0.015109,0.01585 0.025118,0.01991 0.01393,0.0057 0.029622,0.0043 0.044497,0.0021 0.014875,-0.0022 0.03006,-0.005 0.044806,-0.0021 0.010582,0.0021 0.020447,0.0071 0.029016,0.01368 0.00857,0.0066 0.015899,0.0146 0.022483,0.02314 0.013169,0.01709 0.023535,0.0363 0.037804,0.05248 0.02225,0.02523 0.052787,0.0417 0.084008,0.05422 0.031222,0.01252 0.063771,0.02162 0.094598,0.03508 0.097302,0.04249 0.1707364,0.125119 0.2357488,0.209064 0.065012,0.08395 0.1263012,0.173117 0.2107674,0.237452 0.059973,0.04568 0.1293753,0.07703 0.1943397,0.115283 0.064964,0.03825 0.127775,0.08591 0.1628733,0.152627 0.015623,0.0297 0.025184,0.06213 0.037318,0.09342 0.012134,0.03129 0.027445,0.0623 0.051985,0.08519 0.020704,0.01931 0.046891,0.03177 0.073628,0.04108 0.026737,0.0093 0.054395,0.01575 0.081225,0.02479 0.026831,0.009 0.053218,0.02093 0.074506,0.03959 0.010644,0.0093 0.019917,0.02031 0.026723,0.03273 0.00681,0.01241 0.011107,0.02628 0.011827,0.04041 8.138e-4,0.01598 -0.00291,0.03186 -0.00781,0.0471 -0.00489,0.01524 -0.010983,0.0301 -0.015132,0.04555 -0.00415,0.01546 -0.00632,0.03178 -0.00319,0.04748 0.00156,0.0078 0.00446,0.01547 0.00884,0.02216 0.00438,0.0067 0.010283,0.01244 0.017286,0.01632 0.00662,0.0037 0.014111,0.0056 0.021646,0.0063 0.00754,7.03e-4 0.015138,2.12e-4 0.022645,-7.46e-4 0.015014,-0.0019 0.029877,-0.0057 0.045012,-0.0055 0.02192,2.1e-4 0.043233,0.0088 0.061005,0.02163 0.017772,0.01283 0.032248,0.02975 0.04473,0.04777 0.024964,0.03604 0.04282,0.07729 0.072871,0.10921 0.032112,0.03411 0.076474,0.05522 0.1224329,0.06429 0.045959,0.0091 0.093567,0.0067 0.1397615,-0.0011 0.092389,-0.01557 0.1805486,-0.0525 0.273625,-0.06322 0.1244401,-0.01433 0.2526514,0.02032 0.357213,0.0893 0.015035,0.0099 0.029633,0.02053 0.045219,0.02956 0.015585,0.009 0.03232,0.0165 0.050077,0.01951 0.017757,0.003 0.036674,0.0013 0.05259,-0.0071 0.00796,-0.0042 0.015078,-0.01008 0.020485,-0.01728 0.00541,-0.0072 0.00907,-0.01575 0.010236,-0.02468 0.00198,-0.0152 -0.00319,-0.03028 -0.00624,-0.0453 -0.00152,-0.0075 -0.00253,-0.0152 -0.00182,-0.02284 7.005e-4,-0.0076 0.0032,-0.01524 0.00807,-0.02117 0.00502,-0.0061 0.012316,-0.0101 0.020001,-0.01195 0.00768,-0.0019 0.01575,-0.0017 0.023554,-4.08e-4 0.015607,0.0025 0.030258,0.0092 0.045749,0.01236 0.01926,0.0039 0.03947,0.0022 0.05823,-0.0036 0.01876,-0.0059 0.036108,-0.0158 0.051499,-0.02803 0.030782,-0.02445 0.053453,-0.05747 0.074664,-0.09056 0.021212,-0.0331 0.041719,-0.06715 0.069447,-0.09501 0.013864,-0.01393 0.029505,-0.02623 0.046958,-0.03527 0.017453,-0.009 0.03677,-0.01476 0.056415,-0.0154 0.024838,-8.03e-4 0.04925,0.0065 0.072368,0.01557 0.023119,0.0091 0.045514,0.02017 0.069247,0.02754 0.023733,0.0074 0.049393,0.01092 0.073435,0.0046 0.012021,-0.0031 0.02347,-0.0088 0.03285,-0.01691 0.00938,-0.0081 0.016628,-0.01888 0.020008,-0.03083 0.00407,-0.01441 0.00246,-0.02975 6.05e-4,-0.04461 -0.00185,-0.01486 -0.00389,-0.03008 -6.05e-4,-0.04469 0.00385,-0.01714 0.01493,-0.03211 0.028819,-0.04286 0.013889,-0.01075 0.030463,-0.01758 0.047394,-0.02225 0.033861,-0.0094 0.069975,-0.01065 0.1023941,-0.02418 0.029847,-0.01246 0.054778,-0.03466 0.075194,-0.05975 0.020416,-0.02509 0.036751,-0.05317 0.053611,-0.08077 0.01686,-0.0276 0.034493,-0.05504 0.057033,-0.07824 0.02254,-0.0232 0.050506,-0.04211 0.082072,-0.04915 0.02918,-0.0065 0.05952,-0.0026 0.089303,0 0.1451669,0.01281 0.2975163,-0.007 0.4214074,-0.08377 0.061946,-0.03837 0.1157368,-0.09067 0.1525322,-0.153561 0.036795,-0.06289 0.05613,-0.136491 0.051183,-0.209188 -0.00203,-0.02987 -0.008,-0.06045 0,-0.0893 0.00573,-0.02068 0.018388,-0.03893 0.033633,-0.05403 0.015245,-0.0151 0.033077,-0.0273 0.05107,-0.03899 0.017992,-0.01169 0.036312,-0.023 0.0529,-0.03661 0.016588,-0.01361 0.031526,-0.02973 0.041003,-0.04898 0.015721,-0.03193 0.015115,-0.06915 0.023139,-0.103829 0.00401,-0.01734 0.010398,-0.03445 0.021395,-0.04844 0.010997,-0.01399 0.027056,-0.02462 0.044769,-0.02634 0.015235,-0.0015 0.030235,0.0035 0.045274,0.0064 0.00752,0.0014 0.01521,0.0023 0.022827,0.0016 0.00762,-7.49e-4 0.015195,-0.0032 0.021203,-0.008 0.00626,-0.0049 0.010526,-0.01215 0.012659,-0.01983 0.00213,-0.0077 0.00223,-0.01583 0.00112,-0.02373 -0.00222,-0.01579 -0.0091,-0.03049 -0.013774,-0.04574 -0.010513,-0.03428 -0.00966,-0.07194 0.00238,-0.105716 0.012046,-0.03377 0.035224,-0.06347 0.065058,-0.08336 0.029835,-0.01989 0.066162,-0.02986 0.1019703,-0.02799 0.035808,0.0019 0.070899,0.01557 0.0985,0.03846 0.410935,0.08513 0.839306,0.08514 1.250245,2.7e-5 0.09367,-0.0194 0.189608,-0.04469 0.264401,-0.104319 0.0374,-0.02982 0.06866,-0.06811 0.08647,-0.112502 0.0178,-0.04439 0.02151,-0.09503 0.0063,-0.140392 -0.0051,-0.01523 -0.01226,-0.02993 -0.01452,-0.04583 -0.0011,-0.0079 -9.83e-4,-0.01616 0.0013,-0.02387 0.0023,-0.0077 0.0068,-0.01487 0.01324,-0.01961 0.0062,-0.0045 0.01381,-0.0066 0.02143,-0.0071 0.0076,-4.54e-4 0.01524,6.87e-4 0.02271,0.0022 0.0075,0.0015 0.01486,0.0035 0.02239,0.0047 0.0075,0.0012 0.01528,0.0016 0.02277,1.62e-4 0.01236,-0.0025 0.02339,-0.0102 0.0308,-0.0204 0.0074,-0.0102 0.01133,-0.0227 0.01221,-0.03527 0.0018,-0.02515 -0.0082,-0.04962 -0.01988,-0.07195 -0.01171,-0.02233 -0.0255,-0.0439 -0.03254,-0.06811 -0.0035,-0.0121 -0.0053,-0.02483 -0.004,-0.03737 0.0012,-0.01254 0.0056,-0.02492 0.01344,-0.0348 0.01061,-0.01342 0.02754,-0.02161 0.04465,-0.02161 0.01711,0 0.03403,0.0082 0.04465,0.02161 l 7e-6,-0.357216"
       id="path3789"
       style="fill:#cccccc;stroke:#000000;stroke-width:1px;stroke-linecap:butt;stroke-linejoin:miter;stroke-opacity:1" />
  </g>
</svg>
