<?xml version="1.0" encoding="UTF-8" standalone="no"?>
<!-- Created with Inkscape (http://www.inkscape.org/) -->

<svg
   xmlns:dc="http://purl.org/dc/elements/1.1/"
   xmlns:cc="http://creativecommons.org/ns#"
   xmlns:rdf="http://www.w3.org/1999/02/22-rdf-syntax-ns#"
   xmlns:svg="http://www.w3.org/2000/svg"
   xmlns="http://www.w3.org/2000/svg"
   xmlns:sodipodi="http://sodipodi.sourceforge.net/DTD/sodipodi-0.dtd"
   xmlns:inkscape="http://www.inkscape.org/namespaces/inkscape"
   width="16px"
   height="16px"
   id="svg3812"
   version="1.1"
   inkscape:version="0.48.0 r9654"
   sodipodi:docname="lowenergysmoke2.svg">
  <defs
     id="defs3814">
    <inkscape:path-effect
       effect="spiro"
       id="path-effect3822"
       is_visible="true" />
  </defs>
  <sodipodi:namedview
     id="base"
     pagecolor="#ffffff"
     bordercolor="#666666"
     borderopacity="1.0"
     inkscape:pageopacity="0.0"
     inkscape:pageshadow="2"
     inkscape:zoom="22.197802"
     inkscape:cx="8"
     inkscape:cy="8"
     inkscape:current-layer="layer1"
     showgrid="true"
     inkscape:grid-bbox="true"
     inkscape:document-units="px"
     inkscape:window-width="821"
     inkscape:window-height="651"
     inkscape:window-x="1600"
     inkscape:window-y="61"
     inkscape:window-maximized="0" />
  <metadata
     id="metadata3817">
    <rdf:RDF>
      <cc:Work
         rdf:about="">
        <dc:format>image/svg+xml</dc:format>
        <dc:type
           rdf:resource="http://purl.org/dc/dcmitype/StillImage" />
        <dc:title></dc:title>
      </cc:Work>
    </rdf:RDF>
  </metadata>
  <g
     id="layer1"
     inkscape:label="Layer 1"
     inkscape:groupmode="layer">
    <path
       style="fill:#808080;stroke:#000000;stroke-width:1px;stroke-linecap:butt;stroke-linejoin:miter;stroke-opacity:1"
       d="m 3.4688119,13.161881 c -0.037581,0.02543 -0.065047,0.0654 -0.075319,0.109603 -0.010272,0.0442 -0.00325,0.09219 0.019269,0.131584 0.022514,0.0394 0.060287,0.06982 0.1035823,0.08341 0.043295,0.01359 0.091674,0.01022 0.1326659,-0.0092 0.015474,-0.0073 0.030282,-0.01701 0.047174,-0.01985 0.00845,-0.0014 0.017342,-0.001 0.025264,0.0022 0.00792,0.0033 0.014766,0.0096 0.017661,0.01763 0.00278,0.0077 0.00178,0.01639 -6.754e-4,0.02425 -0.00246,0.0079 -0.0063,0.0152 -0.00928,0.02287 -0.00299,0.0077 -0.00514,0.01594 -0.00399,0.02409 5.743e-4,0.0041 0.00199,0.0081 0.00436,0.01143 0.00237,0.0034 0.00571,0.0061 0.00959,0.0075 0.00363,0.0013 0.0076,0.0014 0.01142,8.71e-4 0.00382,-4.91e-4 0.00755,-0.0015 0.011294,-0.0024 0.00375,-9.05e-4 0.00756,-0.0017 0.011412,-0.0016 0.00385,4.5e-5 0.00778,9.66e-4 0.010923,0.0032 0.00328,0.0023 0.0055,0.006 0.00655,0.0099 0.00104,0.0039 9.771e-4,0.008 3.103e-4,0.012 -0.00133,0.008 -0.00499,0.01533 -0.00686,0.02317 -0.00306,0.01285 -0.00115,0.02665 0.00432,0.03867 0.00547,0.01202 0.014365,0.02232 0.024815,0.0304 0.020899,0.01616 0.047227,0.02335 0.073034,0.02901 0.025806,0.0057 0.052288,0.01028 0.075754,0.02242 0.011733,0.0061 0.022605,0.01403 0.031101,0.02414 0.0085,0.01012 0.014539,0.02247 0.016221,0.03557 0.00192,0.01492 -0.0018,0.03012 0,0.04505 0.00238,0.01973 0.014255,0.03726 0.028834,0.05076 0.014578,0.0135 0.03188,0.02363 0.048535,0.03447 0.016655,0.01084 0.033081,0.02277 0.044797,0.03882 0.00586,0.008 0.010462,0.01704 0.01291,0.02667 0.00245,0.0096 0.00269,0.01989 7.32e-5,0.02948 -0.00215,0.0079 -0.00619,0.01526 -0.00764,0.02332 -7.228e-4,0.004 -7.687e-4,0.0082 4.141e-4,0.01216 0.00118,0.0039 0.00368,0.0075 0.00722,0.0096 0.00337,0.0019 0.00745,0.0024 0.011315,0.0019 0.00387,-4.17e-4 0.0076,-0.0016 0.01133,-0.0027 0.00373,-0.0011 0.00752,-0.0022 0.011405,-0.0023 0.00389,-1.41e-4 0.00794,7.27e-4 0.011,0.0031 0.00311,0.0024 0.00493,0.0063 0.00552,0.01018 5.931e-4,0.0039 5.76e-5,0.0079 -8.731e-4,0.01175 -9.308e-4,0.0038 -0.00225,0.0076 -0.00327,0.0114 -0.00101,0.0038 -0.00172,0.0078 -0.00138,0.01172 4.68e-4,0.0055 0.00294,0.01061 0.00636,0.01489 0.00342,0.0043 0.00774,0.0078 0.012271,0.01083 0.00906,0.0062 0.019259,0.01104 0.026419,0.01933 0.00512,0.0059 0.00838,0.01333 0.00998,0.02099 0.0016,0.0077 0.00159,0.0156 6.691e-4,0.02338 -0.00185,0.01555 -0.00727,0.03044 -0.01065,0.04573 -0.00941,0.04251 -0.00204,0.08921 0.023111,0.124753 0.012578,0.01777 0.029394,0.03259 0.048833,0.04239 0.019439,0.0098 0.041483,0.01453 0.063205,0.01305 0.00755,-5.13e-4 0.015044,-0.0018 0.0226,-0.0023 0.00756,-4.93e-4 0.01529,-2.08e-4 0.022451,0.0023 0.00831,0.0029 0.015473,0.0086 0.020895,0.01548 0.00542,0.0069 0.00919,0.01501 0.011926,0.02336 0.00548,0.0167 0.00699,0.03448 0.01223,0.05126 0.00868,0.02778 0.027721,0.05203 0.052126,0.06789 0.024405,0.01586 0.05394,0.02341 0.083023,0.02221 0.015065,-6.21e-4 0.030381,-0.0035 0.04505,0 0.016241,0.0039 0.029869,0.01522 0.039927,0.02854 0.010059,0.01332 0.017039,0.02865 0.024386,0.04364 0.00735,0.01499 0.01529,0.02998 0.026844,0.04203 0.00578,0.006 0.012437,0.01126 0.019899,0.015 0.00746,0.0037 0.015746,0.006 0.024092,0.0059 0.00809,-1.9e-5 0.016027,-0.0021 0.023703,-0.0047 0.00768,-0.0025 0.015207,-0.0056 0.023046,-0.0076 0.00784,-0.002 0.016109,-0.0029 0.024012,-0.0012 0.00395,8.56e-4 0.00778,0.0024 0.011135,0.0046 0.00336,0.0023 0.00624,0.0052 0.0082,0.0088 0.0037,0.0067 0.00388,0.01476 0.00297,0.02234 -9.122e-4,0.0076 -0.00282,0.01507 -0.00297,0.02271 -3.017e-4,0.01533 0.00678,0.03037 0.017858,0.04096 0.01108,0.01059 0.025876,0.01689 0.04106,0.01898 0.015184,0.0021 0.030745,1.6e-4 0.045449,-0.0042 0.014703,-0.0043 0.028617,-0.01101 0.042008,-0.01847 0.026781,-0.01492 0.05199,-0.03318 0.080831,-0.04357 0.014421,-0.0052 0.029721,-0.0083 0.045037,-0.0078 0.015317,5.89e-4 0.030669,0.0051 0.043103,0.01402 0.017271,0.01245 0.027844,0.03251 0.04505,0.04505 0.00965,0.007 0.021097,0.01142 0.032866,0.01345 0.011769,0.002 0.023863,0.0017 0.035672,-4.2e-5 0.023617,-0.0036 0.045899,-0.0129 0.068179,-0.0215 0.02228,-0.0086 0.045288,-0.01661 0.069162,-0.01728 0.011937,-3.31e-4 0.023998,0.0012 0.035205,0.0053 0.011207,0.0041 0.02154,0.01088 0.029214,0.02003 0.00709,0.0085 0.011743,0.01867 0.018244,0.02758 0.00325,0.0045 0.007,0.0086 0.011496,0.0118 0.0045,0.0032 0.0098,0.0054 0.015311,0.0057 0.00789,4.22e-4 0.015406,-0.003 0.023103,-0.0047 0.00385,-8.85e-4 0.00785,-0.0014 0.01175,-7.46e-4 0.0039,6.19e-4 0.00771,0.0024 0.010197,0.0055 0.00244,0.003 0.00343,0.007 0.00342,0.01089 -1.31e-5,0.0039 -9.497e-4,0.0077 -0.002,0.01143 -0.00105,0.0037 -0.00222,0.0075 -0.00272,0.01131 -5.037e-4,0.0038 -3.022e-4,0.0079 0.00131,0.01142 0.00176,0.0039 0.00516,0.0069 0.00906,0.0086 0.00391,0.0017 0.00829,0.0021 0.012524,0.0016 0.00846,-9.92e-4 0.016058,-0.0055 0.023353,-0.0099 0.0073,-0.0044 0.014843,-0.0089 0.023284,-0.01005 0.00422,-5.66e-4 0.00861,-2.35e-4 0.01256,0.0014 0.00395,0.0016 0.00742,0.0045 0.00931,0.0083 0.00172,0.0035 0.00207,0.0075 0.0017,0.01131 -3.717e-4,0.0038 -0.00143,0.0076 -0.00242,0.01131 -9.94e-4,0.0037 -0.00193,0.0075 -0.00205,0.01137 -1.214e-4,0.0039 6.315e-4,0.0078 0.00278,0.01105 0.00225,0.0034 0.0059,0.0056 0.00981,0.0067 0.0039,0.0011 0.00805,9.54e-4 0.012027,2.47e-4 0.00796,-0.0014 0.015327,-0.0052 0.023218,-0.0069 0.013754,-0.0031 0.028384,2.29e-4 0.040815,0.0069 0.012431,0.0066 0.022908,0.01641 0.032417,0.02681 0.00951,0.0104 0.01821,0.02153 0.028024,0.03164 0.00981,0.01011 0.020918,0.01929 0.033891,0.02479 0.015374,0.0065 0.032545,0.0075 0.049214,0.0065 0.01667,-9.79e-4 0.033188,-0.0038 0.049863,-0.0047 0.016675,-8.86e-4 0.033854,3.17e-4 0.049118,0.0071 0.00763,0.0034 0.014696,0.0082 0.020347,0.0143 0.00565,0.0061 0.00985,0.01369 0.011655,0.02185 0.00162,0.0074 0.00128,0.01499 7.03e-4,0.0225 -5.82e-4,0.0075 -0.0014,0.01505 -7.03e-4,0.02255 8.811e-4,0.0095 0.00422,0.01873 0.0094,0.02674 0.00518,0.008 0.012187,0.0148 0.020218,0.01995 0.016063,0.0103 0.035961,0.01381 0.05491,0.01158 0.018949,-0.0022 0.036984,-0.0099 0.05291,-0.02044 0.015925,-0.01051 0.029863,-0.02377 0.042762,-0.03783 0.019069,-0.02079 0.036182,-0.04358 0.057841,-0.06165 0.01083,-0.009 0.022792,-0.01685 0.035892,-0.02207 0.0131,-0.0052 0.027385,-0.0078 0.041416,-0.0064 0.016858,0.0017 0.032639,0.0091 0.047152,0.01786 0.014513,0.0087 0.028131,0.01896 0.042947,0.02719 0.027417,0.01522 0.058741,0.02333 0.090099,0.02333 0.031358,0 0.062682,-0.0081 0.090099,-0.02333 0.033861,-0.0047 0.066044,-0.02077 0.090099,-0.04505 0.014991,-0.01513 0.027141,-0.03352 0.04505,-0.04505 0.018177,-0.01171 0.040918,-0.01513 0.062329,-0.01213 0.02141,0.003 0.041609,0.01206 0.059887,0.02361 0.036557,0.02309 0.066131,0.05608 0.1030317,0.07862 0.045498,0.02779 0.099806,0.03823 0.1531103,0.03937 0.053304,0.0011 0.1063837,-0.0063 0.1591283,-0.01413 0.1054893,-0.01557 0.2118226,-0.02524 0.3184545,-0.02524 l 1.0811881,0 c 0.078025,0 0.1554618,0.01152 0.2313255,0.02975 0.037932,0.0091 0.076532,0.01786 0.1155121,0.01627 0.01949,-7.96e-4 0.038992,-0.0043 0.057022,-0.01174 0.01803,-0.0074 0.034571,-0.01895 0.046635,-0.03428 0.00674,-0.0086 0.012014,-0.01819 0.018811,-0.0267 0.0034,-0.0043 0.00719,-0.0082 0.011561,-0.01147 0.00437,-0.0032 0.00935,-0.0057 0.014677,-0.0069 0.00739,-0.0016 0.015056,-4.79e-4 0.022554,4.67e-4 0.0075,9.45e-4 0.01526,0.0017 0.022496,-4.67e-4 0.00837,-0.0025 0.015229,-0.0089 0.019806,-0.01631 0.00458,-0.0075 0.00708,-0.01599 0.00891,-0.02454 0.00183,-0.0086 0.00302,-0.01724 0.00524,-0.0257 0.00222,-0.0085 0.00553,-0.0168 0.011094,-0.02355 0.00783,-0.0095 0.019556,-0.01515 0.031559,-0.01791 0.012003,-0.0028 0.024429,-0.0029 0.036742,-0.0032 0.012314,-2.8e-4 0.024764,-7.18e-4 0.036631,-0.004 0.011867,-0.0033 0.023264,-0.0098 0.030216,-0.01993 0.0045,-0.0066 0.00697,-0.01455 0.00697,-0.02252 0,-0.008 -0.00246,-0.01594 -0.00697,-0.02252 l 0.090099,-0.0901 0.1351485,-0.04505 c 0.022588,-0.0075 0.045466,-0.01415 0.068497,-0.02019 0.023031,-0.006 0.046522,-0.01215 0.066651,-0.02486 0.018016,-0.01138 0.032333,-0.02766 0.04601,-0.044 0.013677,-0.01634 0.027159,-0.03316 0.044089,-0.0461 0.01904,-0.01456 0.041744,-0.02365 0.064857,-0.02999 0.023113,-0.0063 0.046843,-0.0101 0.070291,-0.01506 0.120664,-0.02554 0.236222,-0.08559 0.315347,-0.180198 0.04823,-0.05767 0.08223,-0.126805 0.135148,-0.180198 0.06786,-0.06847 0.162712,-0.106835 0.225248,-0.180198 0.03158,-0.03705 0.05333,-0.08125 0.0791,-0.122544 0.02578,-0.04129 0.05738,-0.08128 0.101094,-0.102704 0.01519,-0.0074 0.03144,-0.01244 0.04713,-0.01876 0.01569,-0.0063 0.03114,-0.0142 0.04297,-0.02629 0.01181,-0.01208 0.01934,-0.02766 0.02556,-0.04336 0.0062,-0.0157 0.0114,-0.0319 0.01949,-0.04674 0.01306,-0.02398 0.03323,-0.04343 0.05522,-0.05961 0.02199,-0.01619 0.04597,-0.02943 0.06923,-0.04373 0.02326,-0.0143 0.04606,-0.02989 0.06464,-0.04989 0.01858,-0.02001 0.03281,-0.04491 0.03616,-0.07201 0.0018,-0.01492 3.77e-4,-0.03002 0,-0.04505 -7.55e-4,-0.03013 0.0032,-0.06122 0.01799,-0.08747 0.0074,-0.01313 0.01747,-0.02485 0.02988,-0.03341 0.0124,-0.0086 0.02717,-0.01386 0.04223,-0.01427 0.0075,-2.04e-4 0.01505,7.95e-4 0.02257,0.0013 0.0075,5.5e-4 0.0152,6.36e-4 0.02248,-0.0013 0.0067,-0.0018 0.01294,-0.0054 0.01805,-0.01016 0.0051,-0.0047 0.0091,-0.01063 0.01188,-0.01703 0.0055,-0.0128 0.0059,-0.02744 0.0029,-0.04103 -0.0062,-0.02719 -0.02516,-0.04933 -0.0427,-0.07101 -0.0088,-0.01084 -0.01737,-0.0219 -0.02414,-0.03409 -0.0068,-0.01219 -0.0117,-0.02561 -0.01263,-0.03952 -9.25e-4,-0.01391 0.0024,-0.02835 0.01074,-0.03952 0.0042,-0.0056 0.0096,-0.01028 0.01577,-0.01346 0.0062,-0.0032 0.01322,-0.0048 0.02018,-0.0045 0.0078,3.72e-4 0.01523,0.0031 0.02291,0.0044 0.0038,6.36e-4 0.0078,8.97e-4 0.01162,2.94e-4 0.0038,-6.03e-4 0.0076,-0.0021 0.01052,-0.0047 0.003,-0.0026 0.0049,-0.0063 0.0059,-0.01018 9.5e-4,-0.0039 9.34e-4,-0.0079 3.76e-4,-0.01186 -0.0011,-0.0079 -0.0043,-0.01529 -0.0063,-0.02301 -0.0052,-0.02086 -2.61e-4,-0.04374 0.01199,-0.0614 0.01225,-0.01766 0.03144,-0.03009 0.05228,-0.03535 0.02084,-0.0053 0.04319,-0.0035 0.06346,0.0036 0.02028,0.0071 0.03851,0.01953 0.05362,0.03482 0.03022,0.03058 0.04748,0.07169 0.05893,0.113123 0.01145,0.04144 0.01779,0.08418 0.03001,0.1254 0.01285,0.04332 0.03258,0.0853 0.06296,0.118744 0.03038,0.03345 0.0722,0.05779 0.117237,0.06145 0.02257,0.0018 0.04519,-0.0014 0.06774,-0.0035 0.02255,-0.0021 0.04572,-0.003 0.06741,0.0035 0.03225,0.0097 0.0581,0.03458 0.0901,0.04505 0.02155,0.007 0.04476,0.0071 0.06736,0.0054 0.02261,-0.0018 0.04511,-0.0053 0.06779,-0.0054 0.06327,-8.7e-5 0.123003,0.02708 0.184848,0.04043 0.03092,0.0067 0.06305,0.0099 0.0942,0.0044 0.03116,-0.0055 0.06141,-0.02028 0.08134,-0.04484 0.0068,-0.0084 0.01235,-0.01781 0.01921,-0.0262 0.0069,-0.0084 0.01541,-0.01593 0.02584,-0.01885 0.0073,-0.002 0.01497,-0.0017 0.02248,-0.001 0.0075,6.89e-4 0.01506,0.0017 0.02257,0.001 0.01404,-0.0013 0.02693,-0.0087 0.03748,-0.01803 0.01055,-0.0093 0.01912,-0.02068 0.02796,-0.03166 0.0088,-0.01098 0.01817,-0.02182 0.02981,-0.02978 0.01164,-0.008 0.02597,-0.01283 0.0399,-0.01063 0.0079,0.0012 0.01525,0.0046 0.0231,0.006 0.0039,6.86e-4 0.008,8.5e-4 0.01187,-3.6e-5 0.0039,-8.85e-4 0.0076,-0.0029 0.01008,-0.006 0.0024,-0.003 0.0036,-0.0069 0.0039,-0.01074 2.51e-4,-0.0039 -3.63e-4,-0.0077 -0.0012,-0.01149 -8.35e-4,-0.0038 -0.0019,-0.0075 -0.0025,-0.0113 -6.55e-4,-0.0038 -9e-4,-0.0077 -1.04e-4,-0.01152 9.26e-4,-0.0044 0.0033,-0.0084 0.0064,-0.01169 0.0031,-0.0032 0.007,-0.0057 0.0111,-0.0075 0.0083,-0.0035 0.01741,-0.0043 0.02638,-0.0049 0.009,-5.46e-4 0.01809,-9.46e-4 0.0266,-0.0038 0.0043,-0.0015 0.0083,-0.0035 0.01178,-0.0064 0.0035,-0.0029 0.0063,-0.0066 0.0079,-0.01076 0.0013,-0.0035 0.0018,-0.0074 0.0017,-0.01118 -7.6e-5,-0.0038 -6.45e-4,-0.0076 -0.0013,-0.0113 -0.0012,-0.0075 -0.0026,-0.01527 -4.45e-4,-0.02256 0.0012,-0.0041 0.0035,-0.0079 0.0065,-0.01105 0.003,-0.0031 0.0067,-0.0055 0.01066,-0.0072 0.008,-0.0033 0.01697,-0.0036 0.02545,-0.002 0.01697,0.0032 0.03167,0.01334 0.04749,0.02024 0.02086,0.0091 0.04415,0.01256 0.06676,0.0099 0.02261,-0.0026 0.04448,-0.01137 0.06268,-0.02503 0.01821,-0.01366 0.03271,-0.0322 0.04158,-0.05317 0.0089,-0.02096 0.01206,-0.04429 0.0092,-0.06687 0.0611,-0.01038 0.121403,-0.02545 0.180198,-0.04505 0.04338,-0.01446 0.08679,-0.03188 0.121711,-0.06139 0.01746,-0.01476 0.03259,-0.03248 0.04313,-0.05277 0.01054,-0.02029 0.01637,-0.0432 0.01536,-0.06604 -3.35e-4,-0.0075 -0.0014,-0.01504 -0.0019,-0.02258 -4.51e-4,-0.0075 -2.65e-4,-0.01522 0.0019,-0.02247 0.0031,-0.01046 0.01,-0.01944 0.01818,-0.02663 0.0082,-0.0072 0.01763,-0.01277 0.02701,-0.01831 0.0094,-0.0055 0.01881,-0.01115 0.02696,-0.01838 0.0081,-0.0072 0.01501,-0.01629 0.01795,-0.02678 0.0021,-0.0074 0.0021,-0.01517 0.0013,-0.02277 -8.52e-4,-0.0076 -0.0026,-0.01507 -0.0041,-0.02257 -0.0015,-0.0075 -0.0028,-0.0151 -0.0027,-0.02275 1.09e-4,-0.0076 0.0017,-0.0154 0.0055,-0.02202 0.0031,-0.0054 0.0077,-0.0099 0.01297,-0.01331 0.0053,-0.0034 0.01117,-0.0057 0.01725,-0.0072 0.01216,-0.0029 0.02484,-0.0025 0.03734,-0.0021 0.0125,4.29e-4 0.02518,8.43e-4 0.03734,-0.0021 0.0061,-0.0015 0.012,-0.0038 0.01725,-0.0071 0.0053,-0.0034 0.0098,-0.0079 0.01299,-0.01329 0.0038,-0.0066 0.0054,-0.01436 0.0055,-0.02201 1.22e-4,-0.0076 -0.0011,-0.01525 -0.0026,-0.02275 -0.0015,-0.0075 -0.0032,-0.01497 -0.0041,-0.02257 -8.63e-4,-0.0076 -8.24e-4,-0.0154 0.0012,-0.02277 0.0029,-0.01049 0.0097,-0.01959 0.01777,-0.02688 0.0081,-0.0073 0.01747,-0.01296 0.02682,-0.01853 0.0093,-0.0056 0.01878,-0.01115 0.027,-0.01829 0.0082,-0.0071 0.01524,-0.01601 0.01852,-0.0264 0.0023,-0.0072 0.0027,-0.01491 0.0023,-0.02247 -3.89e-4,-0.0076 -0.0015,-0.01505 -0.0023,-0.02258 -0.0062,-0.06265 0.01656,-0.125479 0.05155,-0.17781 0.03499,-0.05233 0.08168,-0.09562 0.128645,-0.137537 0.01587,-0.01416 0.03192,-0.02832 0.04505,-0.04505 0.02081,-0.0265 0.03348,-0.05834 0.04565,-0.08976 0.01217,-0.03142 0.02437,-0.06337 0.04445,-0.09044 0.02295,-0.03094 0.0549,-0.05378 0.08248,-0.08068 0.01379,-0.01345 0.02661,-0.02808 0.03627,-0.04475 0.0097,-0.01667 0.01606,-0.0355 0.0164,-0.05476 2.63e-4,-0.01506 -0.0031,-0.03032 0,-0.04505 0.0023,-0.0106 0.0078,-0.0203 0.0149,-0.02852 0.0071,-0.0082 0.01561,-0.01505 0.02445,-0.02131 0.01769,-0.01253 0.03721,-0.02333 0.05074,-0.04027 0.0086,-0.01074 0.01437,-0.02358 0.01756,-0.03695 0.0032,-0.01337 0.0038,-0.02728 0.0027,-0.04098 -0.0022,-0.02741 -0.01125,-0.05374 -0.02021,-0.07973 -0.009,-0.02599 -0.01802,-0.05232 -0.02025,-0.07972 -0.0011,-0.0137 -4.93e-4,-0.02761 0.0027,-0.04099 0.0032,-0.01338 0.0089,-0.02622 0.0175,-0.03698 0.01187,-0.0149 0.02844,-0.02515 0.04452,-0.03538 0.01607,-0.01022 0.03238,-0.0211 0.04324,-0.03675 0.0054,-0.0078 0.0094,-0.01679 0.01065,-0.02622 0.0013,-0.0094 -2.21e-4,-0.01936 -0.005,-0.02762 -0.0047,-0.0083 -0.01282,-0.01472 -0.02212,-0.01674 -0.0047,-0.001 -0.0096,-9.21e-4 -0.01414,3.63e-4 -0.0046,0.0013 -0.0088,0.0038 -0.01214,0.0072 -0.0044,0.0045 -0.0069,0.01051 -0.0089,0.0165 -0.002,0.006 -0.0035,0.01215 -0.0062,0.01784 -0.0027,0.0057 -0.0068,0.01098 -0.01258,0.01358 -0.0029,0.0013 -0.0061,0.0019 -0.0092,0.0014 -0.0031,-4.41e-4 -0.0061,-0.0019 -0.0082,-0.0043 -0.0025,-0.0029 -0.0036,-0.0069 -0.0037,-0.0107 -1.15e-4,-0.0038 5.85e-4,-0.0077 0.0013,-0.01144 0.0015,-0.0076 0.0024,-0.01521 0.0024,-0.02291 l 0,-0.0901 c 0,-0.03779 0.0023,-0.07553 0.0061,-0.113128 0.0019,-0.0188 0.0037,-0.03765 0.0034,-0.05655 -2.57e-4,-0.01889 -0.0027,-0.03796 -0.0095,-0.05557 -0.0061,-0.01572 -0.01554,-0.02986 -0.02435,-0.04423 -0.0088,-0.01437 -0.01716,-0.02938 -0.0207,-0.04587 -0.0032,-0.01473 -0.0023,-0.02999 -0.0011,-0.045 0.0012,-0.01501 0.0028,-0.03013 0.0011,-0.04509 -0.0038,-0.03383 -0.02382,-0.06349 -0.04505,-0.0901 -0.01523,-0.01909 -0.03144,-0.03747 -0.04522,-0.05763 -0.01378,-0.02017 -0.0252,-0.04242 -0.02956,-0.06646 -0.0044,-0.02403 -0.0011,-0.05007 0.01239,-0.07041 0.0068,-0.01017 0.016,-0.01876 0.02688,-0.02431 0.01088,-0.0055 0.0234,-0.008 0.03552,-0.0064 0.0077,9.89e-4 0.01514,0.0035 0.02284,0.0046 0.0039,5.1e-4 0.0078,6.32e-4 0.01161,-2.4e-5 0.0038,-6.56e-4 0.0076,-0.0021 0.0106,-0.0045 0.0037,-0.0029 0.0062,-0.0072 0.0073,-0.01174 0.0011,-0.0046 8.82e-4,-0.0094 -3.57e-4,-0.01392 -0.0025,-0.0091 -0.0088,-0.0166 -0.01574,-0.02288 -0.007,-0.0063 -0.0148,-0.01159 -0.02163,-0.01802 -0.0068,-0.0064 -0.01279,-0.01433 -0.01463,-0.02353 -0.0015,-0.0074 -2.08e-4,-0.015078 8.07e-4,-0.02258 0.001,-0.0075 0.0017,-0.015338 -8.07e-4,-0.02247 -0.0018,-0.00509 -0.0052,-0.0095 -0.0091,-0.013197 -0.0039,-0.00369 -0.0084,-0.00672 -0.01295,-0.0097 -0.0045,-0.00297 -0.0091,-0.00591 -0.01313,-0.00946 -0.0041,-0.00355 -0.0077,-0.00775 -0.0098,-0.012695 -0.0031,-0.00695 -0.0031,-0.014849 -0.0023,-0.022402 7.87e-4,-0.00755 0.0023,-0.015053 0.0023,-0.022647 -6.2e-5,-0.013875 -0.0055,-0.027318 -0.01329,-0.038808 -0.0078,-0.01149 -0.01782,-0.021247 -0.02803,-0.030649 -0.0102,-0.0094 -0.02069,-0.018583 -0.02961,-0.029215 -0.0089,-0.010631 -0.01628,-0.022907 -0.01918,-0.036477 -0.0031,-0.014739 -8.59e-4,-0.030004 0,-0.04505 0.003,-0.052041 -0.01153,-0.1042176 -0.03643,-0.1500114 -0.0249,-0.045794 -0.05987,-0.085532 -0.09872,-0.1202857 -0.03188,-0.028518 -0.06646,-0.053878 -0.09853,-0.082182 -0.03207,-0.028304 -0.06196,-0.060056 -0.08167,-0.098016 -0.0183,-0.035242 -0.02727,-0.07473 -0.04554,-0.1099854 -0.0091,-0.017628 -0.02071,-0.034242 -0.03582,-0.047124 -0.01511,-0.012882 -0.03397,-0.021867 -0.05379,-0.023088 -0.0152,-9.368e-4 -0.03026,0.00263 -0.04536,0.00464 -0.0075,0.001 -0.01518,0.00162 -0.02278,0.00108 -0.0076,-5.366e-4 -0.01518,-0.00226 -0.02196,-0.00573 -0.0099,-0.00506 -0.01763,-0.013608 -0.02373,-0.022897 -0.0061,-0.00929 -0.01079,-0.019425 -0.01612,-0.029179 -0.0053,-0.00975 -0.01145,-0.019287 -0.01983,-0.026592 -0.0042,-0.00365 -0.0089,-0.00671 -0.01409,-0.00876 -0.0052,-0.00205 -0.01077,-0.00306 -0.01632,-0.00267 -0.0079,5.632e-4 -0.01532,0.00392 -0.02309,0.00543 -0.0039,7.549e-4 -0.0079,0.00104 -0.0118,2.773e-4 -0.0039,-7.658e-4 -0.0076,-0.00265 -0.01016,-0.0057 -0.0025,-0.00298 -0.0036,-0.00688 -0.0038,-0.010744 -2.08e-4,-0.00386 4.78e-4,-0.00772 0.0014,-0.011485 8.9e-4,-0.00377 0.002,-0.00749 0.0026,-0.011302 6.4e-4,-0.00382 8.09e-4,-0.00777 -1.55e-4,-0.01152 -0.001,-0.00407 -0.0034,-0.00775 -0.0065,-0.01056 -0.0031,-0.00281 -0.007,-0.00478 -0.011,-0.0059 -0.0081,-0.00224 -0.01679,-0.00111 -0.02482,0.00136 -0.008,0.00247 -0.01558,0.00624 -0.02337,0.0094 -0.0078,0.00316 -0.01598,0.00576 -0.02437,0.00569 -0.008,-5.92e-5 -0.01591,-0.00258 -0.02258,-0.00698 -0.0067,-0.00439 -0.01209,-0.010625 -0.0157,-0.017749 -0.0072,-0.014248 -0.007,-0.031712 -7.34e-4,-0.046427 0.0062,-0.014715 0.01799,-0.02672 0.03182,-0.034732 0.01382,-0.00801 0.02962,-0.012216 0.04551,-0.013877 0.03178,-0.00332 0.06366,0.00321 0.09555,0.00531 0.01594,0.00105 0.03206,9.704e-4 0.04776,-0.00198 0.0157,-0.00295 0.03103,-0.00889 0.04364,-0.01871 0.01081,-0.00842 0.01935,-0.019453 0.02632,-0.031244 0.007,-0.011791 0.01246,-0.024385 0.018,-0.036912 0.0055,-0.012526 0.01118,-0.025066 0.01842,-0.036694 0.0072,-0.011628 0.01617,-0.022386 0.02736,-0.030299 0.01307,-0.00925 0.02904,-0.014327 0.04505,-0.014327 0.01601,0 0.03198,0.00508 0.04505,0.014327 l 0.0901,-0.090099 c -0.0059,-0.014246 -0.0059,-0.030804 0,-0.04505 0.0066,-0.016054 0.02011,-0.028559 0.03537,-0.036831 0.01526,-0.00827 0.03229,-0.012694 0.04929,-0.016227 0.017,-0.00353 0.03421,-0.00627 0.05077,-0.011483 0.01656,-0.00522 0.03265,-0.013131 0.04477,-0.025558 0.01179,-0.01209 0.01919,-0.027743 0.02536,-0.043468 0.0062,-0.015724 0.01136,-0.031937 0.01969,-0.046631 0.01581,-0.027897 0.04172,-0.048391 0.06711,-0.067979 0.02539,-0.019589 0.05151,-0.039687 0.06804,-0.067169 0.0087,-0.014442 0.01439,-0.03043 0.0207,-0.046056 0.0063,-0.015626 0.01341,-0.031228 0.02435,-0.044043 0.01408,-0.016487 0.03351,-0.027247 0.05109,-0.039932 0.0088,-0.00634 0.01724,-0.01328 0.02423,-0.021565 0.007,-0.00829 0.01249,-0.018006 0.01478,-0.028602 0.0032,-0.014723 2.5e-5,-0.029988 0,-0.04505 -5.7e-5,-0.034063 0.01558,-0.066162 0.03343,-0.095168 0.01786,-0.029006 0.03777,-0.056688 0.05667,-0.08503 l 0.0901,-0.1351485 c 0.01191,-0.017866 0.02622,-0.034221 0.04365,-0.046765 0.0087,-0.00627 0.01785,-0.011975 0.02621,-0.018705 0.0084,-0.00673 0.01606,-0.014741 0.02024,-0.024629 0.0046,-0.010869 0.0046,-0.023213 0.0024,-0.034813 -0.0022,-0.0116 -0.0064,-0.022706 -0.0099,-0.033962 -0.0035,-0.011255 -0.0065,-0.022911 -0.006,-0.034703 2.29e-4,-0.0059 0.0013,-0.011785 0.0035,-0.017254 0.0022,-0.00547 0.0056,-0.01051 0.01,-0.014417 0.0061,-0.00543 0.01432,-0.00853 0.02252,-0.00853 0.0082,0 0.01638,0.00309 0.02252,0.00853 0.0198,-0.0089 0.03615,-0.02525 0.04505,-0.04505 0.0096,-0.021306 0.01049,-0.045653 0.0071,-0.068772 -0.0034,-0.023119 -0.01075,-0.045423 -0.01726,-0.067857 -0.0065,-0.022434 -0.01223,-0.045419 -0.01207,-0.06878 1.59e-4,-0.023361 0.0067,-0.047394 0.0222,-0.064888 0.0071,-0.008 0.01575,-0.01438 0.02396,-0.021214 0.0082,-0.00683 0.01615,-0.014365 0.02109,-0.023836 0.0053,-0.010224 0.0068,-0.022109 0.0061,-0.033616 -7.06e-4,-0.011508 -0.0035,-0.022776 -0.0062,-0.033974 -0.0027,-0.011197 -0.0055,-0.022473 -0.0062,-0.033984 -6.61e-4,-0.011511 8.78e-4,-0.023392 0.0063,-0.033574 0.005,-0.00943 0.01302,-0.016882 0.02124,-0.02369 0.0082,-0.00681 0.01688,-0.013232 0.02381,-0.02136 0.01256,-0.014742 0.01854,-0.03426 0.01963,-0.053594 0.0011,-0.019334 -0.0024,-0.038644 -0.0069,-0.057476 -0.0045,-0.018832 -0.0101,-0.037433 -0.01338,-0.056519 -0.0033,-0.019086 -0.0042,-0.038902 6.21e-4,-0.057659 0.0042,-0.016309 0.01254,-0.03121 0.02121,-0.045643 0.0087,-0.014433 0.01781,-0.028732 0.02384,-0.044456 0.0082,-0.021314 0.0103,-0.044555 0.0092,-0.067355 -0.0011,-0.0228 -0.0052,-0.045329 -0.0092,-0.067793 -0.03758,-0.2091253 -0.06588,-0.428689 0,-0.6306931 0.01473,-0.045169 0.03405,-0.08893 0.04505,-0.1351485 0.02793,-0.1172952 4.6e-4,-0.2398233 0,-0.3603961 -2.88e-4,-0.07546 0.01007,-0.150506 0.01532,-0.225784 0.0052,-0.075278 0.0052,-0.1520967 -0.01532,-0.224711 -0.01292,-0.045717 -0.03377,-0.088999 -0.04505,-0.1351485 -0.01362,-0.055743 -0.01288,-0.114148 -0.0059,-0.1711023 0.007,-0.056954 0.02015,-0.1129434 0.03117,-0.1692601 0.01102,-0.056317 0.01995,-0.1134463 0.01836,-0.1708086 -0.0016,-0.057362 -0.01417,-0.1153498 -0.04367,-0.1645716 -0.0229,-0.038216 -0.05508,-0.06986 -0.08264,-0.1048634 -0.01378,-0.017502 -0.02649,-0.035984 -0.03604,-0.056112 -0.0095,-0.020128 -0.01587,-0.042003 -0.01646,-0.064272 -8.24e-4,-0.030898 0.0093,-0.060904 0.01446,-0.091373 0.0026,-0.015235 0.004,-0.030807 0.0021,-0.046151 -0.0018,-0.015344 -0.0071,-0.030517 -0.0166,-0.042674 -0.01355,-0.017267 -0.03428,-0.026923 -0.05266,-0.038922 -0.0092,-0.006 -0.01801,-0.012782 -0.02493,-0.021298 -0.0069,-0.00852 -0.01188,-0.018921 -0.0125,-0.029878 -4.34e-4,-0.00758 0.0012,-0.015112 0.0021,-0.022653 9.14e-4,-0.00754 0.0011,-0.015491 -0.0021,-0.022396 -0.0023,-0.00495 -0.0061,-0.00904 -0.0104,-0.012399 -0.0043,-0.00336 -0.009,-0.00606 -0.01369,-0.0089 -0.0046,-0.00284 -0.0093,-0.00585 -0.01309,-0.00972 -0.0038,-0.00387 -0.0069,-0.00868 -0.0079,-0.014041 -6.97e-4,-0.00383 -3.11e-4,-0.00778 4.7e-4,-0.011599 7.82e-4,-0.00381 0.002,-0.00754 0.0028,-0.011327 8.93e-4,-0.00379 0.0015,-0.00769 0.0012,-0.011571 -3.58e-4,-0.00388 -0.0018,-0.00775 -0.0045,-0.010552 -0.0027,-0.00281 -0.0066,-0.00435 -0.01044,-0.00481 -0.0039,-4.621e-4 -0.0078,7.87e-5 -0.01163,9.454e-4 -0.0038,8.667e-4 -0.0075,0.00206 -0.01135,0.00292 -0.0038,8.664e-4 -0.0077,0.00141 -0.01163,9.433e-4 -0.0044,-5.289e-4 -0.0087,-0.00237 -0.01224,-0.00504 -0.0036,-0.00267 -0.0065,-0.00615 -0.0088,-0.00999 -0.0046,-0.00768 -0.0064,-0.01663 -0.0076,-0.025481 -0.0012,-0.00885 -0.0017,-0.017818 -0.0037,-0.026496 -0.0021,-0.00868 -0.006,-0.017232 -0.01268,-0.023096 -0.0058,-0.0051 -0.0135,-0.00781 -0.02121,-0.00866 -0.0077,-8.417e-4 -0.01551,8.98e-5 -0.02311,0.00161 -0.01521,0.00305 -0.03034,0.0085 -0.04578,0.00704 -0.01095,-0.00103 -0.02139,-0.00555 -0.03034,-0.011938 -0.009,-0.00638 -0.01649,-0.014576 -0.02309,-0.023371 -0.0132,-0.01759 -0.02282,-0.037708 -0.03667,-0.05479 -0.01715,-0.021162 -0.04011,-0.036837 -0.06379,-0.050305 -0.02368,-0.013468 -0.04844,-0.025061 -0.07136,-0.039794 -0.07229,-0.046485 -0.121231,-0.1205809 -0.171734,-0.1901245 -0.02525,-0.034772 -0.05151,-0.069037 -0.08227,-0.099052 -0.03075,-0.030015 -0.06628,-0.0558 -0.106393,-0.07122 -0.04443,-0.017082 -0.09388,-0.021312 -0.135149,-0.045049 -0.03707,-0.021322 -0.0639,-0.056301 -0.0901,-0.090099 -0.04548,-0.058678 -0.0928,-0.1172046 -0.152559,-0.1612549 -0.05976,-0.04405 -0.134111,-0.072739 -0.207837,-0.063993 -0.01515,0.0018 -0.0301,0.00514 -0.04531,0.00635 -0.01521,0.00122 -0.03101,1.815e-4 -0.04479,-0.00635 -0.0097,-0.0046 -0.01801,-0.011739 -0.02522,-0.019689 -0.0072,-0.00795 -0.01342,-0.016744 -0.01983,-0.025361 -0.04774,-0.064243 -0.107623,-0.119864 -0.17702,-0.1597483 -0.0694,-0.039884 -0.148404,-0.063751 -0.228426,-0.065499 -0.07528,-0.00164 -0.151646,0.0159 -0.225248,0 -0.04645,-0.010035 -0.08919,-0.032946 -0.135148,-0.045049 -0.08758,-0.023065 -0.179902,-0.00561 -0.270297,0 -0.180085,0.011175 -0.361957,-0.025382 -0.540594,0 -0.07583,0.010774 -0.149686,0.03256 -0.225248,0.045049 -0.222606,0.036792 -0.450264,-0.00816 -0.675742,0 -0.112876,0.00409 -0.224879,0.020716 -0.337328,0.031341 -0.112448,0.010625 -0.225465,0.013708 -0.338415,0.013708 l -0.2702969,0 c -0.045485,0 -0.090885,-0.00339 -0.1360405,-0.00886 -0.022578,-0.00273 -0.045251,-0.00536 -0.067991,-0.00498 -0.02274,3.843e-4 -0.045778,0.00396 -0.066266,0.013835 -0.022739,0.010959 -0.041254,0.029169 -0.056856,0.049011 -0.015602,0.019843 -0.028679,0.041535 -0.043458,0.061998 -0.014779,0.020463 -0.031589,0.039981 -0.052819,0.053637 -0.021229,0.013656 -0.047462,0.020977 -0.072114,0.015552 -0.01613,-0.00355 -0.030783,-0.012266 -0.04695,-0.015642 -0.00808,-0.00169 -0.01661,-0.00198 -0.024509,4.26e-4 -0.0079,0.00241 -0.015109,0.00775 -0.01864,0.015216 -0.00325,0.00687 -0.00318,0.014838 -0.00228,0.022387 9.009e-4,0.00755 0.00257,0.015065 0.00228,0.022663 -3.219e-4,0.00846 -0.0031,0.016737 -0.00745,0.024001 -0.00435,0.00726 -0.010226,0.013542 -0.016828,0.018838 -0.013205,0.010593 -0.029072,0.017216 -0.044653,0.023837 -0.015581,0.00662 -0.031368,0.013534 -0.044207,0.024568 -0.00642,0.00552 -0.012037,0.012048 -0.016008,0.019523 -0.00397,0.00747 -0.00626,0.015921 -0.00601,0.024382 2.283e-4,0.00769 0.00251,0.015165 0.00358,0.022786 5.375e-4,0.00381 7.722e-4,0.00769 2.934e-4,0.011507 -4.788e-4,0.00382 -0.0017,0.00759 -0.00388,0.010757 -0.00238,0.00346 -0.00586,0.00611 -0.00975,0.0077 -0.00389,0.00159 -0.00816,0.00215 -0.012349,0.00185 -0.00838,-6.022e-4 -0.0162,-0.00455 -0.022951,-0.00955 -0.019161,-0.01418 -0.030848,-0.036912 -0.035063,-0.060374 -0.00422,-0.023462 -0.00154,-0.04769 0.00382,-0.070918 0.010713,-0.046457 0.032153,-0.091337 0.031243,-0.1390044 -5.454e-4,-0.028584 -0.00943,-0.056959 -0.025291,-0.080746 -0.015858,-0.023787 -0.038633,-0.042905 -0.064808,-0.054402 -0.022966,-0.012473 -0.040918,-0.033895 -0.049183,-0.058688 -0.00826,-0.024793 -0.00676,-0.052702 0.00413,-0.07646 0.00352,-0.00767 0.00802,-0.015096 0.00934,-0.023434 6.574e-4,-0.00417 4.672e-4,-0.00853 -0.00105,-0.012473 -0.00152,-0.00394 -0.00444,-0.00742 -0.00829,-0.00914 -0.0036,-0.00162 -0.00774,-0.00163 -0.011621,-8.85e-4 -0.00388,7.405e-4 -0.00758,0.00219 -0.011325,0.00342 -0.00375,0.00123 -0.00764,0.00226 -0.011586,0.00211 -0.00197,-7.42e-5 -0.00394,-4.472e-4 -0.00576,-0.00121 -0.00182,-7.606e-4 -0.00349,-0.00192 -0.00476,-0.00343 -0.00127,-0.00152 -0.00212,-0.00338 -0.00256,-0.00531 -4.4e-4,-0.00193 -4.854e-4,-0.00395 -2.664e-4,-0.00592 4.38e-4,-0.00394 0.00191,-0.00769 0.00332,-0.011391 0.00141,-0.00371 0.0028,-0.00749 0.00306,-0.011451 1.301e-4,-0.00198 -2.88e-5,-0.00399 -5.984e-4,-0.00589 -5.695e-4,-0.0019 -0.00156,-0.00369 -0.00296,-0.00509 -0.0014,-0.0014 -0.0032,-0.00239 -0.0051,-0.00295 -0.0019,-5.658e-4 -0.00391,-7.208e-4 -0.00589,-5.872e-4 -0.00396,2.672e-4 -0.00774,0.00166 -0.011449,0.00308 -0.00371,0.00142 -0.00745,0.00289 -0.011394,0.00332 -0.00197,2.161e-4 -0.00398,1.665e-4 -0.00592,-2.792e-4 -0.00193,-4.457e-4 -0.00379,-0.0013 -0.0053,-0.00258 -0.00151,-0.00127 -0.00266,-0.00295 -0.00341,-0.00477 -7.505e-4,-0.00182 -0.00111,-0.0038 -0.00117,-0.00577 -1.261e-4,-0.00394 9.198e-4,-0.00783 0.00216,-0.011577 0.00124,-0.00375 0.00269,-0.00745 0.00341,-0.011325 7.246e-4,-0.00388 6.778e-4,-0.00803 -9.913e-4,-0.011606 -0.00177,-0.0038 -0.00528,-0.00664 -0.00922,-0.00808 -0.00394,-0.00144 -0.00827,-0.00156 -0.012405,-8.758e-4 -0.00827,0.00137 -0.01566,0.00579 -0.023426,0.00895 -0.017958,0.0073 -0.03896,0.00764 -0.056525,-5.611e-4 -0.00878,-0.0041 -0.016623,-0.01026 -0.022519,-0.017954 -0.0059,-0.00769 -0.00982,-0.01692 -0.011055,-0.026534 -0.00192,-0.014928 0.00255,-0.030216 0,-0.04505 -0.00239,-0.013899 -0.010875,-0.026243 -0.021651,-0.03534 -0.010776,-0.0091 -0.023743,-0.015227 -0.03696,-0.020144 -0.013217,-0.00492 -0.026831,-0.00872 -0.039999,-0.013767 -0.013168,-0.00505 -0.026034,-0.01144 -0.036539,-0.020848 -0.00795,-0.00712 -0.014349,-0.015782 -0.021202,-0.023971 -0.00685,-0.00819 -0.014398,-0.016104 -0.023848,-0.021078 -0.013504,-0.00711 -0.029552,-0.00751 -0.044715,-0.0058 -0.015164,0.00171 -0.030129,0.00537 -0.045384,0.0058 -0.034126,9.579e-4 -0.066698,-0.014286 -0.0953,-0.032925 -0.028602,-0.01864 -0.054818,-0.041026 -0.084898,-0.057173 -0.068907,-0.036992 -0.1563409,-0.036992 -0.2252476,0 -0.011994,-0.025826 -0.031219,-0.048248 -0.054912,-0.064043 -0.023693,-0.015795 -0.051784,-0.024917 -0.080237,-0.026056 -0.030092,-0.0012 -0.060645,0.00628 -0.090099,0 -0.016489,-0.00352 -0.031785,-0.011207 -0.046341,-0.019714 -0.014556,-0.00851 -0.028616,-0.01792 -0.043758,-0.025335 -0.034242,-0.01677 -0.072998,-0.022742 -0.1111236,-0.022328 -0.038126,4.149e-4 -0.0759,0.00697 -0.113339,0.014193 -0.037439,0.00722 -0.074852,0.01513 -0.1128483,0.018304 -0.037996,0.00317 -0.076879,0.00148 -0.1131841,-0.01017 C 7.1308415,1.4837625 7.1017748,1.4660888 7.0727864,1.4489951 6.9764837,1.392208 6.8757973,1.3395485 6.7665214,1.3159315 6.6572455,1.2923144 6.5373535,1.3003769 6.4420934,1.3588961 c -0.014427,0.00886 -0.028188,0.018799 -0.042861,0.027249 -0.014673,0.00845 -0.030469,0.015456 -0.047238,0.0178 -0.014925,0.00209 -0.030083,4.194e-4 -0.045092,-9.369e-4 -0.015009,-0.00136 -0.030308,-0.00238 -0.045007,9.369e-4 -0.016449,0.00371 -0.031182,0.012645 -0.045414,0.021692 -0.014232,0.00905 -0.028547,0.018466 -0.044685,0.023357 -0.021694,0.00657 -0.044967,0.00447 -0.067469,0.00173 -0.022502,-0.00274 -0.045427,-0.00605 -0.06768,-0.00173 -0.016743,0.00325 -0.032421,0.010725 -0.046863,0.019798 -0.014442,0.00907 -0.027786,0.019762 -0.041366,0.030081 -0.01358,0.010319 -0.027507,0.02034 -0.042803,0.027886 -0.015295,0.00755 -0.032113,0.012566 -0.049167,0.012334 -0.00755,-1.028e-4 -0.015053,-0.00123 -0.022588,-0.00176 -0.00754,-5.358e-4 -0.015243,-4.623e-4 -0.022461,0.00176 -0.010342,0.00319 -0.018916,0.010571 -0.025878,0.018857 -0.00696,0.00829 -0.012598,0.017595 -0.019172,0.026192 -0.015611,0.020415 -0.036449,0.036604 -0.059529,0.047908 -0.02308,0.011305 -0.048363,0.017808 -0.073931,0.020405 -0.051136,0.00519 -0.1026409,-0.00505 -0.1520033,-0.019378 -0.049362,-0.014326 -0.097544,-0.032781 -0.1475536,-0.044652 -0.050009,-0.011871 -0.1028175,-0.016971 -0.1526264,-0.00428 -0.046112,0.011745 -0.088049,0.038279 -0.1351485,0.04505 -0.04467,0.00642 -0.090357,-0.00552 -0.1351485,0 -0.040335,0.00497 -0.077506,0.023742 -0.1133535,0.042886 -0.035848,0.019144 -0.072047,0.039228 -0.111894,0.047213 -0.036943,0.0074 -0.075095,0.00401 -0.1126031,4.348e-4 -0.037508,-0.00357 -0.075591,-0.00727 -0.1126445,-4.348e-4 -0.039929,0.00736 -0.076541,0.026546 -0.1125107,0.04538 -0.035969,0.018834 -0.072726,0.037818 -0.1127368,0.044719 -0.03141,0.00542 -0.063642,0.00316 -0.095333,0.00657 -0.015846,0.00171 -0.031643,0.00486 -0.046376,0.010942 -0.014733,0.00608 -0.028407,0.015192 -0.038489,0.027535 -0.010666,0.013059 -0.016894,0.029093 -0.02284,0.044871 -0.00595,0.015779 -0.011923,0.031868 -0.02221,0.045228 -0.015005,0.019487 -0.038081,0.031492 -0.061908,0.037588 -0.023827,0.0061 -0.048654,0.00683 -0.07324,0.00746 -0.1114033,0.00288 -0.22665,0.00538 -0.3276063,0.052565 -0.050478,0.023595 -0.096398,0.058553 -0.1279854,0.1044545 -0.031588,0.045902 -0.047995,0.1031902 -0.039953,0.1583271 0.0011,0.00754 0.00264,0.015027 0.00314,0.022629 4.943e-4,0.0076 -1.081e-4,0.01543 -0.00314,0.02242 -0.00426,0.00984 -0.012837,0.017056 -0.02141,0.023491 -0.00857,0.00644 -0.017642,0.012674 -0.02364,0.021559 -0.00648,0.0096 -0.00877,0.021557 -0.00843,0.033138 3.439e-4,0.011581 0.00315,0.022935 0.00613,0.03413 0.00298,0.011195 0.00617,0.022408 0.0073,0.033938 0.00114,0.01153 1.042e-4,0.023545 -0.00501,0.033942 -0.00472,0.00959 -0.012593,0.017248 -0.020808,0.02409 -0.00822,0.00684 -0.016969,0.013122 -0.024241,0.020959 -0.015868,0.017101 -0.023546,0.040626 -0.024938,0.063913 -0.00139,0.023287 0.00304,0.046537 0.0088,0.069143 0.00576,0.022606 0.012882,0.044902 0.017051,0.067855 0.00417,0.022953 0.0053,0.046899 -9.11e-4,0.069386 -0.00896,0.032445 -0.032205,0.058988 -0.04505,0.090099 -0.011626,0.028161 -0.014367,0.059321 -0.012698,0.089742 0.00167,0.030421 0.00758,0.060422 0.012698,0.090456 0.032928,0.1933596 0.032928,0.3922839 0,0.5856435 l -0.045049,0.1351486 c -0.010736,0.00289 -0.020688,0.00864 -0.028549,0.016501 -0.00786,0.00786 -0.013613,0.017813 -0.016501,0.028549 -0.00392,0.014578 -0.00256,0.029999 -8.788e-4,0.045 0.00168,0.015002 0.00365,0.03026 8.788e-4,0.045099 -0.0031,0.016591 -0.011904,0.031499 -0.021017,0.045705 -0.00911,0.014207 -0.018802,0.028347 -0.024033,0.044394 -0.00467,0.014314 -0.00558,0.029696 -0.00385,0.044651 0.00173,0.014955 0.00606,0.02952 0.011651,0.0435 0.011177,0.027959 0.027344,0.053658 0.039424,0.081239 0.012081,0.027581 0.020058,0.058374 0.01356,0.087775 -0.00325,0.014701 -0.010197,0.028729 -0.020798,0.039419 -0.010602,0.010689 -0.024959,0.017859 -0.039987,0.018763 -0.00753,4.529e-4 -0.015062,-6.294e-4 -0.02258,-0.00128 -0.00752,-6.531e-4 -0.015232,-8.592e-4 -0.022469,0.00128 -0.01037,0.00307 -0.018807,0.010683 -0.025635,0.019069 -0.00683,0.00839 -0.012419,0.017734 -0.019415,0.02598 -0.01149,0.013543 -0.026604,0.023819 -0.043058,0.030508 -0.016453,0.00669 -0.034222,0.00986 -0.051976,0.010353 -0.035508,9.784e-4 -0.070439,-0.00859 -0.104135,-0.019831 -0.033696,-0.011243 -0.066995,-0.024301 -0.1019333,-0.030716 -0.034938,-0.00642 -0.072341,-0.00573 -0.1043433,0.00969 -0.015277,0.00736 -0.028816,0.017805 -0.043147,0.02687 -0.01433,0.00907 -0.030041,0.016936 -0.046952,0.01818 -0.015293,0.00112 -0.030377,-0.00323 -0.045516,-0.00567 -0.00757,-0.00122 -0.015267,-0.00196 -0.022905,-0.0013 -0.00764,6.656e-4 -0.015248,0.0028 -0.021679,0.00697 -0.00902,0.00586 -0.015058,0.01519 -0.021345,0.023914 -0.00314,0.00436 -0.00643,0.00865 -0.010294,0.012389 -0.00387,0.00374 -0.00835,0.00692 -0.01341,0.00875 -0.00711,0.00257 -0.014918,0.00235 -0.022443,0.00157 -0.00752,-7.821e-4 -0.01506,-0.00209 -0.022607,-0.00157 -0.00837,5.792e-4 -0.016505,0.00343 -0.023704,0.00773 -0.0072,0.00431 -0.013484,0.01004 -0.018866,0.016474 -0.010764,0.012868 -0.017865,0.02833 -0.024859,0.043579 -0.00699,0.015249 -0.014139,0.030697 -0.024972,0.043507 -0.00542,0.00641 -0.011741,0.012099 -0.018974,0.016347 -0.00723,0.00425 -0.015399,0.00702 -0.023773,0.00751 -0.00756,4.426e-4 -0.01509,-9.58e-4 -0.02262,-0.00177 -0.00753,-8.081e-4 -0.015373,-9.856e-4 -0.022429,0.00177 -0.00811,0.00316 -0.014403,0.00997 -0.018472,0.01766 -0.00407,0.00769 -0.00613,0.016274 -0.00777,0.024821 -0.00164,0.00855 -0.00291,0.0172 -0.00554,0.025493 -0.00264,0.00829 -0.00677,0.016327 -0.013263,0.022125 -0.00438,0.00391 -0.00972,0.00669 -0.015349,0.00836 -0.00563,0.00167 -0.011553,0.00226 -0.017424,0.00206 -0.011741,-3.83e-4 -0.023151,-0.00382 -0.034317,-0.00747 -0.011166,-0.00365 -0.022352,-0.00757 -0.034013,-0.00899 -0.011662,-0.00142 -0.024043,-1.299e-4 -0.034045,0.00603 -0.00913,0.00562 -0.015462,0.014707 -0.021829,0.023334 -0.00637,0.00863 -0.013422,0.017361 -0.023221,0.021715 -0.00703,0.00312 -0.014969,0.00372 -0.022629,0.003 -0.00766,-7.184e-4 -0.015138,-0.00269 -0.022608,-0.00453 -0.00747,-0.00184 -0.015035,-0.00356 -0.022726,-0.00375 -0.00769,-1.944e-4 -0.015595,0.00123 -0.022135,0.00528 -0.00739,0.00458 -0.012501,0.012175 -0.015685,0.020261 -0.00318,0.00809 -0.00462,0.016732 -0.00612,0.025293 -0.0015,0.00856 -0.00309,0.017196 -0.00656,0.025167 -0.00346,0.00797 -0.009,0.015327 -0.016688,0.019378 -0.00678,0.00357 -0.014735,0.00434 -0.022378,0.00376 -0.00764,-5.766e-4 -0.015126,-0.00241 -0.022671,-0.00376 -0.046607,-0.00833 -0.095932,0.00248 -0.1361069,0.027534 -0.040175,0.025052 -0.071193,0.063802 -0.089141,0.1076143 -0.00643,0.015687 -0.011241,0.031998 -0.017753,0.047649 -0.00651,0.015651 -0.014918,0.030868 -0.027296,0.04245 -0.017543,0.016416 -0.041455,0.024113 -0.064976,0.029013 -0.023521,0.0049 -0.047695,0.00755 -0.070172,0.016037 -0.036322,0.013717 -0.065756,0.041991 -0.087082,0.074436 -0.021326,0.032445 -0.035287,0.0691 -0.048067,0.1057617 -0.00765,0.021938 -0.015197,0.044495 -0.029646,0.062688 -0.00722,0.0091 -0.01616,0.016968 -0.026594,0.022075 -0.010433,0.00511 -0.022417,0.00734 -0.033859,0.00534 -0.00782,-0.00137 -0.015216,-0.00465 -0.023052,-0.00593 -0.00392,-6.391e-4 -0.00796,-7.652e-4 -0.011835,1.116e-4 -0.00387,8.767e-4 -0.00757,0.00281 -0.010162,0.00582 -0.00253,0.00294 -0.00389,0.00675 -0.00433,0.010605 -4.377e-4,0.00385 0,0.00775 7.402e-4,0.011559 0.00148,0.00761 0.00418,0.015156 0.00359,0.022886 -4.221e-4,0.00551 -0.00254,0.010816 -0.00561,0.01541 -0.00307,0.00459 -0.00708,0.00851 -0.011444,0.0119 -0.00873,0.00678 -0.018855,0.011523 -0.027997,0.017739 -0.014504,0.00986 -0.026424,0.02349 -0.034268,0.039178 -0.007844,0.015688 -0.0115942,0.0334 -0.0107816,0.050921 -0.008257,-0.00644 -0.0183594,-0.010483 -0.0287786,-0.011521 -0.0104192,-0.00104 -0.0211209,9.332e-4 -0.0304862,0.00562 -0.009365,0.00468 -0.0173634,0.012061 -0.0227843,0.02102 -0.005421,0.00896 -0.008247,0.019467 -0.00805,0.029936 1.4305e-4,0.00761 0.001838,0.0151 0.002646,0.022669 8.0806e-4,0.00757 6.6162e-4,0.015525 -0.002646,0.022381 -0.001913,0.00397 -0.004828,0.00741 -0.008256,0.010172 -0.003429,0.00276 -0.007364,0.00486 -0.0114779,0.00643 -0.008229,0.00314 -0.0170816,0.00417 -0.025821,0.00525 -0.008739,0.00108 -0.0175921,0.00226 -0.0257107,0.00567 -0.004059,0.00171 -0.007908,0.00397 -0.0111931,0.0069 -0.003285,0.00293 -0.005997,0.00655 -0.00764,0.010632 -0.002827,0.00703 -0.002349,0.014921 -0.001369,0.022435 9.8028e-4,0.00751 0.00242,0.01511 0.001369,0.022614 -0.001535,0.010959 -0.008321,0.020636 -0.0167183,0.027843 -0.008398,0.00721 -0.0183805,0.012271 -0.0282594,0.017258 -0.009879,0.00499 -0.0198671,0.010037 -0.0282848,0.01722 -0.008418,0.00718 -0.0152413,0.016827 -0.0168365,0.027778 -0.001178,0.00809 5.4433e-4,0.016339 0.003138,0.02409 0.002594,0.00775 0.006059,0.015193 0.008534,0.022983 0.002475,0.00779 0.003945,0.01612 0.002396,0.024145 -7.7449e-4,0.00401 -0.002312,0.0079 -0.004689,0.011226 -0.002378,0.00332 -0.005613,0.00607 -0.009379,0.00765 -0.003508,0.00148 -0.007381,0.00193 -0.0111856,0.00181 -0.003805,-1.206e-4 -0.007568,-7.948e-4 -0.0113097,-0.00149 -0.003742,-6.987e-4 -0.007492,-0.00143 -0.0112912,-0.00165 -0.0038,-2.277e-4 -0.007678,5.84e-5 -0.011263,0.00134 -0.003908,0.00139 -0.007364,0.00395 -0.0100113,0.00714 -0.002648,0.00319 -0.004501,0.00701 -0.005583,0.011017 -0.002164,0.00801 -0.001254,0.016578 9.5411e-4,0.024577 0.002208,0.008 0.005666,0.015584 0.008678,0.023315 0.003012,0.00773 0.005609,0.015759 0.005962,0.024049 6.1973e-4,0.014554 -0.0059,0.02884 -0.0157776,0.039547 -0.009877,0.010707 -0.0228752,0.018124 -0.036433,0.023453 -0.0271156,0.010657 -0.0571157,0.013607 -0.082938,0.027099 -0.0161678,0.00845 -0.0303844,0.021127 -0.0390689,0.037169 -0.008685,0.016042 -0.0114841,0.035538 -0.005981,0.05293 0.002482,0.00784 0.006576,0.015212 0.007966,0.023322 6.9477e-4,0.00406 6.8062e-4,0.00829 -5.6769e-4,0.012211 -0.001248,0.00392 -0.003811,0.0075 -0.007398,0.00952 -0.003391,0.0019 -0.007457,0.0023 -0.0113231,0.00188 -0.003866,-4.204e-4 -0.0076,-0.00161 -0.0113265,-0.00272 -0.003726,-0.00111 -0.007518,-0.00216 -0.0114047,-0.00229 -0.003887,-1.299e-4 -0.007926,7.393e-4 -0.0109953,0.00313 -0.003123,0.00243 -0.004973,0.00624 -0.0056,0.010152 -6.2691e-4,0.00391 -1.2592e-4,0.00792 7.8543e-4,0.011769 9.1136e-4,0.00385 0.002228,0.00759 0.003264,0.011413 0.001036,0.00382 0.001795,0.00777 0.001551,0.011716 -3.3851e-4,0.00549 -0.002624,0.010746 -0.005892,0.015171 -0.003268,0.00442 -0.007487,0.00807 -0.0119715,0.011256 -0.00897,0.00637 -0.0191772,0.011081 -0.0271862,0.018623 -0.0113909,0.010727 -0.0172597,0.02638 -0.0185596,0.041973 -0.0013,0.015593 0.001598,0.031242 0.005576,0.046375 0.003978,0.015132 0.009048,0.029988 0.0122366,0.045306 0.003188,0.015318 0.004446,0.031341 7.4698e-4,0.046544 -0.005234,0.021513 -0.0200419,0.039685 -0.0374747,0.053333 -0.0174329,0.013648 -0.0375448,0.023363 -0.0572695,0.033419 -0.0197247,0.010056 -0.0394759,0.020732 -0.0556178,0.035885 -0.0161419,0.015153 -0.0285196,0.03546 -0.029836,0.057561 -8.9556e-4,0.015035 0.003283,0.03035 0,0.04505 -0.002366,0.010591 -0.008507,0.02006 -0.0160983,0.027816 -0.007591,0.00776 -0.0166166,0.013945 -0.0257622,0.019787 -0.009146,0.00584 -0.0185025,0.011409 -0.0270211,0.018132 -0.008519,0.00672 -0.0162486,0.014716 -0.0212174,0.024364 -0.005241,0.010176 -0.007195,0.021802 -0.007162,0.033248 3.278e-5,0.011446 0.001973,0.022797 0.004158,0.034033 0.002185,0.011236 0.004625,0.022452 0.005677,0.03385 0.001052,0.011398 6.789e-4,0.023072 -0.002674,0.034016 -0.003158,0.01031 -0.00889,0.019711 -0.01586,0.027938 -0.00697,0.00823 -0.0151699,0.015333 -0.0237093,0.021916 C 0.07851412,7.0531072 0.05980475,7.0644456 0.04506325,7.0801855 0.02191909,7.1048972 0.01061837,7.1381186 -3.2744308e-5,7.170257 -0.01068385,7.2023953 -0.02194468,7.2356223 -0.04503577,7.2603836 c -0.01452063,0.015571 -0.03331213,0.027287 -0.0450495,0.04505 -0.01328839,0.020111 -0.01578305,0.045188 -0.01914887,0.069056 -0.001683,0.011934 -0.00369,0.023889 -0.007579,0.035297 -0.003889,0.011407 -0.009755,0.022318 -0.0183217,0.030796 -0.007703,0.00762 -0.0172832,0.013018 -0.0259062,0.019583 -0.004311,0.00328 -0.008415,0.00689 -0.0118138,0.011109 -0.003399,0.00422 -0.006085,0.00908 -0.00733,0.014359 -0.0019,0.00805 -3.4669e-4,0.016554 0.002351,0.024375 0.002698,0.00782 0.006515,0.015214 0.009337,0.022992 0.002821,0.00778 0.004641,0.01619 0.003126,0.024324 -7.5756e-4,0.00407 -0.002362,0.00801 -0.004884,0.011284 -0.002522,0.00328 -0.005985,0.00587 -0.009929,0.00712 -0.003681,0.00117 -0.007649,0.00114 -0.0114699,5.785e-4 -0.00382,-5.6e-4 -0.007543,-0.00164 -0.0112954,-0.00255 -0.003753,-9.096e-4 -0.007585,-0.00166 -0.0114447,-0.00154 -0.00386,1.148e-4 -0.007782,0.00115 -0.0108395,0.00351 -0.003158,0.00244 -0.005191,0.00614 -0.006072,0.010033 -8.8106e-4,0.00389 -6.7906e-4,0.00796 4.537e-5,0.011883 0.001449,0.00784 0.00494,0.015232 0.006027,0.023134 0.001169,0.0085 -5.3332e-4,0.017231 -0.003803,0.025169 -0.003269,0.00794 -0.008056,0.015161 -0.0132125,0.022024 -0.0103128,0.013726 -0.0224649,0.026666 -0.0280343,0.042906 -0.00372,0.010847 -0.004245,0.022574 -0.003203,0.033994 0.001042,0.011419 0.003603,0.022636 0.005931,0.033864 0.002328,0.011228 0.004436,0.022575 0.00455,0.034041 1.1402e-4,0.011466 -0.001857,0.023146 -0.007279,0.03325 -0.005048,0.00941 -0.0128361,0.017041 -0.0209608,0.023969 -0.008125,0.00693 -0.0167385,0.013337 -0.0240887,0.021081 -0.0187518,0.019756 -0.0280196,0.047134 -0.0298836,0.074309 -0.001864,0.027175 0.003128,0.054367 0.009785,0.08078 0.006657,0.026413 0.0150056,0.052429 0.0200644,0.079194 0.005059,0.026765 0.00674,0.054663 3.432e-5,0.081064 -0.008295,0.032659 -0.0286687,0.060652 -0.0450495,0.090099 -0.0450996,0.081073 -0.060683,0.1762387 -0.0563677,0.2689113 0.004315,0.092673 0.0276315,0.1834724 0.0563677,0.2716827 0.0147091,0.045152 0.0308675,0.089828 0.0450495,0.1351486 0.0138625,0.044299 0.0258961,0.0896 0.0283765,0.1359508 0.00248,0.046351 -0.005118,0.094176 -0.0283765,0.1343462 -0.0125497,0.021675 -0.0293879,0.040751 -0.0406939,0.0631 -0.005653,0.011174 -0.00989,0.023199 -0.0111057,0.035663 -0.001216,0.012464 7.1962e-4,0.025411 0.00675,0.036386 0.005139,0.00935 0.0129845,0.016912 0.0211181,0.023821 0.008134,0.00691 0.0167174,0.013364 0.0239314,0.021229 0.0107331,0.011701 0.0181218,0.026274 0.0222208,0.041614 0.004099,0.01534 0.004981,0.031436 0.003622,0.047256 -0.002718,0.031639 -0.0141785,0.061792 -0.0258426,0.091328 -0.0176131,0.0446 -0.0361529,0.089688 -0.0408655,0.1374083 -0.002356,0.02386 -0.001152,0.048229 0.005317,0.071316 0.006469,0.023087 0.0183496,0.044868 0.0355489,0.061573 0.007664,0.00744 0.0162884,0.013817 0.0243581,0.020818 0.00807,0.007 0.0157,0.014786 0.0206914,0.024231 0.005349,0.010122 0.007415,0.021735 0.007467,0.033183 5.189e-5,0.011448 -0.00183,0.022814 -0.003996,0.034056 -0.002166,0.011242 -0.004625,0.022454 -0.005751,0.033847 -0.001126,0.01139 -8.8444e-4,0.02306 0.00228,0.03406 0.003064,0.01065 0.008872,0.0205 0.0167094,0.02834 0.007838,0.0078 0.017688,0.01365 0.0283401,0.01671 -0.008074,0.02931 -0.008074,0.06079 0,0.0901 0.0117038,0.04248 0.039286,0.07853 0.0665552,0.11315 0.0272692,0.03462 0.0554136,0.07005 0.0685933,0.112097 0.0093592,0.02986 0.01066123,0.06153 0.01465465,0.09257 0.0039934,0.03104 0.01125917,0.06287 0.03039485,0.08763 0.01308758,0.01693 0.03088445,0.02946 0.04770552,0.04269 0.01682107,0.01323 0.03336694,0.028 0.0423935,0.04741 0.009619,0.02068 0.0096868,0.0445 0.0071664,0.06717 -0.0025204,0.02267 -0.0074451,0.04517 -0.0071664,0.06798 3.3841e-4,0.02769 0.0084249,0.05494 0.0208942,0.07967 0.0124693,0.02473 0.02923344,0.04708 0.04750338,0.06789 0.0365399,0.04162 0.0794898,0.07775 0.11180044,0.122737 0.0588939,0.082 0.0780214,0.187056 0.13514851,0.270297 0.0241696,0.03522 0.0548814,0.06593 0.090099,0.0901 -0.005762,0.02433 -0.004605,0.05026 0.003302,0.07398 0.007907,0.02372 0.0225389,0.04516 0.0417471,0.06117 0.00827,0.0069 0.0173403,0.01278 0.0255481,0.01974 0.008208,0.007 0.0156775,0.01524 0.0195014,0.02531 0.0027,0.0071 0.00347,0.01483 0.003193,0.02242 -2.7739e-4,0.0076 -0.001573,0.01511 -0.00289,0.0226 -0.001318,0.0075 -0.002663,0.01499 -0.003043,0.02258 -3.7979e-4,0.0076 2.3261e-4,0.01532 0.00274,0.02249 0.003602,0.01031 0.0109448,0.01897 0.0193909,0.02589 0.008446,0.0069 0.0180316,0.01228 0.0274664,0.01778 0.009435,0.0055 0.0188528,0.01122 0.026784,0.01872 0.007931,0.0075 0.0143586,0.017 0.0164578,0.02771 0.001448,0.0074 7.9577e-4,0.01502 1.0324e-4,0.02252 -6.9253e-4,0.0075 -0.001416,0.01511 -1.0324e-4,0.02253 0.00226,0.01277 0.0105607,0.024 0.0211766,0.03145 0.0106159,0.0075 0.0233861,0.01138 0.0362429,0.01309 0.0257136,0.0034 0.0518802,-0.0017 0.077729,5.06e-4 0.0251646,0.0021 0.049518,0.01112 0.0709337,0.0245 0.0214157,0.01338 0.0399714,0.03104 0.0557724,0.05074 0.031602,0.0394 0.0520553,0.08634 0.0726316,0.132463 0.0205762,0.04612 0.0420906,0.09275 0.0753149,0.130787 0.016612,0.01902 0.036103,0.03571 0.058317,0.04772 0.022214,0.01201 0.047224,0.01923 0.072476,0.01923 0.015045,-4e-6 0.030218,-0.0025 0.045049,0 0.02166,0.0037 0.04029,0.01792 0.054356,0.0348 0.014067,0.01688 0.024333,0.03652 0.035743,0.0553 0.03824,0.06293 0.090575,0.117453 0.152745,0.156923 0.06217,0.03947 0.1341548,0.0637 0.207651,0.06832 0.083607,0.0053 0.1664667,-0.01443 0.2495007,-0.02553 0.041517,-0.0055 0.083512,-0.009 0.1252941,-0.006 0.041782,0.0029 0.083486,0.01242 0.1207498,0.03154 0.021746,0.01116 0.041805,0.0255 0.064005,0.03573 0.0111,0.0051 0.022751,0.0092 0.034821,0.01111 0.01207,0.0019 0.024591,0.0016 0.036322,-0.0018 0.00776,-0.0023 0.015152,-0.0059 0.023139,-0.0071 0.00399,-6.1e-4 0.00813,-5.96e-4 0.012017,5.03e-4 0.00389,0.0011 0.00752,0.0033 0.00989,0.0066 0.00226,0.0031 0.00328,0.007 0.00344,0.01085 1.603e-4,0.0038 -4.925e-4,0.0077 -0.00132,0.01144 -8.28e-4,0.0038 -0.00183,0.0075 -0.0024,0.01129 -5.649e-4,0.0038 -6.772e-4,0.0077 2.759e-4,0.01147 0.00131,0.0051 0.00462,0.0096 0.00894,0.01268 0.00432,0.003 0.00958,0.0046 0.014857,0.0048 0.00528,1.82e-4 0.010559,-0.001 0.015384,-0.0032 0.00483,-0.0021 0.00921,-0.0052 0.013091,-0.0088 0.00777,-0.0071 0.013523,-0.01618 0.019108,-0.02514 0.00559,-0.009 0.011177,-0.01807 0.018719,-0.02546 0.01188,-0.01164 0.028416,-0.01839 0.045049,-0.01839 0.016634,0 0.03317,0.0068 0.04505,0.01839"
       id="path3820"
       inkscape:path-effect="#path-effect3822"
       inkscape:original-d="m 3.4688119,13.161881 c 0.4918735,-0.08498 0.097442,0.232591 0.180198,0.315347 0.03,0.03 0.060099,-0.03 0.090099,0 0.021237,0.02124 -0.021237,0.06886 0,0.0901 0.010618,0.01062 0.034431,-0.01062 0.045049,0 0.010618,0.01062 -0.010618,0.03443 0,0.04505 0.044869,0.04487 0.1848512,0.09941 0.2252476,0.180198 0.00672,0.01343 -0.00672,0.03162 0,0.04505 0.030615,0.06123 0.1045337,0.118968 0.1351485,0.180198 0.00672,0.01343 -0.010618,0.03443 0,0.04505 0.010618,0.01062 0.034431,-0.01062 0.04505,0 0.010618,0.01062 -0.00672,0.03162 0,0.04505 0.0095,0.01899 0.035552,0.02606 0.04505,0.04505 0.013431,0.02686 -0.013431,0.06324 0,0.0901 0.011709,0.02342 0.115368,0.170308 0.1351485,0.180198 0.013431,0.0067 0.034431,-0.01062 0.04505,0 0.023743,0.02374 0.026424,0.06216 0.04505,0.0901 0.00438,0.0066 0.1269667,0.08601 0.1351485,0.0901 0.013431,0.0067 0.031618,-0.0067 0.04505,0 0.054059,0.02703 0.081089,0.108119 0.1351485,0.135149 0.026862,0.01343 0.068862,-0.02124 0.090099,0 0.010618,0.01062 -0.010618,0.03443 0,0.04505 0.021149,0.02115 0.2941971,-0.02115 0.3153465,0 0.060066,0.06007 -0.075082,0.04505 0.04505,0.04505 0.06524,0 0.2131988,-0.02855 0.2702971,0 0.018994,0.0095 0.026055,0.03555 0.04505,0.04505 0.013431,0.0067 0.034431,-0.01062 0.04505,0 0.010618,0.01062 -0.010618,0.03443 0,0.04505 0.021236,0.02124 0.068862,-0.02124 0.090099,0 0.010618,0.01062 -0.010618,0.03443 0,0.04505 0.010618,0.01062 0.031618,-0.0067 0.04505,0 0.2061739,0.103087 -0.1911638,-0.01867 0.1351485,0.0901 0.078175,0.02606 0.098755,-0.03639 0.180198,0.04505 0.010618,0.01062 -0.010618,0.03443 0,0.04505 0.00729,0.0073 0.1663709,0.0055 0.180198,0 0.05027,-0.02011 0.086722,-0.06588 0.1351486,-0.0901 0.058005,-0.029 0.046143,0.0304 0.090099,0.04505 0.00559,0.0019 0.159965,0.01012 0.180198,0 0.1494104,-0.149411 -0.042473,0.02124 0.090099,-0.04505 0.018994,-0.0095 0.023813,-0.04505 0.04505,-0.04505 0.093743,0 0.1444786,0.06318 0.2252475,0.0901 0.079077,0.02636 0.5076622,0 0.6306931,0 0.360396,0 0.7207921,0 1.0811881,0 0.074373,0 0.3935051,0.02849 0.4504951,0 0.018994,-0.0095 0.026055,-0.03555 0.045049,-0.04505 0.013431,-0.0067 0.034431,0.01062 0.04505,0 0.023743,-0.02374 0.021306,-0.06635 0.045049,-0.0901 0.2209709,-0.22097 0.013615,0.07648 0.1351485,-0.04505 0.010618,-0.01062 0,-0.03003 0,-0.04505 0.030033,-0.03003 0.053679,-0.06825 0.090099,-0.0901 0.045049,-0.01502 0.090099,-0.03003 0.1351485,-0.04505 0.04505,-0.01502 0.094429,-0.02062 0.1351486,-0.04505 0.03642,-0.02185 0.053679,-0.06825 0.090099,-0.0901 0.040719,-0.02443 0.091058,-0.02741 0.1351484,-0.04505 0.107086,-0.04284 0.226335,-0.108989 0.315347,-0.180198 0.198262,-0.15861 0.0044,-0.01672 0.135148,-0.180198 0.218981,-0.273726 0.0465,-0.04613 0.225248,-0.180198 0.178322,-0.133742 0.0029,-0.04793 0.180198,-0.225248 0.02374,-0.02374 0.06636,-0.02131 0.0901,-0.04505 0.02374,-0.02374 0.02642,-0.06216 0.04505,-0.0901 0.05561,-0.08342 0.180621,-0.135994 0.225248,-0.225248 0.0067,-0.01343 -0.0067,-0.03162 0,-0.04505 0.0037,-0.0073 0.08436,-0.13228 0.0901,-0.135149 0.01343,-0.0067 0.03443,0.01062 0.04505,0 0.04505,-0.04505 -0.04505,-0.225247 0,-0.270297 0.01062,-0.01062 0.03443,0.01062 0.04505,0 0.01062,-0.01062 -0.01062,-0.03443 0,-0.04505 0.06397,-0.06397 0.235808,0.145709 0.270297,0.180198 0.06007,0.06007 0.101327,0.148649 0.180198,0.180198 0.04183,0.01673 0.09097,-0.0088 0.135148,0 0.03293,0.0066 0.05752,0.03691 0.0901,0.04505 0.04371,0.01093 0.0901,0 0.135149,0 0.10382,0 0.266145,0.03142 0.360396,0 0.02015,-0.0067 0.02606,-0.03555 0.04505,-0.04505 0.01343,-0.0067 0.0308,0.0047 0.04505,0 0.326312,-0.108771 -0.07103,0.01299 0.135149,-0.0901 0.01343,-0.0067 0.03443,0.01062 0.04505,0 0.01062,-0.01062 -0.01062,-0.03443 0,-0.04505 0.02374,-0.02374 0.06636,-0.02131 0.0901,-0.04505 0.01062,-0.01062 -0.01062,-0.03443 0,-0.04505 0.02124,-0.02124 0.06161,0.0095 0.0901,0 0.09444,-0.03148 0.106494,-0.08601 0.180198,-0.135148 0.0406,-0.08944 0.12482,-0.01736 0.180198,-0.04505 0.01802,-0.009 0.162253,-0.144308 0.180198,-0.180198 0.0067,-0.01343 -0.0067,-0.03162 0,-0.04505 0.019,-0.03799 0.07667,-0.04981 0.0901,-0.0901 0.0095,-0.02849 -0.02124,-0.06886 0,-0.0901 0.07326,-0.07326 0.09579,0.07304 0.135149,-0.04505 0.0095,-0.02849 -0.0095,-0.06161 0,-0.0901 0.01343,-0.04029 0.0711,-0.05211 0.0901,-0.0901 0.0067,-0.01343 -0.0047,-0.0308 0,-0.04505 0.0081,-0.0243 0.163176,-0.289814 0.180198,-0.315347 0.01178,-0.01767 0.03327,-0.02738 0.04505,-0.04505 0.03725,-0.05588 0.05285,-0.124321 0.0901,-0.180199 0.0391,-0.05865 0.104084,-0.118068 0.135149,-0.180198 0.0067,-0.01343 -0.0067,-0.03162 0,-0.04505 0.01899,-0.03799 0.07667,-0.04981 0.0901,-0.0901 0.02684,-0.08051 0,-0.232094 0,-0.315347 0,-0.04749 0.04505,-0.08766 0.04505,-0.135148 0,-0.02124 -0.02381,0.04505 -0.04505,0.04505 -0.01502,0 0,-0.03003 0,-0.04505 0,-0.03003 0,-0.06007 0,-0.0901 0,-0.0642 0.02064,-0.163327 0,-0.225248 -0.01062,-0.03185 -0.03691,-0.05752 -0.04505,-0.0901 -0.0073,-0.02914 0.0073,-0.06096 0,-0.0901 -0.0081,-0.03258 -0.03443,-0.05824 -0.04505,-0.0901 -0.01054,-0.03161 -0.01005,-0.205139 0,-0.225247 0.0067,-0.01343 0.04505,0.01502 0.04505,0 0,-0.03358 -0.03443,-0.05824 -0.04505,-0.0901 -0.0047,-0.014246 0.0067,-0.031619 0,-0.04505 -0.0095,-0.018995 -0.03555,-0.026055 -0.04505,-0.04505 -0.0067,-0.013431 0.0067,-0.031618 0,-0.045049 -0.103087,-0.2061739 0.01867,0.191164 -0.0901,-0.1351485 -0.0047,-0.014246 0.0047,-0.030804 0,-0.04505 -0.0261,-0.078284 -0.08568,-0.2043378 -0.135148,-0.2702971 -0.04873,-0.064979 -0.134759,-0.112039 -0.180198,-0.180198 -0.03767,-0.056507 -0.06648,-0.1458662 -0.135149,-0.180198 -0.02686,-0.013431 -0.06324,0.013431 -0.0901,0 -0.03799,-0.018995 -0.05211,-0.071104 -0.0901,-0.090099 -0.01343,-0.00672 -0.03443,0.010618 -0.04505,0 -0.01062,-0.010618 0.01062,-0.034431 0,-0.04505 -0.02124,-0.021237 -0.0901,0.030033 -0.0901,0 0,-0.014001 0.205739,-0.1221432 0.225247,-0.1351486 0.04505,-0.030033 0.04505,-0.1051155 0.0901,-0.1351485 0.02499,-0.016659 0.06324,0.013431 0.0901,0 0.03003,-0.030033 0.06007,-0.060066 0.0901,-0.090099 0,-0.015016 -0.01062,-0.034431 0,-0.04505 0.04749,-0.047486 0.132712,-0.042613 0.180198,-0.090099 0.02374,-0.023743 0.02642,-0.062161 0.04505,-0.090099 0.03465,-0.05198 0.100495,-0.083168 0.135148,-0.1351485 0.01863,-0.027939 0.02642,-0.062161 0.04505,-0.090099 0.02356,-0.03534 0.0711,-0.05211 0.0901,-0.090099 0.0067,-0.013431 -0.0047,-0.030804 0,-0.04505 0.02124,-0.06371 0.05285,-0.1243209 0.0901,-0.180198 0.02845,-0.04268 0.06165,-0.092468 0.0901,-0.1351485 0.02356,-0.03534 0.0711,-0.05211 0.0901,-0.090099 0.02015,-0.040293 -0.02015,-0.094855 0,-0.1351485 0.0067,-0.013431 0.03003,0 0.04505,0 0.01502,-0.015016 0.03833,-0.024903 0.04505,-0.04505 0.02703,-0.081089 -0.02703,-0.1892079 0,-0.2702971 0.0067,-0.020147 0.03833,-0.024903 0.04505,-0.04505 0.01425,-0.042738 -0.02015,-0.094855 0,-0.1351485 0.0095,-0.018995 0.03833,-0.024903 0.04505,-0.04505 0.02252,-0.067574 -0.02252,-0.1576732 0,-0.2252475 0.01062,-0.031855 0.03443,-0.058244 0.04505,-0.090099 0.01425,-0.042738 0,-0.090099 0,-0.1351485 0,-0.1716419 -0.03032,-0.4790664 0,-0.6306931 0.0093,-0.046564 0.03574,-0.088584 0.04505,-0.1351485 0.02192,-0.1096281 0,-0.2489081 0,-0.3603961 0,-0.1333603 0.01885,-0.3185351 0,-0.450495 -0.0067,-0.047009 -0.03724,-0.088308 -0.04505,-0.1351485 -0.02401,-0.1440343 0.03843,-0.579668 0,-0.6757426 -0.0323,-0.080743 -0.113284,-0.1377896 -0.135148,-0.2252475 -0.01457,-0.058273 0.02686,-0.1264734 0,-0.1801981 -0.01899,-0.037989 -0.06654,-0.054759 -0.0901,-0.090099 -0.0083,-0.012494 0.0067,-0.031618 0,-0.045049 -0.0095,-0.018995 -0.03555,-0.026055 -0.04505,-0.04505 -0.0067,-0.013431 0.01062,-0.034431 0,-0.045049 -0.01062,-0.010618 -0.03443,0.010618 -0.04505,0 -0.06007,-0.060066 0.09556,-0.043228 -0.04505,-0.090099 -0.02849,-0.0095 -0.06161,0.0095 -0.0901,0 -0.04029,-0.013431 -0.05612,-0.064615 -0.0901,-0.090099 -0.04331,-0.032486 -0.09287,-0.056276 -0.135148,-0.090099 -0.120693,-0.096554 -0.232537,-0.2836803 -0.360396,-0.3603961 -0.04072,-0.024431 -0.09443,-0.020618 -0.135149,-0.045049 -0.03642,-0.021852 -0.05693,-0.063566 -0.0901,-0.090099 -0.09229,-0.073831 -0.242487,-0.1957702 -0.360396,-0.2252475 -0.02914,-0.00728 -0.06161,0.0095 -0.0901,0 -0.02015,-0.00672 -0.02806,-0.032308 -0.04505,-0.04505 -0.125358,-0.094018 -0.262055,-0.1774505 -0.405446,-0.2252475 -0.06809,-0.022698 -0.155295,0.017488 -0.225248,0 -0.04607,-0.011517 -0.08831,-0.037243 -0.135148,-0.045049 -0.08887,-0.014812 -0.180198,0 -0.270297,0 -0.175418,0 -0.366371,-0.019358 -0.540594,0 -0.0761,0.00846 -0.148943,0.038691 -0.225248,0.045049 -0.224469,0.018706 -0.450933,-0.014051 -0.675742,0 -0.9294,0.058087 0.164143,0.04505 -0.675743,0.04505 -0.090099,0 -0.1801979,0 -0.2702969,0 -0.090099,0 -0.1839979,-0.02589 -0.2702971,0 -0.6209667,0.18629 -0.00724,0.071196 -0.2252475,0.180198 -0.026862,0.013431 -0.068862,-0.021237 -0.090099,0 -0.010618,0.010618 0.00672,0.031618 0,0.04505 -0.02703,0.054059 -0.1081188,0.081089 -0.1351485,0.1351485 -0.00672,0.013431 0.010618,0.034431 0,0.04505 -0.010618,0.010618 -0.034431,0.010618 -0.04505,0 -0.015227,-0.015227 0.012842,-0.2317708 0,-0.270297 -0.00494,-0.014823 -0.087628,-0.1277369 -0.090099,-0.1351485 0,-0.2050782 0.021236,-0.00258 -0.04505,-0.1351486 -0.00672,-0.013431 0.010618,-0.034431 0,-0.04505 -0.010618,-0.010618 -0.034431,0.010618 -0.04505,0 -0.010618,-0.010618 0.010618,-0.034431 0,-0.045049 -0.010618,-0.010618 -0.034431,0.010618 -0.045049,0 -0.010618,-0.010618 0.010618,-0.034431 0,-0.045049 -0.010618,-0.010618 -0.030804,0.00475 -0.045049,0 -0.031855,-0.010618 -0.066356,-0.021306 -0.090099,-0.045049 -0.010618,-0.010618 0.010618,-0.034431 0,-0.04505 -0.038285,-0.038285 -0.091834,-0.057613 -0.1351485,-0.090099 -0.016989,-0.012742 -0.024903,-0.038334 -0.04505,-0.045049 -0.028492,-0.0095 -0.060963,0.00728 -0.090099,0 -0.034858,-0.00871 -0.1453396,-0.081384 -0.180198,-0.090099 -0.070666,-0.017667 -0.1545817,0.017666 -0.2252476,0 -0.081537,0.027153 -0.083784,-0.072978 -0.1351485,-0.090099 -0.028492,-0.0095 -0.060963,0.00728 -0.090099,0 -0.032575,-0.00814 -0.058244,-0.034431 -0.090099,-0.045049 -0.1353347,-0.045112 -0.3115912,0.034726 -0.450495,0 -0.032575,-0.00814 -0.058923,-0.032579 -0.090099,-0.045049 -0.1622032,-0.064881 -0.4508353,-0.1350635 -0.630693,-0.090099 -0.032575,0.00814 -0.058244,0.034431 -0.090099,0.045049 -0.028492,0.0095 -0.061607,-0.0095 -0.090099,0 -0.031855,0.010618 -0.058244,0.034431 -0.090099,0.045049 -0.040545,0.013515 -0.094604,-0.013515 -0.1351485,0 -0.06371,0.021236 -0.1164884,0.068862 -0.180198,0.090099 -0.014246,0.00475 -0.031618,-0.00672 -0.045049,0 -0.018995,0.0095 -0.024903,0.038334 -0.04505,0.045049 -0.1276277,0.042543 -0.4412409,-0.024067 -0.5856436,0 -0.04684,0.00781 -0.088308,0.037243 -0.1351485,0.04505 -0.044437,0.00741 -0.090974,-0.00883 -0.1351485,0 -0.079296,0.015859 -0.1459516,0.07424 -0.2252475,0.090099 -0.073625,0.014725 -0.1511866,-0.012344 -0.2252476,0 -0.1874852,0.031247 -0.078193,0.041081 -0.2252475,0.090099 -0.1193219,0.039774 0.053901,-0.1305249 -0.180198,0.045049 -0.026862,0.020147 -0.018187,0.069952 -0.04505,0.090099 -0.037989,0.028492 -0.091059,0.027413 -0.1351485,0.045049 -0.1476456,0.059058 -0.4181728,0.160603 -0.4955446,0.3153466 -0.00672,0.013431 0.00672,0.031618 0,0.045049 -0.0095,0.018995 -0.035552,0.026055 -0.04505,0.04505 -0.01802,0.03604 0.01802,0.099109 0,0.1351485 -0.0095,0.018994 -0.035552,0.026055 -0.045049,0.045049 -0.034222,0.068443 0.018832,0.1949707 0,0.270297 -0.00814,0.032575 -0.036906,0.057524 -0.04505,0.090099 -0.014568,0.058273 0,0.1201321 0,0.1801981 0,0.1878935 0.030822,0.4007121 0,0.5856435 -0.015016,0.04505 -0.030033,0.090099 -0.045049,0.1351486 -0.015017,0.015017 -0.038334,0.024903 -0.04505,0.04505 -0.0095,0.028492 0.00728,0.060963 0,0.090099 -0.00814,0.032575 -0.036906,0.057524 -0.04505,0.090099 -0.00651,0.026045 0.010349,0.3049978 0,0.3153465 -0.010618,0.010618 -0.031618,-0.00672 -0.045049,0 -0.018995,0.0095 -0.026055,0.035552 -0.04505,0.045049 -0.087781,0.04389 -0.3042424,-0.033734 -0.4054456,0 -0.031855,0.010618 -0.058244,0.034431 -0.090099,0.04505 -0.028492,0.0095 -0.063237,-0.013431 -0.090099,0 -0.018995,0.0095 -0.026055,0.035552 -0.045049,0.04505 -0.013431,0.00672 -0.031618,-0.00672 -0.04505,0 -0.054059,0.02703 -0.081089,0.1081188 -0.1351485,0.1351486 -0.013431,0.00672 -0.034431,-0.010618 -0.04505,0 -0.060066,0.060066 0.095564,0.043228 -0.04505,0.090099 -0.042738,0.014246 -0.094855,-0.020147 -0.1351486,0 -0.018994,0.0095 -0.026055,0.035552 -0.045049,0.045049 -0.026862,0.013431 -0.068862,-0.021237 -0.090099,0 -0.093209,0.093209 0.1424358,-0.00364 -0.045049,0.090099 -0.013431,0.00672 -0.030804,-0.00475 -0.045049,0 C 1.7382759,4.8789755 1.5439094,4.9956909 1.5316964,5.007904 1.5079534,5.031647 1.5103904,5.07426 1.4866474,5.098003 1.3108311,5.2738193 1.4624534,5.087575 1.3514989,5.143053 1.2828349,5.177385 1.2540219,5.2667437 1.2163503,5.323251 c -0.02356,0.03534 -0.05211,0.071104 -0.090099,0.090099 -0.013431,0.00672 -0.034431,-0.010618 -0.045049,0 -0.010618,0.010618 0.00672,0.031618 0,0.04505 -0.0095,0.018995 -0.03327,0.02738 -0.04505,0.04505 -0.018626,0.027938 -0.026424,0.06216 -0.0450495,0.090099 0.004497,0.089246 -0.0663558,0.021306 -0.090099,0.04505 -0.0106183,0.010618 0.0106183,0.034431 0,0.04505 -0.0237432,0.023743 -0.0663558,0.021306 -0.090099,0.04505 -0.0106183,0.010618 0.006716,0.031618 0,0.045049 -0.0189945,0.037989 -0.0766678,0.049806 -0.090099,0.090099 -0.009497,0.028492 0.0134312,0.063237 0,0.090099 -0.006716,0.013431 -0.0383339,-0.013431 -0.0450495,0 -0.0134312,0.026862 0.0166593,0.06511 0,0.090099 -0.0346688,0.052003 -0.10914694,0.051097 -0.13514852,0.090099 -0.0186257,0.027938 -0.0344312,0.058244 -0.0450495,0.090099 -0.004749,0.014246 0.0106183,0.034431 0,0.04505 -0.0106183,0.010618 -0.0344312,-0.010618 -0.0450495,0 -0.0106183,0.010618 0.006716,0.031618 0,0.04505 -0.009497,0.018995 -0.0355522,0.026055 -0.0450495,0.04505 -0.0227274,0.045455 0.0279139,0.1383271 0,0.180198 -0.0400483,0.060072 -0.14666936,0.1131407 -0.18019802,0.180198 -0.006716,0.013431 0.006716,0.031618 0,0.04505 -0.0189945,0.037989 -0.0711045,0.05211 -0.090099,0.090099 -0.0201468,0.040293 0.0142459,0.092411 0,0.1351485 -0.0134312,0.040294 -0.06653919,0.054759 -0.09009901,0.090099 -0.03725136,0.055877 -0.05284766,0.124321 -0.09009902,0.1801981 -0.01177991,0.01767 -0.03555223,0.026055 -0.0450495,0.04505 -0.02123654,0.042473 -0.02381297,0.092675 -0.04504951,0.1351485 -0.009497,0.018994 -0.0383339,0.024903 -0.0450495,0.04505 -0.009497,0.028492 0.0134312,0.063237 0,0.090099 -0.006716,0.013431 -0.0344312,-0.010618 -0.0450495,0 -0.0106183,0.010618 0.004749,0.030804 0,0.04505 -0.0106183,0.031855 -0.0344312,0.058244 -0.0450495,0.090099 -0.0126641,0.037992 0.0177878,0.099573 0,0.1351485 -0.009497,0.018995 -0.0355522,0.026055 -0.0450495,0.04505 -0.0418602,0.08372 0.0298563,0.2257777 0,0.3153466 -0.0106183,0.031855 -0.0369057,0.057524 -0.0450495,0.090099 -0.0139132,0.055653 -0.0138706,0.5128528 0,0.540594 0.066286,0.1325721 0.0450495,-0.06993 0.0450495,0.1351486 0,0.071605 0.0227671,0.2019958 0,0.270297 -0.0310697,0.093209 -0.094853,-0.014262 -0.0450495,0.1351485 0.006716,0.020147 0.0383339,0.024903 0.0450495,0.04505 0.0189945,0.056984 0,0.120132 0,0.180198 0,0.06524 -0.0285491,0.2131988 0,0.2702971 0.009497,0.018994 0.0355522,0.026055 0.0450495,0.045049 0.0201467,0.040294 -0.0142459,0.092411 0,0.1351486 0.006716,0.02015 0.030033,0.03003 0.0450495,0.04505 0,0.03003 -0.007284,0.06096 0,0.0901 0.0244198,0.09768 0.11072872,0.127568 0.13514852,0.225247 0.03900943,0.156038 -0.05704504,0.02706 0.0450495,0.180198 0.02355983,0.03534 0.07979778,0.04889 0.09009902,0.0901 0.01092611,0.0437 -0.0088349,0.09097 0,0.135149 0.01646185,0.08231 0.14255503,0.207559 0.18019802,0.270297 0.0503035,0.08384 0.0765738,0.192197 0.13514851,0.270297 0.0254839,0.03398 0.0646152,0.05612 0.090099,0.0901 0.085343,-0.0051 0.030033,0.105115 0.0450495,0.135148 0.009497,0.019 0.0355522,0.02605 0.0450495,0.04505 0.0134312,0.02686 -0.0134312,0.06324 0,0.0901 0.0189945,0.03799 0.0711045,0.05211 0.090099,0.0901 0.006716,0.01343 -0.0124945,0.03672 0,0.04505 0.039511,0.02634 0.0944293,0.02062 0.13514852,0.04505 0.15035567,0.09021 0.25758959,0.306875 0.40544549,0.405446 0.012495,0.0083 0.031618,-0.0067 0.045049,0 0.037989,0.01899 0.054759,0.06654 0.090099,0.0901 0.073654,0.0491 0.2901784,0.201841 0.360396,0.225247 0.088041,0.02935 0.3805676,0 0.4955446,0 0.1049141,0 0.053002,0.004 0.1351485,0.04505 0.013431,0.0067 0.034431,-0.01062 0.045049,0 0.010618,0.01062 -0.010618,0.03443 0,0.04505 0.035216,0.03522 0.07837,-0.03918 0.090099,-0.04505 0.026862,-0.01343 0.060066,0 0.090099,0"
       inkscape:connector-curvature="0" />
  </g>
</svg>
