<?xml version="1.0" encoding="UTF-8" standalone="no"?>
<!-- Created with Inkscape (http://www.inkscape.org/) -->

<svg
   xmlns:dc="http://purl.org/dc/elements/1.1/"
   xmlns:cc="http://creativecommons.org/ns#"
   xmlns:rdf="http://www.w3.org/1999/02/22-rdf-syntax-ns#"
   xmlns:svg="http://www.w3.org/2000/svg"
   xmlns="http://www.w3.org/2000/svg"
   xmlns:sodipodi="http://sodipodi.sourceforge.net/DTD/sodipodi-0.dtd"
   xmlns:inkscape="http://www.inkscape.org/namespaces/inkscape"
   width="468px"
   height="60px"
   id="svg3332"
   version="1.1"
   inkscape:version="0.48.0 r9654"
   sodipodi:docname="New document 9">
  <defs
     id="defs3334" />
  <sodipodi:namedview
     id="base"
     pagecolor="#ffffff"
     bordercolor="#666666"
     borderopacity="1.0"
     inkscape:pageopacity="0.0"
     inkscape:pageshadow="2"
     inkscape:zoom="1.2"
     inkscape:cx="234"
     inkscape:cy="30"
     inkscape:document-units="px"
     inkscape:current-layer="layer1"
     showgrid="false"
     inkscape:window-width="1106"
     inkscape:window-height="730"
     inkscape:window-x="1608"
     inkscape:window-y="103"
     inkscape:window-maximized="0" />
  <metadata
     id="metadata3337">
    <rdf:RDF>
      <cc:Work
         rdf:about="">
        <dc:format>image/svg+xml</dc:format>
        <dc:type
           rdf:resource="http://purl.org/dc/dcmitype/StillImage" />
        <dc:title></dc:title>
      </cc:Work>
    </rdf:RDF>
  </metadata>
  <g
     id="layer1"
     inkscape:label="Layer 1"
     inkscape:groupmode="layer">
    <path
       style="fill:#00ffff;stroke:#000000;stroke-width:1px;stroke-linecap:butt;stroke-linejoin:miter;stroke-opacity:1"
       d="m 18.333333,26.666667 c -1.036257,-1.223047 3.549739,-3.766143 4.166667,-5 0.124226,-0.248452 -0.196419,-0.636915 0,-0.833334 1.724196,-1.724196 -0.0674,2.634801 1.666667,-0.833333 0.124226,-0.248452 -0.196419,-0.636915 0,-0.833333 1.724196,-1.724197 -0.0674,2.6348 1.666666,-0.833334 0.124226,-0.248452 -0.196418,-0.636914 0,-0.833333 0.392837,-0.392837 1.27383,0.392837 1.666667,0 0.196419,-0.196419 -0.196419,-0.636915 0,-0.833333 0.258039,-0.25804 3.908627,0.258039 4.166667,0 0.392837,-0.392837 -0.392837,-1.27383 0,-1.666667 0.196418,-0.196419 0.555555,0 0.833333,0 0.277778,0 0.584881,-0.124226 0.833333,0 0.351365,0.175682 0.481969,0.657651 0.833334,0.833333 0.215458,0.10773 4.409331,0 5,0 1.666666,0 3.333333,0 5,0 0.277777,0 0.636914,-0.196418 0.833333,0 0.196419,0.196419 -0.248452,0.709108 0,0.833334 0.496904,0.248452 1.111111,0 1.666667,0 1.666666,0 3.333333,0 5,0 0.277777,0 0.555555,0 0.833333,0 0.277778,0 0.584881,-0.124226 0.833333,0 0.351365,0.175682 0.481969,0.657651 0.833334,0.833333 0.07104,0.03552 3.262295,0.03552 3.333333,0 0.351364,-0.175682 0.506473,-0.615427 0.833333,-0.833333 C 60.794872,15.025641 59.205128,16.641026 61.666667,15 61.993527,14.782093 62.17314,14.384573 62.5,14.166667 c 4.209838,-2.806559 0.01931,-0.0064 2.5,-0.833334 0.589256,-0.196418 1.077411,-0.636914 1.666667,-0.833333 0.324269,-0.10809 2.370677,0.129322 2.5,0 0.196418,-0.196419 -0.196419,-0.636915 0,-0.833333 0.170363,-0.170364 2.16959,0.165205 2.5,0 0.351364,-0.175682 0.481969,-0.657652 0.833333,-0.833334 0.248452,-0.124226 0.555556,0 0.833333,0 0.277778,0 0.555556,0 0.833334,0 0.697824,0 3.532944,-0.15843 4.166666,0 0.602585,0.150646 1.064082,0.682688 1.666667,0.833334 0.538968,0.134742 1.13962,-0.175682 1.666667,0 0.372678,0.124226 0.460655,0.709107 0.833333,0.833333 0.690184,0.230061 3.636715,-0.264976 4.166667,0 3.468133,1.734067 -0.890863,-0.05753 0.833333,1.666667 0.22279,0.222789 3.635111,-0.265778 4.166667,0 C 92.018031,14.342349 92.148636,14.824318 92.5,15 c 2.902326,1.451163 -1.235659,-1.451163 1.666667,0 0.702728,0.351364 0.963938,1.315302 1.666666,1.666667 2.222223,0 -0.277777,-0.277778 0.833334,0.833333 0.196418,0.196419 0.833333,-0.277778 0.833333,0 0,0.277778 -1.029752,0.196419 -0.833333,0 0.439205,-0.439205 1.169762,-0.460655 1.666666,-0.833333 C 98.961873,16.195262 99.34628,15.435814 100,15 c 0.23113,-0.154083 0.60221,0.154083 0.83333,0 0.65372,-0.435814 1.03813,-1.195262 1.66667,-1.666667 0.4969,-0.372678 1.14986,-0.488792 1.66667,-0.833333 0.32686,-0.217907 0.50647,-0.615427 0.83333,-0.833333 1.03362,-0.689082 2.29971,-0.977585 3.33333,-1.666667 0.65372,-0.4358136 0.96394,-1.3153025 1.66667,-1.6666667 0.24845,-0.124226 0.63691,0.1964186 0.83333,0 0.19642,-0.1964185 -0.19642,-0.6369147 0,-0.8333333 0.39284,-0.3928371 1.16977,0.248452 1.66667,0 0.35136,-0.1756821 0.48197,-0.6576512 0.83333,-0.8333333 0.24846,-0.124226 0.58488,0.124226 0.83334,0 0.35136,-0.1756821 0.48197,-0.6576513 0.83333,-0.8333334 0.21546,-0.1077294 4.40933,0 5,0 0.99901,0 6.20418,-0.1541611 6.66667,0 0.37267,0.124226 0.44049,0.8333334 0.83333,0.8333334 0.62113,0 1.94444,-0.2777778 1.66667,-0.8333334 -0.39284,-0.7856742 -1.71433,-0.4404962 -2.5,-0.8333333 -0.24846,-0.124226 0.55555,0 0.83333,0 0.83333,0 1.66667,0 2.5,0 0.55556,0 1.1219,-0.1089534 1.66667,0 0.86135,0.1722705 1.63864,0.6610629 2.5,0.8333333 0.54476,0.1089534 1.1219,-0.1089534 1.66666,0 0.86136,0.1722705 1.63865,0.6610629 2.5,0.8333334 0.54477,0.1089534 1.13962,-0.1756821 1.66667,0 0.37268,0.124226 0.46066,0.7091073 0.83333,0.8333333 1.03496,0.3449855 3.07099,-0.2739194 4.16667,0 1.20517,0.3012923 2.15482,1.2738296 3.33333,1.6666667 0.26353,0.087841 0.56981,-0.087841 0.83334,0 1.17851,0.3928371 2.15482,1.2738293 3.33333,1.6666663 0.57319,0.191065 2.00832,-0.245841 2.5,0 0.35136,0.175682 0.48197,0.657652 0.83333,0.833334 0.49691,0.248452 1.16977,-0.248452 1.66667,0 0.35136,0.175682 0.48197,0.657651 0.83333,0.833333 0.49691,0.248452 1.16977,-0.248452 1.66667,0 0.35136,0.175682 0.48197,0.657651 0.83333,0.833333 0.24846,0.124226 0.58488,-0.124226 0.83334,0 0.35136,0.175682 0.48197,0.657652 0.83333,0.833334 0.33041,0.165205 2.32964,-0.170364 2.5,0 0.19642,0.196418 -0.19642,0.636914 0,0.833333 0.39284,0.392837 1.16976,-0.248452 1.66667,0 0.35136,0.175682 0.48197,0.657651 0.83333,0.833333 0.4969,0.248452 1.27383,-0.392837 1.66667,0 0.19642,0.196419 -0.19642,0.636915 0,0.833334 0.19642,0.196418 0.55555,0 0.83333,0 0.27778,0 0.63691,0.196418 0.83333,0 0.19642,-0.196419 -0.15408,-0.602209 0,-0.833334 0.30592,-0.458875 3.71258,-3.826098 4.16667,-4.166666 0.4969,-0.372678 1.14986,-0.488793 1.66667,-0.833334 C 176.99353,10.615427 177.17314,10.217907 177.5,10 181.70984,7.1934412 177.5193,9.99356 180,9.1666667 186.03618,7.1546065 178.68616,9.4069197 182.5,7.5 c 0.24845,-0.124226 0.55556,0 0.83333,0 0.27778,0 0.55556,0 0.83334,0 1.11111,0 2.22222,0 3.33333,0 0.55556,0 1.13962,0.1756821 1.66667,0 0.58925,-0.1964186 1.06408,-0.6826872 1.66666,-0.8333333 0.70716,-0.1767902 5.26812,0 5.83334,0 1.11111,0 2.22222,0 3.33333,0 0.55556,0 1.1219,-0.1089534 1.66667,0 0.86135,0.1722704 1.68441,0.5070998 2.5,0.8333333 0.5767,0.2306819 1.07741,0.6369148 1.66666,0.8333333 0.26353,0.087841 0.55556,0 0.83334,0 0.5326,0 4.75961,-0.1201922 5,0 0.70273,0.3513642 1.03812,1.1952622 1.66666,1.6666667 2.05293,1.539695 2.38991,0.361619 3.33334,0.833333 0.35136,0.175682 0.48197,0.657652 0.83333,0.833334 0.24845,0.124226 0.63691,-0.196419 0.83333,0 0.43921,0.439205 0.39413,1.227461 0.83334,1.666666 0.4392,0.439206 1.14985,0.488793 1.66666,0.833334 0.32686,0.217906 0.55556,0.555555 0.83334,0.833333 0.55555,0.555556 1.01294,1.230853 1.66666,1.666667 0.51681,0.344541 1.22746,0.394128 1.66667,0.833333 1.7242,1.724196 -2.6348,-0.0674 0.83333,1.666667 2.45234,1.22617 -1.09715,-1.930486 1.66667,0.833333 0.16272,0.162718 1.05358,1.446419 1.66667,0.833333 0.4392,-0.439205 0.39412,-1.227461 0.83333,-1.666666 0.43921,-0.439206 1.11111,-0.555556 1.66667,-0.833334 0.55555,-0.277777 1.06408,-0.682687 1.66666,-0.833333 0.53897,-0.134742 1.1219,0.108953 1.66667,0 1.7227,-0.344541 3.26708,-1.377847 5,-1.666667 0.82199,-0.136999 1.67801,0.136999 2.5,0 0.86646,-0.144409 1.74677,-0.381395 2.5,-0.833333 2.37182,-1.423089 0.75369,-1.85509 3.33333,-2.5 0.86325,-0.215811 2.37778,0 3.33334,0 2.77777,0 5.55555,0 8.33333,0 0.83333,0 1.68285,0.16343 2.5,0 0.60907,-0.121814 1.0576,-0.71152 1.66667,-0.833333 0.81715,-0.16343 1.66666,0 2.5,0 0.55555,0 1.1219,-0.108954 1.66666,0 0.86136,0.17227 1.63865,0.661063 2.5,0.833333 0.54477,0.108953 1.11111,0 1.66667,0 2.22222,0 4.44444,0 6.66667,0 0.83333,0 1.67504,-0.117851 2.5,0 1.13379,0.161971 2.20361,0.645046 3.33333,0.833333 0.548,0.09133 1.1219,-0.108953 1.66667,0 0.86135,0.172271 1.63864,0.661063 2.5,0.833334 0.93984,0.187967 3.07609,0 4.16666,0 0.27778,0 0.63692,-0.196419 0.83334,0 0.19642,0.196418 -0.19642,0.636914 0,0.833333 0.19642,0.196419 0.63691,-0.196419 0.83333,0 0.19642,0.196419 -0.19642,0.636915 0,0.833333 0.19642,0.196419 0.55556,0 0.83333,0 0,0.277778 -0.12422,0.584882 0,0.833334 0.17569,0.351364 0.48197,0.657651 0.83334,0.833333 0.24845,0.124226 0.7091,-0.248452 0.83333,0 0.24845,0.496904 -0.13474,1.127699 0,1.666667 0.15065,0.602584 0.63691,1.077411 0.83333,1.666666 0.0878,0.263523 -0.19642,0.636915 0,0.833334 0.19642,0.196418 0.55556,0 0.83334,0 0.27777,0 0.58488,0.124226 0.83333,0 0.70273,-0.351365 1.01295,-1.230853 1.66667,-1.666667 1.65386,-1.102576 3.98612,-1.884263 5.83333,-2.5 8.63231,-2.877435 -3.44603,0.855872 5,-0.833333 0.60907,-0.121814 1.06408,-0.682688 1.66667,-0.833334 1.34742,-0.336855 2.80475,0.272384 4.16666,0 C 318.9424,15.71152 319.41074,15.196419 320,15 c 0.26352,-0.08784 0.55556,0 0.83333,0 0.46513,0 3.7852,0.127157 4.16667,0 0.37268,-0.124226 0.48197,-0.657651 0.83333,-0.833333 0.24846,-0.124226 0.55556,0 0.83334,0 0.55555,0 1.11111,0 1.66666,0 0.55556,0 1.11111,0 1.66667,0 0.55556,0 1.1277,-0.134742 1.66667,0 0.60258,0.150646 1.06408,0.682687 1.66666,0.833333 1.26918,0.317295 2.87534,-0.215222 4.16667,0 1.12972,0.188287 2.20361,0.645046 3.33333,0.833333 0.548,0.09133 1.11111,0 1.66667,0 1.66667,0 3.33333,0 5,0 0.83333,0 1.67504,-0.117851 2.5,0 3.6371,0.519586 2.66742,0.875188 5.83333,1.666667 0.26949,0.06737 0.55556,0 0.83334,0 0.83333,0.277778 1.64781,0.620288 2.5,0.833333 1.08723,0.27181 1.80259,-0.561484 2.5,0.833334 0.12422,0.248452 0,0.555555 0,0.833333 0,0.277778 0,0.555556 0,0.833333 0,1.666667 0,3.333334 0,5 0,0.350552 0.12394,4.752104 0,5 -1.73407,3.468134 0.0575,-0.890863 -1.66667,0.833334 -0.19642,0.196418 0.12423,0.584881 0,0.833333 -0.92127,1.842546 -0.5172,0.258601 -1.66667,0.833333 -0.35136,0.175682 -0.48197,0.657652 -0.83333,0.833334 -0.24845,0.124226 -0.55556,0 -0.83333,0 -0.27778,0 -0.63692,0.196418 -0.83334,0 -0.19642,-0.196419 -0.19642,-0.636915 0,-0.833334 0.19642,-0.196418 0.55556,0 0.83334,0 0.46513,0 3.78519,-0.127156 4.16666,0 0.37268,0.124226 0.48197,0.657652 0.83334,0.833334 0.24845,0.124226 0.58488,-0.124226 0.83333,0 0.35136,0.175682 0.48197,0.657651 0.83333,0.833333 1.14947,0.574732 0.7454,-1.009212 1.66667,0.833333 0.12423,0.248452 -0.12423,0.584882 0,0.833334 0.17568,0.351364 0.65765,0.481969 0.83333,0.833333 0.12423,0.248452 -0.19642,0.636915 0,0.833333 0.19642,0.196419 0.63692,-0.196418 0.83334,0 0.11752,0.117522 0.0855,2.32906 0,2.5 -0.5,1 -2,1.5 -2.5,2.5 -0.12423,0.248452 0.19642,0.636915 0,0.833334 C 363.72746,44.605872 363.01681,44.655459 362.5,45 c -0.32686,0.217907 -0.50647,0.615427 -0.83333,0.833333 -0.51681,0.344541 -1.14986,0.488793 -1.66667,0.833334 -0.32686,0.217906 -0.48197,0.657651 -0.83333,0.833333 -0.24846,0.124226 -0.58488,-0.124226 -0.83334,0 -0.35136,0.175682 -0.55555,0.555556 -0.83333,0.833333 -0.27778,0.277778 -0.48197,0.657652 -0.83333,0.833334 -0.66667,0.333333 -1.83334,-0.333334 -2.5,0 -0.35137,0.175682 -0.48197,0.657651 -0.83334,0.833333 -0.24845,0.124226 -0.63691,-0.196419 -0.83333,0 -0.19642,0.196419 0.24845,0.709107 0,0.833333 -0.70809,0.354047 -3.33828,-0.276129 -4.16667,0 -0.37267,0.124226 -0.48197,0.657652 -0.83333,0.833334 -0.55227,0.276135 -2.6349,-0.232813 -3.33333,0 -0.58926,0.196418 -1.07741,0.636914 -1.66667,0.833333 -0.26352,0.08784 -0.55556,0 -0.83333,0 -0.27778,0 -0.83334,0.277778 -0.83334,0 0,-0.277778 1.11111,0 0.83334,0 -0.55556,0 -1.13962,0.175682 -1.66667,0 -0.37268,-0.124226 -0.48197,-0.657651 -0.83333,-0.833333 -0.24846,-0.124226 -0.58488,0.124226 -0.83334,0 -0.35136,-0.175682 -0.48197,-0.657652 -0.83333,-0.833334 -0.24845,-0.124226 -0.63691,0.196419 -0.83333,0 -0.19642,-0.196418 0.19642,-0.636914 0,-0.833333 -0.25804,-0.258039 -3.90863,0.258039 -4.16667,0 -0.19642,-0.196419 0.19642,-0.636915 0,-0.833333 -0.19642,-0.196419 -0.63691,0.196418 -0.83333,0 -0.19642,-0.196419 0.19642,-0.636915 0,-0.833334 -0.19642,-0.196418 -0.58488,0.124226 -0.83334,0 C 330.48197,48.157651 330.35136,47.675682 330,47.5 c -0.24845,-0.124226 -0.63691,0.196419 -0.83333,0 -0.19642,-0.196419 0.19642,-0.636915 0,-0.833333 -0.19642,-0.196419 -0.55556,0 -0.83334,0 -0.2021,0 -2.4732,-0.0268 -2.5,0 -0.19642,0.196418 0.19642,0.636914 0,0.833333 -0.39283,0.392837 -1.16976,-0.248452 -1.66666,0 -0.70273,0.351364 -0.96394,1.315302 -1.66667,1.666667 -0.24845,0.124226 -0.63691,-0.196419 -0.83333,0 -0.19642,0.196418 0.24845,0.709107 0,0.833333 -0.49691,0.248452 -1.1277,-0.134742 -1.66667,0 -0.60258,0.150646 -1.07741,0.636915 -1.66667,0.833333 -0.26352,0.08784 -0.56981,-0.08784 -0.83333,0 -0.58926,0.196419 -1.06408,0.682688 -1.66667,0.833334 -1.07793,0.269484 -2.2438,-0.217907 -3.33333,0 -0.86135,0.17227 -1.63354,0.688923 -2.5,0.833333 -1.64399,0.273998 -3.3657,-0.32686 -5,0 -0.60907,0.121814 -1.05399,0.73122 -1.66667,0.833333 -1.09599,0.182666 -2.22222,0 -3.33333,0 -0.83333,0 -1.66667,0 -2.5,0 -4.44444,0 -8.88889,0 -13.33333,0 -3.61111,0 -7.22223,0 -10.83334,0 -0.55555,0 -1.11111,0 -1.66666,0 -0.55556,0 -1.15085,0.206328 -1.66667,0 -0.92991,-0.371963 -1.57009,-1.294703 -2.5,-1.666666 -0.51582,-0.206328 -1.11111,0 -1.66667,0 -1.66666,0 -3.33333,0 -5,0 -0.27777,0 -0.63691,0.196418 -0.83333,0 C 259.56079,51.227461 259.68348,50.344541 259.16667,50 258.78888,49.748144 255.511,50.255498 255,50 c -0.35136,-0.175682 -0.48197,-0.657651 -0.83333,-0.833333 -0.0553,-0.02764 -3.32693,-0.0043 -3.33334,0 -0.65372,0.435813 -1.01294,1.230853 -1.66666,1.666666 -0.42289,0.281924 -3.62461,-0.27103 -4.16667,0 -0.70273,0.351365 -0.99296,1.262441 -1.66667,1.666667 -0.75323,0.451938 -1.68441,0.5071 -2.5,0.833333 -0.5767,0.230682 -1.06408,0.682688 -1.66666,0.833334 -0.53897,0.134742 -1.11111,0 -1.66667,0 -0.55556,0.277777 -1.07741,0.636914 -1.66667,0.833333 -0.8117,0.270569 -3.37282,-0.264614 -4.16666,0 -0.58926,0.196419 -1.07741,0.636915 -1.66667,0.833333 -0.26352,0.08784 -0.56981,-0.08784 -0.83333,0 -0.58926,0.196419 -1.06409,0.682688 -1.66667,0.833334 -0.53897,0.134742 -1.1277,-0.134742 -1.66667,0 -0.60258,0.150646 -1.06408,0.682687 -1.66666,0.833333 -0.53897,0.134742 -1.11111,0 -1.66667,0 -1.38889,0 -2.79668,-0.228332 -4.16667,0 -0.86646,0.14441 -1.63354,0.688924 -2.5,0.833333 -0.82199,0.136999 -1.66666,0 -2.5,0 -0.83333,0 -1.67504,0.117851 -2.5,0 C 209.69954,58.171362 208.6338,57.661971 207.5,57.5 c -0.82496,-0.117851 -1.66667,0 -2.5,0 -1.66667,0 -3.33333,0 -5,0 -3.88889,0 -7.77778,0 -11.66667,0 -0.27777,0 -0.55555,0 -0.83333,0 -0.27778,0 -0.63691,0.196419 -0.83333,0 -0.19642,-0.196419 0.19642,-0.636915 0,-0.833333 -0.19642,-0.196419 -0.55556,0 -0.83334,0 -0.59067,0 -4.78454,0.107729 -5,0 -0.35136,-0.175682 -0.48197,-0.657652 -0.83333,-0.833334 -0.24845,-0.124226 -0.55556,0 -0.83333,0 -0.27778,-0.277777 -0.50648,-0.615426 -0.83334,-0.833333 -0.51681,-0.344541 -1.07741,-0.636915 -1.66666,-0.833333 -0.26353,-0.08784 -0.63692,0.196418 -0.83334,0 -0.19642,-0.196419 0.15409,-0.602209 0,-0.833334 -1.24205,-1.863085 -1.10056,-1.666666 -2.5,-1.666666 -0.27777,0 -0.58488,0.124226 -0.83333,0 -0.35136,-0.175682 -0.46066,-0.709108 -0.83333,-0.833334 -0.47406,-0.158017 -3.38181,0 -4.16667,0 -0.27778,0 -0.63691,-0.196418 -0.83333,0 -0.56611,0.566105 0.85206,1.6573 -0.83334,2.5 -0.4969,0.248452 -1.16976,-0.248452 -1.66666,0 -0.35137,0.175682 -0.48197,0.657652 -0.83334,0.833334 -0.24845,0.124226 -0.58488,-0.124226 -0.83333,0 -3.46813,1.734067 0.89086,-0.05753 -0.83333,1.666666 -1.14239,1.142388 -2.74887,0.833334 -4.16667,0.833334 -0.27778,0 -0.58488,-0.124226 -0.83333,0 -0.35137,0.175682 -0.48197,0.657651 -0.83334,0.833333 -0.24845,0.124226 -0.55555,0 -0.83333,0 -0.27778,0 -0.55556,0 -0.83333,0 -0.83334,0 -1.66667,0 -2.5,0 -0.55556,0 -1.11867,0.09133 -1.66667,0 -1.12972,-0.188287 -2.19954,-0.671362 -3.33333,-0.833333 -0.82496,-0.117851 -1.66667,0 -2.5,0 -4.57143,0 -2.09524,0 -6.66667,0 -1.38889,0 -2.78627,0.153377 -4.16667,0 -1.1383,-0.126478 -2.19371,-0.719371 -3.33333,-0.833334 -1.6584,-0.165839 -3.33333,0 -5,0 -1.66667,0 -3.33333,0 -5,0 -1.66667,0 -3.3657,-0.32686 -5,0 -1.21814,0.243628 -2.10798,1.462441 -3.33333,1.666667 -0.61268,0.102113 -1.0576,-0.71152 -1.66667,-0.833333 -0.81715,-0.16343 -1.66667,0 -2.5,0 -5.83333,0 -11.666667,0 -17.5,0 -0.555556,0 -1.111111,0 -1.666667,0 -0.277777,0 -0.636914,0.196418 -0.833333,0 -0.196419,-0.196419 0.124226,-0.584882 0,-0.833334 C 87.324318,55.481969 86.944444,55.277778 86.666667,55 86.01186,54.345194 82.765405,51.364143 82.5,50.833333 c -1.049581,-2.099161 3.165081,0.721165 -1.666667,-2.5 -1.293147,-0.862098 -0.542195,1.41561 -1.666666,-0.833333 -0.124226,-0.248452 0.196418,-0.636915 0,-0.833333 -3.252279,-3.252279 -0.447541,0.192896 -2.5,-0.833334 -1,-0.5 -1.5,-2 -2.5,-2.5 -0.248452,-0.124226 -0.636915,0.196419 -0.833334,0 -0.196418,-0.196418 0.196419,-0.636914 0,-0.833333 -0.392837,-0.392837 -1.273829,0.392837 -1.666666,0 -0.196419,-0.196419 0.196418,-0.636915 0,-0.833333 -0.196419,-0.196419 -0.636915,-0.196419 -0.833334,0 -0.196418,0.196418 0.196419,0.636914 0,0.833333 -0.439205,0.439205 -1.149855,0.488792 -1.666666,0.833333 -0.326861,0.217907 -0.481969,0.657652 -0.833334,0.833334 -0.248452,0.124226 -0.636914,-0.196419 -0.833333,0 -0.439205,0.439205 -0.394128,1.227461 -0.833333,1.666666 -0.196419,0.196419 -0.584882,-0.124226 -0.833334,0 -0.702728,0.351365 -0.963938,1.315303 -1.666666,1.666667 -0.248452,0.124226 -0.584882,-0.124226 -0.833334,0 -0.351364,0.175682 -0.481969,0.657651 -0.833333,0.833333 -0.248452,0.124226 -0.584881,-0.124226 -0.833333,0 -0.351365,0.175682 -0.481969,0.657652 -0.833334,0.833334 -0.496904,0.248452 -1.169762,-0.248452 -1.666666,0 -0.351365,0.175682 -0.481969,0.657651 -0.833334,0.833333 -0.496904,0.248452 -1.169762,-0.248452 -1.666666,0 -0.351365,0.175682 -0.481969,0.657651 -0.833334,0.833333 -0.247896,0.123948 -4.649448,0 -5,0 -0.710938,0 -5.523707,0.154813 -5.833333,0 C 44.648636,50.657651 44.547775,50.095277 44.166667,50 c -0.808452,-0.202113 -1.666667,0 -2.5,0 -1.944445,0 -3.888889,0 -5.833334,0 -0.283895,0 -2.882328,0.150335 -3.333333,0 -0.589256,-0.196419 -1.077411,-0.636915 -1.666667,-0.833333 -0.573193,-0.191065 -2.008316,0.245841 -2.5,0 C 27.981969,48.990985 27.851364,48.509015 27.5,48.333333 c -0.248452,-0.124226 -0.636915,0.196419 -0.833333,0 -0.196419,-0.196418 0.196418,-0.636914 0,-0.833333 C 26.27383,47.107163 25.496904,47.748452 25,47.5 23.843299,46.92165 24.166667,46.017234 24.166667,45 c 0,-0.277778 0.196418,-0.636915 0,-0.833333 -0.196419,-0.196419 -0.636915,0.196418 -0.833334,0 -0.196418,-0.196419 0.124226,-0.584882 0,-0.833334 C 23.157651,42.981969 22.675682,42.851364 22.5,42.5 c -0.124226,-0.248452 0.124226,-0.584881 0,-0.833333 -0.175682,-0.351365 -0.657651,-0.481969 -0.833333,-0.833334 -0.248452,-0.496904 0.248452,-1.169762 0,-1.666666 C 21.186667,38.206667 20.48,38.46 20,37.5 19.712194,36.924389 20.292516,33.62585 20,33.333333 18.888889,32.222222 19.166667,34.722222 19.166667,32.5"
       id="path3340"
       inkscape:connector-curvature="0" />
  </g>
</svg>
