<?xml version="1.0" encoding="UTF-8" standalone="no"?>
<!DOCTYPE svg PUBLIC "-//W3C//DTD SVG 1.0//EN" "http://www.w3.org/TR/2001/PR-SVG-20010719/DTD/svg10.dtd">
<svg width="14cm" height="14cm" viewBox="151 12 270 270" xmlns="http://www.w3.org/2000/svg" xmlns:xlink="http://www.w3.org/1999/xlink">
  <g>
    <polygon style="fill: #f1ff1c" points="286.438,14.5 305.393,52.4107 267.482,52.4107 "/>
    <polygon style="fill: none; fill-opacity:0; stroke-width: 2; stroke: #ff1500" points="286.438,14.5 305.393,52.4107 267.482,52.4107 "/>
    <polygon style="fill: none; fill-opacity:0; stroke-width: 2; stroke: #ff1500" points="286.438,14.5 305.393,52.4107 267.482,52.4107 "/>
    <ellipse style="fill: #f1ff1c" cx="286.438" cy="147.187" rx="75.8214" ry="75.8214"/>
    <ellipse style="fill: none; fill-opacity:0; stroke-width: 2; stroke: #ff1500" cx="286.438" cy="147.187" rx="75.8214" ry="75.8214"/>
    <ellipse style="fill: none; fill-opacity:0; stroke-width: 2; stroke: #ff1500" cx="286.438" cy="147.187" rx="75.8214" ry="75.8214"/>
    <polygon style="fill: #f1ff1c" points="286.438,279.875 305.393,241.964 267.482,241.964 "/>
    <polygon style="fill: none; fill-opacity:0; stroke-width: 2; stroke: #ff1500" points="286.438,279.875 305.393,241.964 267.482,241.964 "/>
    <polygon style="fill: none; fill-opacity:0; stroke-width: 2; stroke: #ff1500" points="286.438,279.875 305.393,241.964 267.482,241.964 "/>
    <polygon style="fill: #f1ff1c" points="153.75,147.187 191.661,166.143 191.661,128.232 "/>
    <polygon style="fill: none; fill-opacity:0; stroke-width: 2; stroke: #ff1500" points="153.75,147.187 191.661,166.143 191.661,128.232 "/>
    <polygon style="fill: none; fill-opacity:0; stroke-width: 2; stroke: #ff1500" points="153.75,147.187 191.661,166.143 191.661,128.232 "/>
    <polygon style="fill: #f1ff1c" points="419.125,147.187 381.214,166.143 381.214,128.232 "/>
    <polygon style="fill: none; fill-opacity:0; stroke-width: 2; stroke: #ff1500" points="419.125,147.187 381.214,166.143 381.214,128.232 "/>
    <polygon style="fill: none; fill-opacity:0; stroke-width: 2; stroke: #ff1500" points="419.125,147.187 381.214,166.143 381.214,128.232 "/>
    <polygon style="fill: #f1ff1c" points="229.571,71.3661 210.616,90.3214 191.661,52.4107 "/>
    <polygon style="fill: none; fill-opacity:0; stroke-width: 2; stroke: #ff1500" points="229.571,71.3661 210.616,90.3214 191.661,52.4107 "/>
    <polygon style="fill: none; fill-opacity:0; stroke-width: 2; stroke: #ff1500" points="229.571,71.3661 210.616,90.3214 191.661,52.4107 "/>
    <polygon style="fill: #f1ff1c" points="362.259,204.054 343.304,223.009 381.214,241.964 "/>
    <polygon style="fill: none; fill-opacity:0; stroke-width: 2; stroke: #ff1500" points="362.259,204.054 343.304,223.009 381.214,241.964 "/>
    <polygon style="fill: none; fill-opacity:0; stroke-width: 2; stroke: #ff1500" points="362.259,204.054 343.304,223.009 381.214,241.964 "/>
    <polygon style="fill: #f1ff1c" points="362.259,90.3214 343.304,71.3661 381.214,52.4107 "/>
    <polygon style="fill: none; fill-opacity:0; stroke-width: 2; stroke: #ff1500" points="362.259,90.3214 343.304,71.3661 381.214,52.4107 "/>
    <polygon style="fill: none; fill-opacity:0; stroke-width: 2; stroke: #ff1500" points="362.259,90.3214 343.304,71.3661 381.214,52.4107 "/>
    <polygon style="fill: #f1ff1c" points="229.571,223.009 210.616,204.054 191.661,241.964 "/>
    <polygon style="fill: none; fill-opacity:0; stroke-width: 2; stroke: #ff1500" points="229.571,223.009 210.616,204.054 191.661,241.964 "/>
    <polygon style="fill: none; fill-opacity:0; stroke-width: 2; stroke: #ff1500" points="229.571,223.009 210.616,204.054 191.661,241.964 "/>
  </g>
</svg>
