<?xml version="1.0" encoding="UTF-8" standalone="no"?>
<!-- Created with Inkscape (http://www.inkscape.org/) -->

<svg
   xmlns:dc="http://purl.org/dc/elements/1.1/"
   xmlns:cc="http://creativecommons.org/ns#"
   xmlns:rdf="http://www.w3.org/1999/02/22-rdf-syntax-ns#"
   xmlns:svg="http://www.w3.org/2000/svg"
   xmlns="http://www.w3.org/2000/svg"
   version="1.1"
   width="64"
   height="64"
   id="svg2985">
  <defs
     id="defs2987" />
  <metadata
     id="metadata2990">
    <rdf:RDF>
      <cc:Work
         rdf:about="">
        <dc:format>image/svg+xml</dc:format>
        <dc:type
           rdf:resource="http://purl.org/dc/dcmitype/StillImage" />
        <dc:title></dc:title>
      </cc:Work>
    </rdf:RDF>
  </metadata>
  <g
     id="layer1">
    <path
       d="M 58,50.875 43.451582,43.50064 47.095906,59.39896 37.187849,46.442568 33.573249,62.347672 30.267965,46.375422 20.110357,59.13711 24.062499,43.312501 9.3737219,50.403163 19.800519,37.860453 3.4898652,37.875697 18.326163,31.099124 3.6241572,24.035931 19.931444,24.367678 9.7499995,11.625 24.298418,18.99936 20.654094,3.1010404 30.562151,16.057432 34.176751,0.15232761 37.482035,16.124578 47.639643,3.3628903 43.687501,19.187499 58.376278,12.096837 47.949481,24.639547 64.260135,24.624303 49.423837,31.400876 64.125843,38.464069 47.818556,38.132322 z"
       transform="translate(-1.625,0.75)"
       id="path2999"
       style="fill:#3bff38;fill-opacity:0.84959352" />
    <path
       d="m 31.878042,62.425 c -0.04349,-0.171875 -0.754891,-3.603125 -1.580897,-7.625 -0.826005,-4.021875 -1.542961,-7.410762 -1.593236,-7.530861 -0.07089,-0.169348 -1.197408,1.170341 -5.018768,5.968474 -2.710049,3.40276 -4.942159,6.172037 -4.960245,6.15395 -0.01809,-0.01809 0.819863,-3.445762 1.86211,-7.617057 1.042248,-4.171293 1.860891,-7.618275 1.819208,-7.659958 -0.04168,-0.04168 -3.238133,1.449367 -7.10322,3.313446 -3.865087,1.86408 -7.0463509,3.370316 -7.0694748,3.347192 -0.023124,-0.02312 2.2027388,-2.741063 4.9463628,-6.039865 2.743623,-3.298801 4.989915,-6.039592 4.991762,-6.090646 0.0019,-0.05105 -3.56277,-0.107304 -7.921369,-0.125 L 2.3255497,38.4875 9.5655564,35.184031 c 3.9820036,-1.816907 7.1965676,-3.340705 7.1434746,-3.386216 -0.05309,-0.04551 -3.312748,-1.623984 -7.2436789,-3.507716 -3.9309313,-1.883734 -7.1371813,-3.429398 -7.125,-3.434809 0.012181,-0.0054 3.2002729,0.06004 7.0846479,0.145441 8.812949,0.193766 8.875,0.194328 8.875,0.08026 0,-0.05171 -2.19375,-2.835646 -4.875,-6.18653 -2.68125,-3.350884 -4.875,-6.122885 -4.875,-6.160003 0,-0.03712 3.178125,1.541978 7.0625,3.509103 4.58832,2.323616 7.0625,3.513355 7.0625,3.396084 0,-0.09928 -0.76046,-3.492874 -1.689911,-7.541323 C 20.055637,8.0498676 19.310325,4.6614405 19.328839,4.5684788 19.347352,4.4755172 21.49451,7.1895797 24.1003,10.599729 26.70609,14.009877 28.875857,16.8 28.922004,16.8 c 0.04615,0 0.867262,-3.456016 1.8247,-7.6800349 0.957437,-4.2240191 1.776154,-7.6412066 1.819369,-7.59375 0.04321,0.047457 0.768165,3.4331599 1.611001,7.5237849 0.842836,4.090625 1.570999,7.543786 1.618139,7.673691 0.06804,0.18751 1.101488,-1.040414 5.013998,-5.95756 2.710559,-3.406564 4.944295,-6.1780945 4.963858,-6.1589569 0.01956,0.019138 -0.81762,3.4472332 -1.860404,7.6179899 -1.042785,4.170757 -1.860745,7.618422 -1.81769,7.661477 0.04306,0.04305 3.23816,-1.449339 7.100235,-3.316431 3.862074,-1.867093 7.043116,-3.37355 7.068984,-3.347683 0.02587,0.02587 -2.205495,2.754894 -4.958583,6.064505 C 48.552525,22.596645 46.3,25.331204 46.3,25.363829 c 0,0.03263 3.583391,0.0738 7.963091,0.0915 l 7.963093,0.03218 -2.556843,1.167466 c -9.659892,4.410754 -11.869163,5.435454 -11.8678,5.5045 8.75e-4,0.04292 3.229225,1.624909 7.174173,3.515534 3.944946,1.890625 7.164565,3.446833 7.154709,3.45824 -0.0099,0.01141 -3.588562,-0.05546 -7.952675,-0.148581 -4.364114,-0.09313 -7.956833,-0.14724 -7.983819,-0.120254 -0.06097,0.06097 -0.148279,-0.05047 5.26051,6.715044 2.458809,3.075572 4.470561,5.624791 4.470561,5.66493 0,0.04014 -3.185699,-1.541049 -7.07933,-3.513754 l -7.079329,-3.586735 0.08085,0.421805 c 0.04447,0.231993 0.835516,3.711768 1.757886,7.732831 0.922369,4.021065 1.660265,7.327797 1.639769,7.348294 -0.0205,0.0205 -2.189548,-2.777279 -4.820113,-6.217277 -2.630565,-3.439999 -4.817582,-6.25415 -4.86004,-6.253672 -0.04246,5e-4 -0.658867,2.573917 -1.3698,5.71875 -2.232364,9.874935 -2.231046,9.869515 -2.316853,9.530379 z"
       id="path3001"
       style="fill:#c83737;fill-opacity:0.84959352;stroke:#00f800;stroke-opacity:1" />
  </g>
</svg>
